<?xml version="1.0" encoding="UTF-8"?>
<svg xmlns="http://www.w3.org/2000/svg" xmlns:xlink="http://www.w3.org/1999/xlink" width="24px" height="24px" viewBox="0 0 24 24" version="1.1">
<defs>
<linearGradient id="linear0" gradientUnits="userSpaceOnUse" x1="5.3335" y1="32.162399" x2="58.665298" y2="32.162399" gradientTransform="matrix(0.375,0,0,0.375,0,0)">
<stop offset="0.225962" style="stop-color:rgb(40%,27.843137%,94.117647%);stop-opacity:1;"/>
<stop offset="0.793269" style="stop-color:rgb(0%,56.862745%,100%);stop-opacity:1;"/>
</linearGradient>
<linearGradient id="linear1" gradientUnits="userSpaceOnUse" x1="5.3335" y1="31.644699" x2="58.665298" y2="31.644699" gradientTransform="matrix(0.375,0,0,0.375,0,0)">
<stop offset="0" style="stop-color:rgb(100%,0.784314%,94.117647%);stop-opacity:1;"/>
<stop offset="0.778846" style="stop-color:rgb(96.862745%,40.784314%,3.137255%);stop-opacity:1;"/>
</linearGradient>
</defs>
<g id="surface1">
<path style=" stroke:none;fill-rule:evenodd;fill:url(#linear0);" d="M 2.414062 18.828125 C 2.179688 18.542969 2.230469 18.121094 2.519531 17.886719 L 5.257812 15.691406 C 5.496094 15.5 5.84375 15.542969 6.039062 15.777344 C 7.898438 18.035156 9.871094 19.082031 12.054688 19.082031 C 14.222656 19.082031 16.140625 18.050781 17.917969 15.820312 C 18.109375 15.578125 18.457031 15.53125 18.699219 15.71875 L 21.472656 17.863281 C 21.765625 18.089844 21.824219 18.511719 21.59375 18.800781 C 18.964844 22.117188 15.75 23.867188 12.054688 23.867188 C 8.367188 23.867188 5.121094 22.128906 2.414062 18.828125 Z M 2.414062 18.828125 "/>
<path style=" stroke:none;fill-rule:evenodd;fill:url(#linear1);" d="M 12.1875 6.441406 C 12.082031 6.351562 11.925781 6.351562 11.824219 6.441406 L 5.875 11.703125 C 5.644531 11.90625 5.296875 11.882812 5.101562 11.652344 L 2.777344 8.96875 C 2.582031 8.742188 2.605469 8.398438 2.832031 8.199219 L 11.644531 0.449219 C 11.851562 0.269531 12.160156 0.269531 12.367188 0.449219 L 21.179688 8.207031 C 21.40625 8.40625 21.429688 8.746094 21.234375 8.972656 L 18.90625 11.65625 C 18.707031 11.886719 18.359375 11.910156 18.132812 11.707031 Z M 12.1875 6.441406 "/>
</g>
</svg>
