<?xml version="1.0" encoding="UTF-8"?>
<svg xmlns="http://www.w3.org/2000/svg" xmlns:xlink="http://www.w3.org/1999/xlink" width="24px" height="24px" viewBox="0 0 24 27" version="1.1">
<g id="surface1">
<path style=" stroke:none;fill-rule:nonzero;fill:rgb(63.137257%,47.450981%,86.274511%);fill-opacity:1;" d="M 23.960938 7.917969 C 23.960938 7.464844 23.863281 7.066406 23.667969 6.722656 C 23.472656 6.382812 23.1875 6.101562 22.800781 5.875 C 19.609375 4.039062 16.417969 2.203125 13.226562 0.363281 C 12.367188 -0.132812 11.535156 -0.117188 10.683594 0.386719 C 9.410156 1.136719 3.054688 4.777344 1.160156 5.875 C 0.382812 6.328125 0 7.019531 0 7.917969 C 0 11.617188 0 15.3125 0 19.011719 C 0 19.457031 0.09375 19.847656 0.28125 20.1875 C 0.472656 20.535156 0.765625 20.824219 1.160156 21.054688 C 3.054688 22.152344 9.410156 25.792969 10.679688 26.542969 C 11.535156 27.046875 12.367188 27.0625 13.226562 26.566406 C 16.417969 24.726562 19.609375 22.890625 22.800781 21.054688 C 23.195312 20.824219 23.488281 20.535156 23.679688 20.1875 C 23.867188 19.847656 23.960938 19.457031 23.960938 19.011719 C 23.960938 19.011719 23.960938 11.617188 23.960938 7.917969 "/>
<path style=" stroke:none;fill-rule:nonzero;fill:rgb(15.686275%,0%,40.784314%);fill-opacity:1;" d="M 12.015625 13.429688 L 0.28125 20.1875 C 0.472656 20.535156 0.765625 20.824219 1.160156 21.054688 C 3.054688 22.152344 9.410156 25.792969 10.679688 26.542969 C 11.535156 27.046875 12.367188 27.0625 13.226562 26.566406 C 16.417969 24.726562 19.609375 22.890625 22.800781 21.054688 C 23.195312 20.824219 23.488281 20.535156 23.679688 20.1875 L 12.015625 13.429688 "/>
<path style=" stroke:none;fill-rule:nonzero;fill:rgb(22.352941%,0%,56.862748%);fill-opacity:1;" d="M 23.960938 7.917969 C 23.960938 7.464844 23.863281 7.066406 23.667969 6.722656 L 12.015625 13.429688 L 23.679688 20.1875 C 23.867188 19.847656 23.960938 19.457031 23.960938 19.011719 C 23.960938 19.011719 23.960938 11.617188 23.960938 7.917969 "/>
<path style=" stroke:none;fill-rule:nonzero;fill:rgb(100%,100%,100%);fill-opacity:1;" d="M 18.925781 10.902344 L 18.925781 12.164062 L 20.191406 12.164062 L 20.191406 10.902344 L 20.820312 10.902344 L 20.820312 12.164062 L 22.085938 12.164062 L 22.085938 12.796875 L 20.820312 12.796875 L 20.820312 14.058594 L 22.085938 14.058594 L 22.085938 14.691406 L 20.820312 14.691406 L 20.820312 15.957031 L 20.191406 15.957031 L 20.191406 14.691406 L 18.925781 14.691406 L 18.925781 15.957031 L 18.296875 15.957031 L 18.296875 14.691406 L 17.03125 14.691406 L 17.03125 14.058594 L 18.296875 14.058594 L 18.296875 12.796875 L 17.03125 12.796875 L 17.03125 12.164062 L 18.296875 12.164062 L 18.296875 10.902344 Z M 20.191406 12.796875 L 18.925781 12.796875 L 18.925781 14.058594 L 20.191406 14.058594 Z M 20.191406 12.796875 "/>
<path style=" stroke:none;fill-rule:nonzero;fill:rgb(100%,100%,100%);fill-opacity:1;" d="M 12.042969 4.558594 C 15.335938 4.558594 18.214844 6.347656 19.753906 9.007812 L 19.738281 8.980469 L 15.863281 11.214844 C 15.101562 9.921875 13.699219 9.046875 12.09375 9.03125 L 12.042969 9.03125 C 9.59375 9.03125 7.609375 11.015625 7.609375 13.464844 C 7.609375 14.265625 7.820312 15.015625 8.191406 15.664062 C 8.957031 17 10.394531 17.898438 12.042969 17.898438 C 13.703125 17.898438 15.148438 16.988281 15.90625 15.640625 L 15.890625 15.671875 L 19.757812 17.914062 C 18.234375 20.550781 15.398438 22.335938 12.140625 22.371094 L 12.042969 22.371094 C 8.738281 22.371094 5.851562 20.570312 4.316406 17.898438 C 3.566406 16.59375 3.136719 15.078125 3.136719 13.464844 C 3.136719 8.546875 7.125 4.558594 12.042969 4.558594 Z M 12.042969 4.558594 "/>
</g>
</svg>
