<?xml version="1.0" encoding="UTF-8"?>
<svg xmlns="http://www.w3.org/2000/svg" xmlns:xlink="http://www.w3.org/1999/xlink" width="24px" height="24px" viewBox="0 0 24 24" version="1.1">
<g id="surface1">
<path style=" stroke:none;fill-rule:nonzero;fill:rgb(88.627452%,89.803922%,90.588236%);fill-opacity:1;" d="M 6 0 C 5.175781 0 4.5 0.675781 4.5 1.5 L 4.5 22.5 C 4.5 23.324219 5.175781 24 6 24 L 21 24 C 21.824219 24 22.5 23.324219 22.5 22.5 L 22.5 6 L 16.5 0 Z M 6 0 "/>
<path style=" stroke:none;fill-rule:nonzero;fill:rgb(69.01961%,71.764708%,74.117649%);fill-opacity:1;" d="M 18 6 L 22.5 6 L 16.5 0 L 16.5 4.5 C 16.5 5.324219 17.175781 6 18 6 Z M 18 6 "/>
<path style=" stroke:none;fill-rule:nonzero;fill:rgb(79.215688%,81.960785%,84.705883%);fill-opacity:1;" d="M 22.5 10.5 L 18 6 L 22.5 6 Z M 22.5 10.5 "/>
<path style=" stroke:none;fill-rule:nonzero;fill:rgb(34.117648%,42.745098%,49.411765%);fill-opacity:1;" d="M 19.5 19.5 C 19.5 19.914062 19.164062 20.25 18.75 20.25 L 2.25 20.25 C 1.835938 20.25 1.5 19.914062 1.5 19.5 L 1.5 12 C 1.5 11.585938 1.835938 11.25 2.25 11.25 L 18.75 11.25 C 19.164062 11.25 19.5 11.585938 19.5 12 Z M 19.5 19.5 "/>
<path style=" stroke:none;fill-rule:nonzero;fill:rgb(100%,100%,100%);fill-opacity:1;" d="M 4.871094 15.894531 C 4.871094 14.738281 5.597656 13.742188 6.976562 13.742188 C 7.5 13.742188 7.914062 13.898438 8.351562 14.277344 C 8.511719 14.425781 8.53125 14.691406 8.367188 14.859375 C 8.207031 15 7.960938 14.984375 7.816406 14.839844 C 7.570312 14.582031 7.320312 14.511719 6.976562 14.511719 C 6.054688 14.511719 5.609375 15.164062 5.609375 15.894531 C 5.609375 16.640625 6.046875 17.324219 6.976562 17.324219 C 7.320312 17.324219 7.636719 17.183594 7.914062 16.9375 C 8.097656 16.792969 8.355469 16.867188 8.464844 17.011719 C 8.558594 17.144531 8.609375 17.363281 8.398438 17.574219 C 7.976562 17.964844 7.472656 18.042969 6.976562 18.042969 C 5.527344 18.042969 4.871094 17.050781 4.871094 15.894531 Z M 4.871094 15.894531 "/>
<path style=" stroke:none;fill-rule:nonzero;fill:rgb(100%,100%,100%);fill-opacity:1;" d="M 9.175781 14.75 C 9.3125 13.585938 11.070312 13.378906 11.898438 14.011719 C 12.304688 14.34375 11.871094 14.863281 11.511719 14.601562 C 11.070312 14.316406 10.0625 14.1875 9.933594 14.808594 C 9.773438 15.792969 12.382812 15.230469 12.339844 16.824219 C 12.296875 18.347656 10.089844 18.382812 9.261719 17.699219 C 9.066406 17.539062 9.070312 17.277344 9.179688 17.113281 C 9.335938 16.957031 9.507812 16.902344 9.714844 17.070312 C 10.203125 17.40625 11.46875 17.660156 11.558594 16.804688 C 11.484375 15.917969 8.988281 16.453125 9.175781 14.75 Z M 9.175781 14.75 "/>
<path style=" stroke:none;fill-rule:nonzero;fill:rgb(100%,100%,100%);fill-opacity:1;" d="M 12.960938 14.75 C 13.097656 13.585938 14.855469 13.378906 15.683594 14.011719 C 16.089844 14.34375 15.660156 14.863281 15.296875 14.601562 C 14.855469 14.316406 13.847656 14.1875 13.722656 14.808594 C 13.558594 15.792969 16.167969 15.230469 16.125 16.824219 C 16.082031 18.347656 13.878906 18.382812 13.050781 17.699219 C 12.851562 17.539062 12.855469 17.277344 12.964844 17.113281 C 13.121094 16.957031 13.292969 16.902344 13.5 17.070312 C 13.992188 17.40625 15.257812 17.660156 15.347656 16.804688 C 15.269531 15.917969 12.773438 16.453125 12.960938 14.75 Z M 12.960938 14.75 "/>
<path style=" stroke:none;fill-rule:nonzero;fill:rgb(79.215688%,81.960785%,84.705883%);fill-opacity:1;" d="M 18.75 20.25 L 4.5 20.25 L 4.5 21 L 18.75 21 C 19.164062 21 19.5 20.664062 19.5 20.25 L 19.5 19.5 C 19.5 19.914062 19.164062 20.25 18.75 20.25 Z M 18.75 20.25 "/>
</g>
</svg>
