<?xml version="1.0" encoding="UTF-8"?>
<svg xmlns="http://www.w3.org/2000/svg" xmlns:xlink="http://www.w3.org/1999/xlink" width="24px" height="24px" viewBox="0 0 24 35" version="1.1">
<g id="surface1">
<path style=" stroke:none;fill-rule:nonzero;fill:rgb(0%,71.372551%,100%);fill-opacity:1;" d="M 11.96875 16.867188 C 11.96875 13.996094 14.332031 11.667969 17.242188 11.667969 L 18.007812 11.667969 C 18.027344 11.667969 18.050781 11.667969 18.070312 11.667969 C 21.339844 11.667969 23.992188 14.277344 23.992188 17.5 C 23.992188 20.722656 21.339844 23.332031 18.070312 23.332031 C 18.050781 23.332031 18.027344 23.332031 18.007812 23.332031 L 17.242188 23.332031 C 14.332031 23.332031 11.96875 21.003906 11.96875 18.132812 Z M 11.96875 16.867188 "/>
<path style=" stroke:none;fill-rule:nonzero;fill:rgb(14.117648%,79.607844%,44.313726%);fill-opacity:1;" d="M 0.0078125 29.167969 C 0.0078125 25.945312 2.660156 23.332031 5.929688 23.332031 L 11.96875 23.332031 L 11.96875 29.109375 C 11.96875 32.363281 9.261719 35 5.957031 35 C 2.6875 35 0.0078125 32.386719 0.0078125 29.167969 Z M 0.0078125 29.167969 "/>
<path style=" stroke:none;fill-rule:nonzero;fill:rgb(100%,44.705883%,21.568628%);fill-opacity:1;" d="M 11.96875 0 L 11.96875 11.667969 L 18.007812 11.667969 C 18.027344 11.667969 18.050781 11.667969 18.070312 11.667969 C 21.339844 11.667969 23.992188 9.054688 23.992188 5.832031 C 23.992188 2.613281 21.339844 0 18.070312 0 C 18.050781 0 18.027344 0 18.007812 0 Z M 11.96875 0 "/>
<path style=" stroke:none;fill-rule:nonzero;fill:rgb(100%,21.568628%,21.568628%);fill-opacity:1;" d="M 0.0078125 5.832031 C 0.0078125 9.054688 2.660156 11.667969 5.929688 11.667969 L 11.96875 11.667969 L 11.96875 0 L 5.925781 0 C 2.660156 0 0.0078125 2.613281 0.0078125 5.832031 Z M 0.0078125 5.832031 "/>
<path style=" stroke:none;fill-rule:nonzero;fill:rgb(52.941179%,30.980393%,100%);fill-opacity:1;" d="M 0.0078125 17.5 C 0.0078125 20.722656 2.660156 23.332031 5.929688 23.332031 L 11.96875 23.332031 L 11.96875 11.667969 L 5.925781 11.667969 C 2.660156 11.667969 0.0078125 14.277344 0.0078125 17.5 Z M 0.0078125 17.5 "/>
</g>
</svg>
