<?xml version="1.0" encoding="UTF-8"?>
<svg xmlns="http://www.w3.org/2000/svg" xmlns:xlink="http://www.w3.org/1999/xlink" width="24px" height="24px" viewBox="0 0 24 24" version="1.1">
<g id="surface1">
<path style=" stroke:none;fill-rule:nonzero;fill:rgb(5.882353%,62.352943%,83.529413%);fill-opacity:1;" d="M 18.558594 3.003906 C 18.785156 3.183594 19.003906 3.371094 19.21875 3.5625 C 19.332031 3.65625 19.332031 3.65625 19.445312 3.753906 C 21.507812 5.519531 22.886719 8.070312 23.15625 10.78125 C 23.363281 14.003906 22.714844 17.035156 20.570312 19.53125 C 20.496094 19.613281 20.421875 19.695312 20.34375 19.78125 C 20.261719 19.871094 20.179688 19.964844 20.09375 20.058594 C 18.644531 21.605469 16.757812 22.628906 14.71875 23.15625 C 14.605469 23.1875 14.492188 23.214844 14.375 23.246094 C 11.527344 23.890625 8.449219 23.308594 5.988281 21.769531 C 4.035156 20.503906 2.636719 18.800781 1.6875 16.6875 C 1.640625 16.585938 1.597656 16.488281 1.550781 16.382812 C 0.410156 13.652344 0.546875 10.425781 1.65625 7.714844 C 2.875 4.898438 5.132812 2.808594 7.96875 1.6875 C 11.488281 0.421875 15.46875 0.863281 18.558594 3.003906 Z M 18.558594 3.003906 "/>
<path style=" stroke:none;fill-rule:nonzero;fill:rgb(92.156863%,92.941177%,93.333334%);fill-opacity:1;" d="M 18.558594 3.003906 C 18.785156 3.183594 19.003906 3.371094 19.21875 3.5625 C 19.332031 3.65625 19.332031 3.65625 19.445312 3.753906 C 21.507812 5.519531 22.886719 8.070312 23.15625 10.78125 C 23.363281 14.003906 22.714844 17.035156 20.570312 19.53125 C 20.496094 19.613281 20.421875 19.695312 20.34375 19.78125 C 20.261719 19.871094 20.179688 19.964844 20.09375 20.058594 C 18.644531 21.605469 16.757812 22.628906 14.71875 23.15625 C 14.605469 23.1875 14.492188 23.214844 14.375 23.246094 C 11.527344 23.890625 8.449219 23.308594 5.988281 21.769531 C 4.035156 20.503906 2.636719 18.800781 1.6875 16.6875 C 1.640625 16.585938 1.597656 16.488281 1.550781 16.382812 C 0.410156 13.652344 0.546875 10.425781 1.65625 7.714844 C 2.875 4.898438 5.132812 2.808594 7.96875 1.6875 C 11.488281 0.421875 15.46875 0.863281 18.558594 3.003906 Z M 6.09375 4.21875 C 6 4.289062 5.910156 4.359375 5.8125 4.433594 C 4.960938 5.105469 4.351562 5.855469 3.75 6.75 C 3.710938 6.804688 3.667969 6.863281 3.628906 6.921875 C 2.347656 8.789062 1.96875 11.289062 2.289062 13.492188 C 2.46875 14.441406 2.773438 15.347656 3.1875 16.21875 C 3.222656 16.296875 3.257812 16.375 3.292969 16.457031 C 3.601562 17.132812 4.035156 17.703125 4.5 18.28125 C 4.558594 18.355469 4.617188 18.429688 4.675781 18.503906 C 6.148438 20.273438 8.269531 21.28125 10.5 21.65625 C 10.507812 21.28125 10.511719 20.902344 10.515625 20.527344 C 10.515625 20.398438 10.519531 20.269531 10.519531 20.140625 C 10.523438 19.957031 10.527344 19.773438 10.527344 19.585938 C 10.527344 19.476562 10.53125 19.367188 10.53125 19.25 C 10.472656 18.65625 10.203125 18.324219 9.757812 17.953125 C 9.292969 17.550781 8.933594 17.210938 8.8125 16.59375 C 8.675781 14.574219 8.894531 12.515625 9.03125 10.5 C 9.074219 9.832031 9.121094 9.164062 9.164062 8.496094 C 9.179688 8.269531 9.195312 8.039062 9.210938 7.8125 C 9.269531 6.894531 9.292969 5.980469 9.28125 5.0625 C 9.4375 5.0625 9.589844 5.0625 9.75 5.0625 C 9.75 5.175781 9.753906 5.292969 9.753906 5.410156 C 9.773438 6.488281 9.792969 7.566406 9.8125 8.648438 C 9.824219 9.199219 9.835938 9.753906 9.84375 10.308594 C 9.851562 10.84375 9.863281 11.378906 9.871094 11.914062 C 9.875 12.121094 9.878906 12.324219 9.882812 12.527344 C 9.886719 12.8125 9.894531 13.101562 9.898438 13.386719 C 9.902344 13.511719 9.902344 13.511719 9.902344 13.644531 C 9.890625 14.085938 9.890625 14.085938 10.125 14.4375 C 10.359375 14.46875 10.359375 14.46875 10.59375 14.4375 C 10.839844 14.191406 10.808594 14.074219 10.820312 13.730469 C 10.824219 13.566406 10.824219 13.566406 10.828125 13.398438 C 10.832031 13.21875 10.832031 13.21875 10.835938 13.035156 C 10.839844 12.910156 10.84375 12.78125 10.847656 12.65625 C 10.890625 11.023438 10.90625 9.386719 10.925781 7.753906 C 10.929688 7.410156 10.933594 7.0625 10.941406 6.71875 C 10.941406 6.527344 10.945312 6.335938 10.945312 6.140625 C 10.949219 6.027344 10.949219 5.914062 10.949219 5.792969 C 10.953125 5.695312 10.953125 5.59375 10.953125 5.488281 C 10.96875 5.25 10.96875 5.25 11.0625 5.0625 C 11.15625 5.0625 11.25 5.0625 11.34375 5.0625 C 11.40625 6.464844 11.445312 7.863281 11.460938 9.265625 C 11.460938 9.410156 11.464844 9.554688 11.464844 9.699219 C 11.472656 10.289062 11.476562 10.878906 11.480469 11.46875 C 11.484375 11.839844 11.488281 12.207031 11.492188 12.574219 C 11.496094 12.710938 11.496094 12.851562 11.496094 12.988281 C 11.5 13.179688 11.5 13.371094 11.503906 13.5625 C 11.503906 13.722656 11.503906 13.722656 11.503906 13.890625 C 11.511719 14.175781 11.511719 14.175781 11.71875 14.4375 C 12 14.484375 12 14.484375 12.28125 14.4375 C 12.507812 14.101562 12.492188 13.945312 12.496094 13.542969 C 12.5 13.449219 12.5 13.449219 12.5 13.355469 C 12.503906 13.148438 12.503906 12.945312 12.503906 12.738281 C 12.503906 12.59375 12.507812 12.449219 12.507812 12.300781 C 12.511719 11.917969 12.515625 11.535156 12.519531 11.148438 C 12.523438 10.542969 12.53125 9.9375 12.535156 9.332031 C 12.539062 9.183594 12.539062 9.039062 12.542969 8.890625 C 12.554688 7.582031 12.59375 6.277344 12.65625 4.96875 C 12.78125 4.96875 12.902344 4.96875 13.03125 4.96875 C 13.03125 5.09375 13.03125 5.09375 13.035156 5.226562 C 13.042969 6.03125 13.054688 6.835938 13.0625 7.644531 C 13.066406 8.058594 13.074219 8.472656 13.078125 8.886719 C 13.101562 11.140625 13.101562 11.140625 13.164062 13.390625 C 13.167969 13.476562 13.167969 13.566406 13.171875 13.65625 C 13.171875 14.089844 13.171875 14.089844 13.40625 14.4375 C 13.640625 14.46875 13.640625 14.46875 13.875 14.4375 C 14.117188 14.195312 14.089844 14.105469 14.097656 13.769531 C 14.101562 13.660156 14.105469 13.554688 14.109375 13.441406 C 14.109375 13.320312 14.113281 13.199219 14.117188 13.070312 C 14.117188 12.941406 14.121094 12.8125 14.125 12.683594 C 14.1875 10.144531 14.214844 7.601562 14.25 5.0625 C 14.375 5.0625 14.496094 5.0625 14.625 5.0625 C 14.699219 6.191406 14.773438 7.320312 14.84375 8.453125 C 14.878906 8.976562 14.914062 9.5 14.945312 10.027344 C 15.210938 14.046875 15.210938 14.046875 15.222656 15.578125 C 15.222656 15.675781 15.226562 15.773438 15.226562 15.875 C 15.222656 16.625 15.054688 17.15625 14.53125 17.71875 C 14.34375 17.875 14.152344 18.03125 13.960938 18.183594 C 13.378906 18.804688 13.464844 19.535156 13.484375 20.339844 C 13.484375 20.457031 13.484375 20.574219 13.484375 20.695312 C 13.488281 20.984375 13.496094 21.273438 13.5 21.5625 C 13.648438 21.550781 13.792969 21.535156 13.941406 21.523438 C 14.023438 21.515625 14.105469 21.507812 14.191406 21.5 C 16.265625 21.242188 18.378906 19.730469 19.664062 18.136719 C 20.597656 16.914062 21.207031 15.550781 21.5625 14.0625 C 21.578125 14 21.597656 13.933594 21.613281 13.871094 C 22.167969 11.671875 21.675781 9.082031 20.527344 7.148438 C 20.296875 6.78125 20.042969 6.4375 19.78125 6.09375 C 19.675781 5.953125 19.675781 5.953125 19.566406 5.8125 C 18.289062 4.199219 16.433594 3.035156 14.4375 2.53125 C 14.339844 2.503906 14.242188 2.480469 14.140625 2.453125 C 11.332031 1.789062 8.359375 2.449219 6.09375 4.21875 Z M 6.09375 4.21875 "/>
<path style=" stroke:none;fill-rule:nonzero;fill:rgb(0.784314%,0.784314%,0.784314%);fill-opacity:1;" d="M 18.558594 3.003906 C 18.785156 3.183594 19.003906 3.371094 19.21875 3.5625 C 19.332031 3.65625 19.332031 3.65625 19.445312 3.753906 C 21.507812 5.519531 22.886719 8.070312 23.15625 10.78125 C 23.363281 14.003906 22.714844 17.035156 20.570312 19.53125 C 20.496094 19.613281 20.421875 19.695312 20.34375 19.78125 C 20.261719 19.871094 20.179688 19.964844 20.09375 20.058594 C 18.644531 21.605469 16.757812 22.628906 14.71875 23.15625 C 14.605469 23.1875 14.492188 23.214844 14.375 23.246094 C 11.527344 23.890625 8.449219 23.308594 5.988281 21.769531 C 4.035156 20.503906 2.636719 18.800781 1.6875 16.6875 C 1.640625 16.585938 1.597656 16.488281 1.550781 16.382812 C 0.410156 13.652344 0.546875 10.425781 1.65625 7.714844 C 2.875 4.898438 5.132812 2.808594 7.96875 1.6875 C 11.488281 0.421875 15.46875 0.863281 18.558594 3.003906 Z M 9.28125 1.6875 C 9.164062 1.71875 9.050781 1.753906 8.929688 1.789062 C 6.125 2.632812 3.914062 4.523438 2.535156 7.085938 C 2.171875 7.792969 1.898438 8.511719 1.6875 9.28125 C 1.65625 9.382812 1.628906 9.484375 1.597656 9.589844 C 0.902344 12.371094 1.535156 15.226562 2.964844 17.648438 C 3.273438 18.148438 3.644531 18.589844 4.03125 19.03125 C 4.113281 19.132812 4.191406 19.234375 4.269531 19.335938 C 5.558594 20.789062 7.429688 21.796875 9.28125 22.3125 C 9.382812 22.34375 9.488281 22.371094 9.59375 22.402344 C 12.367188 23.085938 15.230469 22.460938 17.648438 21.035156 C 18.148438 20.726562 18.589844 20.355469 19.03125 19.96875 C 19.175781 19.859375 19.175781 19.859375 19.324219 19.746094 C 20.769531 18.425781 21.789062 16.589844 22.3125 14.71875 C 22.34375 14.617188 22.371094 14.515625 22.402344 14.410156 C 22.804688 12.800781 22.777344 10.871094 22.3125 9.28125 C 22.269531 9.117188 22.269531 9.117188 22.222656 8.949219 C 21.808594 7.566406 21.125 6.226562 20.15625 5.15625 C 20.089844 5.074219 20.023438 4.996094 19.953125 4.910156 C 18.601562 3.320312 16.71875 2.238281 14.71875 1.6875 C 14.566406 1.644531 14.566406 1.644531 14.410156 1.597656 C 12.804688 1.195312 10.871094 1.21875 9.28125 1.6875 Z M 9.28125 1.6875 "/>
<path style=" stroke:none;fill-rule:nonzero;fill:rgb(7.058824%,52.941179%,70.980394%);fill-opacity:1;" d="M 14.90625 8.53125 C 14.9375 8.53125 14.96875 8.53125 15 8.53125 C 15 8.71875 15 8.902344 15 9.09375 C 15.0625 9.09375 15.125 9.09375 15.1875 9.09375 C 15.191406 9.15625 15.191406 9.21875 15.195312 9.285156 C 15.207031 9.578125 15.21875 9.867188 15.226562 10.160156 C 15.230469 10.257812 15.234375 10.359375 15.238281 10.460938 C 15.261719 11.472656 15.261719 11.472656 15.425781 12.46875 C 15.472656 12.675781 15.476562 12.855469 15.476562 13.070312 C 15.472656 13.148438 15.472656 13.222656 15.472656 13.304688 C 15.46875 13.464844 15.46875 13.628906 15.464844 13.789062 C 15.464844 13.867188 15.464844 13.945312 15.460938 14.023438 C 15.460938 14.09375 15.460938 14.164062 15.460938 14.238281 C 15.46875 14.441406 15.511719 14.613281 15.5625 14.8125 C 15.652344 15.753906 15.71875 16.765625 15.09375 17.53125 C 14.859375 17.785156 14.617188 18.027344 14.363281 18.261719 C 13.988281 18.609375 13.808594 18.875 13.75 19.382812 C 13.75 19.476562 13.746094 19.570312 13.742188 19.664062 C 13.738281 19.761719 13.734375 19.863281 13.730469 19.964844 C 13.730469 20.070312 13.726562 20.171875 13.722656 20.28125 C 13.71875 20.382812 13.714844 20.488281 13.710938 20.597656 C 13.703125 20.855469 13.695312 21.117188 13.6875 21.375 C 13.8125 21.4375 13.933594 21.5 14.0625 21.5625 C 13.875 21.5625 13.691406 21.5625 13.5 21.5625 C 13.492188 21.15625 13.488281 20.746094 13.484375 20.335938 C 13.480469 20.222656 13.476562 20.109375 13.476562 19.988281 C 13.464844 18.707031 13.464844 18.707031 14 18.144531 C 14.082031 18.082031 14.160156 18.015625 14.242188 17.945312 C 14.710938 17.546875 15.0625 17.210938 15.1875 16.59375 C 15.320312 14.78125 15.128906 12.933594 15.007812 11.125 C 15 11.03125 14.992188 10.933594 14.988281 10.835938 C 14.972656 10.65625 14.960938 10.480469 14.949219 10.300781 C 14.910156 9.710938 14.898438 9.125 14.90625 8.53125 Z M 14.90625 8.53125 "/>
<path style=" stroke:none;fill-rule:nonzero;fill:rgb(7.450981%,54.11765%,72.549021%);fill-opacity:1;" d="M 11.53125 7.96875 C 11.5625 7.96875 11.59375 7.96875 11.625 7.96875 C 11.667969 8.386719 11.710938 8.804688 11.75 9.226562 C 11.765625 9.367188 11.777344 9.507812 11.792969 9.652344 C 11.8125 9.855469 11.835938 10.0625 11.855469 10.265625 C 11.859375 10.328125 11.867188 10.394531 11.875 10.457031 C 11.90625 10.808594 11.890625 11.097656 11.8125 11.4375 C 11.804688 11.621094 11.800781 11.804688 11.800781 11.984375 C 11.800781 12.140625 11.800781 12.140625 11.800781 12.296875 C 11.800781 12.40625 11.800781 12.511719 11.800781 12.621094 C 11.800781 12.726562 11.800781 12.835938 11.800781 12.945312 C 11.800781 13.050781 11.800781 13.152344 11.800781 13.257812 C 11.800781 13.351562 11.800781 13.445312 11.800781 13.542969 C 11.800781 13.792969 11.800781 13.792969 11.90625 14.0625 C 12 14.09375 12.09375 14.125 12.1875 14.15625 C 12.1875 14.058594 12.1875 13.960938 12.1875 13.859375 C 12.171875 10.589844 12.171875 10.589844 12.226562 9.429688 C 12.230469 9.351562 12.234375 9.277344 12.238281 9.203125 C 12.261719 8.785156 12.3125 8.378906 12.375 7.96875 C 12.40625 7.96875 12.4375 7.96875 12.46875 7.96875 C 12.472656 8.769531 12.476562 9.574219 12.476562 10.375 C 12.480469 10.746094 12.480469 11.117188 12.484375 11.492188 C 12.484375 11.851562 12.484375 12.210938 12.488281 12.570312 C 12.488281 12.707031 12.488281 12.84375 12.488281 12.980469 C 12.488281 13.171875 12.488281 13.363281 12.488281 13.554688 C 12.492188 13.664062 12.492188 13.773438 12.492188 13.886719 C 12.46875 14.15625 12.46875 14.15625 12.28125 14.4375 C 12 14.472656 12 14.472656 11.71875 14.4375 C 11.496094 14.101562 11.507812 13.957031 11.511719 13.554688 C 11.511719 13.496094 11.511719 13.433594 11.511719 13.375 C 11.511719 13.175781 11.511719 12.976562 11.511719 12.773438 C 11.511719 12.636719 11.511719 12.5 11.515625 12.359375 C 11.515625 11.996094 11.515625 11.632812 11.519531 11.269531 C 11.519531 10.898438 11.519531 10.527344 11.523438 10.15625 C 11.523438 9.425781 11.527344 8.699219 11.53125 7.96875 Z M 11.53125 7.96875 "/>
<path style=" stroke:none;fill-rule:nonzero;fill:rgb(6.666667%,52.156866%,70.19608%);fill-opacity:1;" d="M 9 8.625 C 9.03125 8.625 9.0625 8.625 9.09375 8.625 C 9.054688 9.875 9 11.121094 8.914062 12.367188 C 8.84375 13.402344 8.792969 14.4375 8.78125 15.476562 C 8.78125 15.578125 8.78125 15.683594 8.777344 15.789062 C 8.777344 16.582031 8.917969 17.121094 9.46875 17.71875 C 9.65625 17.878906 9.847656 18.039062 10.039062 18.191406 C 10.34375 18.503906 10.488281 18.816406 10.53125 19.25 C 10.53125 19.363281 10.527344 19.472656 10.527344 19.585938 C 10.527344 19.707031 10.527344 19.828125 10.523438 19.953125 C 10.523438 20.078125 10.519531 20.207031 10.515625 20.332031 C 10.515625 20.460938 10.515625 20.589844 10.515625 20.71875 C 10.511719 21.03125 10.503906 21.34375 10.5 21.65625 C 10.3125 21.625 10.128906 21.59375 9.9375 21.5625 C 9.9375 21.53125 9.9375 21.5 9.9375 21.46875 C 10.09375 21.46875 10.246094 21.46875 10.40625 21.46875 C 10.386719 21.265625 10.367188 21.0625 10.34375 20.855469 C 10.320312 20.601562 10.296875 20.34375 10.269531 20.085938 C 10.253906 19.925781 10.238281 19.765625 10.226562 19.605469 C 10.21875 19.527344 10.210938 19.449219 10.203125 19.367188 C 10.195312 19.292969 10.1875 19.21875 10.179688 19.144531 C 10.175781 19.078125 10.167969 19.011719 10.160156 18.941406 C 10.082031 18.523438 9.902344 18.324219 9.554688 18.085938 C 9.199219 17.84375 9.199219 17.84375 9.09375 17.53125 C 9 17.5 8.90625 17.46875 8.8125 17.4375 C 8.179688 16.339844 8.375 14.832031 8.511719 13.628906 C 8.53125 13.398438 8.53125 13.179688 8.523438 12.949219 C 8.519531 12.59375 8.558594 12.265625 8.617188 11.917969 C 8.726562 11.292969 8.753906 10.675781 8.773438 10.046875 C 8.789062 9.546875 8.863281 9.105469 9 8.625 Z M 9 8.625 "/>
<path style=" stroke:none;fill-rule:nonzero;fill:rgb(4.705882%,53.725493%,72.549021%);fill-opacity:1;" d="M 13.21875 9 C 13.601562 9.578125 13.511719 10.355469 13.507812 11.027344 C 13.507812 11.121094 13.507812 11.210938 13.507812 11.308594 C 13.507812 11.601562 13.507812 11.894531 13.507812 12.1875 C 13.503906 12.386719 13.503906 12.585938 13.503906 12.785156 C 13.503906 13.273438 13.503906 13.761719 13.5 14.25 C 13.800781 14.09375 13.800781 14.09375 13.84375 13.835938 C 13.886719 13.375 13.898438 12.921875 13.90625 12.460938 C 13.90625 12.363281 13.910156 12.261719 13.910156 12.160156 C 13.917969 11.84375 13.921875 11.53125 13.929688 11.214844 C 13.933594 11 13.9375 10.785156 13.941406 10.570312 C 13.949219 10.046875 13.960938 9.523438 13.96875 9 C 14 9 14.03125 9 14.0625 9 C 14.066406 9.679688 14.070312 10.363281 14.070312 11.042969 C 14.074219 11.359375 14.074219 11.675781 14.078125 11.992188 C 14.078125 12.355469 14.078125 12.71875 14.082031 13.082031 C 14.082031 13.195312 14.082031 13.3125 14.082031 13.429688 C 14.082031 13.535156 14.082031 13.636719 14.082031 13.746094 C 14.085938 13.839844 14.085938 13.933594 14.085938 14.027344 C 14.0625 14.25 14.0625 14.25 13.875 14.4375 C 13.640625 14.460938 13.640625 14.460938 13.40625 14.4375 C 13.21875 14.25 13.21875 14.25 13.195312 14.027344 C 13.195312 13.933594 13.195312 13.84375 13.199219 13.746094 C 13.199219 13.640625 13.199219 13.535156 13.199219 13.429688 C 13.199219 13.3125 13.199219 13.199219 13.199219 13.082031 C 13.199219 12.96875 13.199219 12.851562 13.203125 12.730469 C 13.203125 12.421875 13.203125 12.113281 13.207031 11.804688 C 13.207031 11.488281 13.207031 11.171875 13.210938 10.855469 C 13.210938 10.238281 13.214844 9.617188 13.21875 9 Z M 13.21875 9 "/>
<path style=" stroke:none;fill-rule:nonzero;fill:rgb(17.647059%,72.941178%,92.941177%);fill-opacity:1;" d="M 16.6875 3.375 C 16.6875 3.46875 16.6875 3.5625 16.6875 3.65625 C 16.613281 3.617188 16.542969 3.578125 16.46875 3.535156 C 15.90625 3.242188 15.449219 3.023438 14.8125 3 C 14.8125 2.9375 14.8125 2.875 14.8125 2.8125 C 14.347656 2.765625 14.347656 2.765625 13.875 2.71875 C 13.875 2.65625 13.875 2.59375 13.875 2.53125 C 13.6875 2.5625 13.503906 2.59375 13.3125 2.625 C 13.3125 2.5625 13.3125 2.5 13.3125 2.4375 C 13.199219 2.464844 13.199219 2.464844 13.085938 2.492188 C 12.808594 2.523438 12.636719 2.523438 12.367188 2.484375 C 11.300781 2.347656 9.953125 2.488281 9 3 C 8.597656 3.128906 8.199219 3.21875 7.78125 3.28125 C 10.140625 1.3125 14.21875 2.222656 16.6875 3.375 Z M 16.6875 3.375 "/>
<path style=" stroke:none;fill-rule:nonzero;fill:rgb(4.313726%,50.588238%,68.627453%);fill-opacity:1;" d="M 9.9375 9.375 C 9.96875 9.375 10 9.375 10.03125 9.375 C 10.035156 9.457031 10.035156 9.542969 10.039062 9.628906 C 10.046875 9.941406 10.054688 10.25 10.066406 10.5625 C 10.070312 10.695312 10.074219 10.832031 10.078125 10.964844 C 10.082031 11.15625 10.089844 11.351562 10.09375 11.542969 C 10.097656 11.660156 10.101562 11.777344 10.105469 11.898438 C 10.113281 12.191406 10.113281 12.191406 10.21875 12.46875 C 10.222656 12.769531 10.222656 13.066406 10.214844 13.363281 C 10.210938 13.65625 10.21875 13.878906 10.3125 14.15625 C 10.40625 14.15625 10.5 14.15625 10.59375 14.15625 C 10.625 12.578125 10.65625 11 10.6875 9.375 C 10.71875 9.375 10.75 9.375 10.78125 9.375 C 10.785156 10.066406 10.789062 10.757812 10.792969 11.449219 C 10.792969 11.683594 10.792969 11.917969 10.796875 12.152344 C 10.796875 12.492188 10.796875 12.828125 10.800781 13.164062 C 10.800781 13.269531 10.800781 13.375 10.800781 13.484375 C 10.800781 13.582031 10.800781 13.679688 10.800781 13.78125 C 10.804688 13.867188 10.804688 13.953125 10.804688 14.042969 C 10.78125 14.25 10.78125 14.25 10.59375 14.4375 C 10.359375 14.460938 10.359375 14.460938 10.125 14.4375 C 9.9375 14.25 9.9375 14.25 9.914062 14.042969 C 9.914062 13.957031 9.914062 13.871094 9.917969 13.78125 C 9.917969 13.683594 9.917969 13.585938 9.917969 13.484375 C 9.917969 13.328125 9.917969 13.328125 9.917969 13.164062 C 9.917969 13.058594 9.917969 12.949219 9.921875 12.839844 C 9.921875 12.492188 9.921875 12.148438 9.925781 11.800781 C 9.925781 11.566406 9.925781 11.332031 9.929688 11.097656 C 9.929688 10.523438 9.933594 9.949219 9.9375 9.375 Z M 9.9375 9.375 "/>
<path style=" stroke:none;fill-rule:nonzero;fill:rgb(2.745098%,47.058824%,65.882355%);fill-opacity:1;" d="M 15.1875 16.78125 C 15.25 16.8125 15.3125 16.84375 15.375 16.875 C 15.210938 17.457031 14.75 17.863281 14.34375 18.289062 C 14.285156 18.351562 14.226562 18.414062 14.167969 18.480469 C 14.113281 18.535156 14.058594 18.59375 14.003906 18.652344 C 13.675781 19.140625 13.753906 19.855469 13.726562 20.425781 C 13.722656 20.515625 13.71875 20.609375 13.714844 20.703125 C 13.707031 20.925781 13.695312 21.152344 13.6875 21.375 C 13.8125 21.4375 13.933594 21.5 14.0625 21.5625 C 13.875 21.5625 13.691406 21.5625 13.5 21.5625 C 13.492188 21.15625 13.488281 20.746094 13.484375 20.335938 C 13.480469 20.222656 13.476562 20.109375 13.476562 19.988281 C 13.464844 18.699219 13.464844 18.699219 13.996094 18.152344 C 14.078125 18.089844 14.15625 18.023438 14.238281 17.960938 C 14.660156 17.597656 14.921875 17.265625 15.1875 16.78125 Z M 15.1875 16.78125 "/>
<path style=" stroke:none;fill-rule:nonzero;fill:rgb(11.372549%,57.647061%,76.078433%);fill-opacity:1;" d="M 10.78125 7.40625 C 10.8125 7.40625 10.84375 7.40625 10.875 7.40625 C 10.875 8.738281 10.875 10.066406 10.875 11.4375 C 10.84375 11.4375 10.8125 11.4375 10.78125 11.4375 C 10.75 12.335938 10.71875 13.230469 10.6875 14.15625 C 10.59375 14.15625 10.5 14.15625 10.40625 14.15625 C 10.421875 14.09375 10.4375 14.027344 10.453125 13.960938 C 10.507812 13.652344 10.507812 13.367188 10.507812 13.054688 C 10.503906 12.929688 10.503906 12.804688 10.503906 12.679688 C 10.503906 12.613281 10.503906 12.550781 10.5 12.480469 C 10.488281 10.78125 10.488281 9.085938 10.78125 7.40625 Z M 10.78125 7.40625 "/>
<path style=" stroke:none;fill-rule:nonzero;fill:rgb(3.921569%,47.058824%,65.490198%);fill-opacity:1;" d="M 8.71875 16.78125 C 9.09375 17.25 9.09375 17.25 9.257812 17.472656 C 9.496094 17.75 9.757812 17.964844 10.039062 18.191406 C 10.34375 18.503906 10.488281 18.816406 10.53125 19.25 C 10.53125 19.363281 10.527344 19.472656 10.527344 19.585938 C 10.527344 19.707031 10.527344 19.828125 10.523438 19.953125 C 10.523438 20.078125 10.519531 20.207031 10.515625 20.332031 C 10.515625 20.460938 10.515625 20.589844 10.515625 20.71875 C 10.511719 21.03125 10.503906 21.34375 10.5 21.65625 C 10.3125 21.625 10.128906 21.59375 9.9375 21.5625 C 9.9375 21.53125 9.9375 21.5 9.9375 21.46875 C 10.09375 21.46875 10.246094 21.46875 10.40625 21.46875 C 10.386719 21.265625 10.367188 21.0625 10.34375 20.855469 C 10.320312 20.601562 10.296875 20.34375 10.269531 20.085938 C 10.253906 19.925781 10.238281 19.765625 10.226562 19.605469 C 10.21875 19.527344 10.210938 19.449219 10.203125 19.367188 C 10.191406 19.257812 10.191406 19.257812 10.179688 19.144531 C 10.175781 19.078125 10.167969 19.011719 10.160156 18.941406 C 10.082031 18.523438 9.902344 18.324219 9.554688 18.085938 C 9.199219 17.84375 9.199219 17.84375 9.09375 17.53125 C 9 17.5 8.90625 17.46875 8.8125 17.4375 C 8.78125 17.222656 8.75 17.003906 8.71875 16.78125 Z M 8.71875 16.78125 "/>
<path style=" stroke:none;fill-rule:nonzero;fill:rgb(4.313726%,49.803922%,67.843139%);fill-opacity:1;" d="M 13.96875 9 C 14 9 14.03125 9 14.0625 9 C 14.066406 9.679688 14.070312 10.363281 14.070312 11.042969 C 14.074219 11.359375 14.074219 11.675781 14.078125 11.992188 C 14.078125 12.355469 14.078125 12.71875 14.082031 13.082031 C 14.082031 13.195312 14.082031 13.3125 14.082031 13.429688 C 14.082031 13.535156 14.082031 13.636719 14.082031 13.746094 C 14.085938 13.839844 14.085938 13.933594 14.085938 14.027344 C 14.0625 14.25 14.0625 14.25 13.875 14.4375 C 13.628906 14.449219 13.628906 14.449219 13.40625 14.4375 C 13.375 14.375 13.34375 14.3125 13.3125 14.25 C 13.386719 14.230469 13.464844 14.210938 13.539062 14.191406 C 13.660156 14.128906 13.660156 14.128906 13.78125 14.0625 C 13.917969 13.542969 13.894531 12.992188 13.90625 12.460938 C 13.90625 12.363281 13.910156 12.261719 13.910156 12.160156 C 13.917969 11.84375 13.921875 11.53125 13.929688 11.214844 C 13.933594 11 13.9375 10.785156 13.941406 10.570312 C 13.949219 10.046875 13.960938 9.523438 13.96875 9 Z M 13.96875 9 "/>
<path style=" stroke:none;fill-rule:nonzero;fill:rgb(12.941177%,68.235296%,89.019608%);fill-opacity:1;" d="M 6.75 3.75 C 6.8125 3.78125 6.875 3.8125 6.9375 3.84375 C 6.839844 3.921875 6.839844 3.921875 6.742188 4 C 5.566406 4.949219 5.566406 4.949219 4.546875 6.050781 C 4.40625 6.1875 4.40625 6.1875 4.125 6.1875 C 5.726562 4.386719 5.726562 4.386719 6.75 3.75 Z M 6.75 3.75 "/>
<path style=" stroke:none;fill-rule:nonzero;fill:rgb(5.098039%,51.372552%,70.19608%);fill-opacity:1;" d="M 11.71875 12.75 C 11.75 12.75 11.78125 12.75 11.8125 12.75 C 11.8125 12.820312 11.808594 12.890625 11.808594 12.964844 C 11.808594 13.058594 11.808594 13.152344 11.804688 13.25 C 11.804688 13.339844 11.804688 13.433594 11.804688 13.527344 C 11.800781 13.789062 11.800781 13.789062 11.90625 14.0625 C 12 14.09375 12.09375 14.125 12.1875 14.15625 C 12.183594 14.003906 12.183594 14.003906 12.175781 13.851562 C 12.1875 13.519531 12.21875 13.402344 12.375 13.125 C 12.378906 13.324219 12.378906 13.527344 12.382812 13.726562 C 12.382812 13.839844 12.382812 13.953125 12.382812 14.066406 C 12.375 14.34375 12.375 14.34375 12.28125 14.4375 C 12 14.449219 12 14.449219 11.71875 14.4375 C 11.625 14.34375 11.625 14.34375 11.613281 14.105469 C 11.613281 14.007812 11.613281 13.90625 11.613281 13.804688 C 11.613281 13.707031 11.613281 13.609375 11.613281 13.507812 C 11.625 13.242188 11.660156 13.007812 11.71875 12.75 Z M 11.71875 12.75 "/>
<path style=" stroke:none;fill-rule:nonzero;fill:rgb(26.666668%,62.352943%,76.47059%);fill-opacity:1;" d="M 13.125 7.78125 C 13.15625 7.78125 13.1875 7.78125 13.21875 7.78125 C 13.253906 7.945312 13.285156 8.109375 13.320312 8.273438 C 13.335938 8.363281 13.355469 8.457031 13.375 8.550781 C 13.40625 8.8125 13.40625 8.8125 13.363281 8.972656 C 13.292969 9.269531 13.292969 9.554688 13.28125 9.859375 C 13.28125 9.925781 13.277344 9.988281 13.277344 10.054688 C 13.269531 10.257812 13.265625 10.460938 13.257812 10.664062 C 13.253906 10.800781 13.25 10.941406 13.246094 11.078125 C 13.238281 11.417969 13.226562 11.753906 13.21875 12.09375 C 13.1875 12.09375 13.15625 12.09375 13.125 12.09375 C 13.125 10.671875 13.125 9.246094 13.125 7.78125 Z M 13.125 7.78125 "/>
<path style=" stroke:none;fill-rule:nonzero;fill:rgb(14.117648%,56.078434%,72.156864%);fill-opacity:1;" d="M 12.28125 11.34375 C 12.3125 11.34375 12.34375 11.34375 12.375 11.34375 C 12.5 12.277344 12.476562 13.214844 12.46875 14.15625 C 12.4375 14.15625 12.40625 14.15625 12.375 14.15625 C 12.367188 14.058594 12.367188 14.058594 12.359375 13.960938 C 12.351562 13.875 12.34375 13.792969 12.335938 13.703125 C 12.328125 13.621094 12.320312 13.539062 12.3125 13.453125 C 12.289062 13.207031 12.289062 13.207031 12.1875 12.9375 C 12.183594 12.757812 12.183594 12.757812 12.199219 12.5625 C 12.203125 12.492188 12.207031 12.417969 12.210938 12.347656 C 12.21875 12.273438 12.222656 12.199219 12.226562 12.125 C 12.234375 12.046875 12.238281 11.972656 12.242188 11.898438 C 12.253906 11.710938 12.269531 11.527344 12.28125 11.34375 Z M 12.28125 11.34375 "/>
<path style=" stroke:none;fill-rule:nonzero;fill:rgb(89.019608%,89.019608%,89.019608%);fill-opacity:1;" d="M 4.78125 4.125 C 4.90625 4.15625 5.027344 4.1875 5.15625 4.21875 C 4.785156 4.589844 4.414062 4.960938 4.03125 5.34375 C 4 5.25 3.96875 5.15625 3.9375 5.0625 C 4.214844 4.753906 4.496094 4.445312 4.78125 4.125 Z M 4.78125 4.125 "/>
<path style=" stroke:none;fill-rule:nonzero;fill:rgb(9.411765%,56.470591%,74.509805%);fill-opacity:1;" d="M 8.71875 11.25 C 8.75 11.25 8.78125 11.25 8.8125 11.25 C 8.84375 11.683594 8.875 12.117188 8.90625 12.5625 C 8.78125 12.59375 8.660156 12.625 8.53125 12.65625 C 8.542969 12.472656 8.558594 12.292969 8.570312 12.109375 C 8.578125 12.011719 8.585938 11.910156 8.59375 11.804688 C 8.625 11.53125 8.625 11.53125 8.71875 11.25 Z M 8.71875 11.25 "/>
<path style=" stroke:none;fill-rule:nonzero;fill:rgb(23.921569%,57.647061%,71.764708%);fill-opacity:1;" d="M 15.28125 15.1875 C 15.3125 15.1875 15.34375 15.1875 15.375 15.1875 C 15.375 15.558594 15.375 15.929688 15.375 16.3125 C 15.4375 16.3125 15.5 16.3125 15.5625 16.3125 C 15.53125 16.46875 15.5 16.621094 15.46875 16.78125 C 15.375 16.78125 15.28125 16.78125 15.1875 16.78125 C 15.21875 16.253906 15.25 15.730469 15.28125 15.1875 Z M 15.28125 15.1875 "/>
<path style=" stroke:none;fill-rule:nonzero;fill:rgb(27.843139%,58.823532%,71.372551%);fill-opacity:1;" d="M 8.625 15.1875 C 8.65625 15.1875 8.6875 15.1875 8.71875 15.1875 C 8.75 15.714844 8.78125 16.238281 8.8125 16.78125 C 8.75 16.8125 8.6875 16.84375 8.625 16.875 C 8.484375 16.308594 8.566406 15.757812 8.625 15.1875 Z M 8.625 15.1875 "/>
<path style=" stroke:none;fill-rule:nonzero;fill:rgb(13.333334%,64.705884%,85.490197%);fill-opacity:1;" d="M 3.75 6.75 C 3.84375 6.78125 3.9375 6.8125 4.03125 6.84375 C 3.957031 6.953125 3.882812 7.0625 3.808594 7.171875 C 3.765625 7.234375 3.726562 7.292969 3.683594 7.355469 C 3.644531 7.402344 3.605469 7.453125 3.5625 7.5 C 3.5 7.5 3.4375 7.5 3.375 7.5 C 3.480469 7.222656 3.582031 7 3.75 6.75 Z M 3.75 6.75 "/>
</g>
</svg>
