<?xml version="1.0" encoding="UTF-8"?>
<svg xmlns="http://www.w3.org/2000/svg" xmlns:xlink="http://www.w3.org/1999/xlink" width="24px" height="24px" viewBox="0 0 24 24" version="1.1">
<g id="surface1">
<path style=" stroke:none;fill-rule:nonzero;fill:rgb(0%,0%,0%);fill-opacity:1;" d="M 11.808594 0.480469 L 11.898438 0.480469 C 14.050781 0.480469 16.066406 1.070312 17.789062 2.09375 L 17.738281 2.0625 C 19.53125 3.113281 20.988281 4.566406 22.007812 6.308594 L 22.039062 6.363281 C 23.035156 8.0625 23.625 10.105469 23.625 12.28125 C 23.625 17.472656 20.28125 21.882812 15.632812 23.476562 L 15.546875 23.5 C 15.488281 23.519531 15.417969 23.53125 15.347656 23.53125 C 15.191406 23.53125 15.046875 23.476562 14.933594 23.390625 C 14.8125 23.28125 14.734375 23.121094 14.734375 22.945312 C 14.734375 22.941406 14.734375 22.933594 14.734375 22.929688 L 14.734375 22.933594 C 14.734375 22.902344 14.738281 22.507812 14.742188 21.753906 C 14.746094 21 14.75 20.3125 14.75 19.6875 C 14.757812 19.617188 14.761719 19.53125 14.761719 19.449219 C 14.761719 18.6875 14.449219 18 13.949219 17.503906 C 14.542969 17.445312 15.078125 17.347656 15.597656 17.210938 L 15.527344 17.226562 C 16.074219 17.074219 16.554688 16.871094 17 16.613281 L 16.972656 16.628906 C 17.460938 16.359375 17.871094 16.019531 18.210938 15.613281 L 18.21875 15.605469 C 18.574219 15.148438 18.855469 14.609375 19.023438 14.027344 L 19.03125 13.992188 C 19.234375 13.335938 19.347656 12.582031 19.347656 11.804688 C 19.347656 11.761719 19.347656 11.714844 19.347656 11.671875 L 19.347656 11.679688 C 19.347656 11.660156 19.347656 11.632812 19.347656 11.609375 C 19.347656 10.414062 18.886719 9.324219 18.128906 8.507812 L 18.132812 8.511719 C 18.292969 8.089844 18.386719 7.601562 18.386719 7.09375 C 18.386719 6.46875 18.25 5.878906 18 5.351562 L 18.011719 5.375 C 17.898438 5.355469 17.773438 5.34375 17.644531 5.34375 C 17.324219 5.34375 17.023438 5.417969 16.753906 5.550781 L 16.765625 5.546875 C 16.21875 5.746094 15.753906 5.976562 15.3125 6.242188 L 15.347656 6.222656 L 14.765625 6.589844 C 13.878906 6.335938 12.863281 6.191406 11.8125 6.191406 C 10.761719 6.191406 9.746094 6.335938 8.78125 6.609375 L 8.859375 6.589844 C 8.695312 6.476562 8.476562 6.339844 8.207031 6.171875 C 7.847656 5.96875 7.425781 5.769531 6.984375 5.601562 L 6.921875 5.582031 C 6.640625 5.433594 6.308594 5.347656 5.953125 5.347656 C 5.832031 5.347656 5.71875 5.355469 5.605469 5.375 L 5.617188 5.375 C 5.378906 5.878906 5.238281 6.46875 5.238281 7.089844 C 5.238281 7.601562 5.332031 8.089844 5.503906 8.539062 L 5.492188 8.511719 C 4.738281 9.320312 4.277344 10.410156 4.277344 11.609375 C 4.277344 11.632812 4.277344 11.660156 4.277344 11.683594 L 4.277344 11.679688 C 4.277344 11.714844 4.277344 11.757812 4.277344 11.804688 C 4.277344 12.578125 4.394531 13.332031 4.609375 14.039062 L 4.59375 13.980469 C 4.773438 14.601562 5.050781 15.136719 5.410156 15.609375 L 5.402344 15.59375 C 5.742188 16.011719 6.152344 16.355469 6.617188 16.613281 L 6.636719 16.625 C 7.054688 16.867188 7.535156 17.070312 8.039062 17.214844 L 8.085938 17.226562 C 8.53125 17.34375 9.066406 17.441406 9.617188 17.496094 L 9.660156 17.5 C 9.246094 17.914062 8.96875 18.460938 8.90625 19.074219 L 8.90625 19.085938 C 8.707031 19.183594 8.476562 19.261719 8.234375 19.3125 L 8.214844 19.316406 C 7.96875 19.363281 7.6875 19.394531 7.398438 19.394531 C 7.378906 19.394531 7.355469 19.394531 7.335938 19.394531 L 7.339844 19.394531 C 6.960938 19.386719 6.613281 19.261719 6.324219 19.058594 L 6.332031 19.0625 C 5.976562 18.8125 5.6875 18.492188 5.484375 18.117188 L 5.480469 18.101562 C 5.289062 17.777344 5.039062 17.511719 4.742188 17.308594 L 4.734375 17.300781 C 4.515625 17.140625 4.261719 17.011719 3.988281 16.9375 L 3.972656 16.933594 L 3.664062 16.886719 C 3.644531 16.886719 3.617188 16.882812 3.589844 16.882812 C 3.457031 16.882812 3.328125 16.910156 3.214844 16.957031 L 3.21875 16.957031 C 3.136719 17 3.113281 17.058594 3.144531 17.132812 C 3.179688 17.214844 3.226562 17.285156 3.28125 17.347656 C 3.339844 17.417969 3.40625 17.476562 3.476562 17.53125 L 3.480469 17.53125 L 3.589844 17.609375 C 3.859375 17.75 4.082031 17.949219 4.253906 18.1875 L 4.257812 18.191406 C 4.441406 18.421875 4.601562 18.679688 4.730469 18.953125 L 4.742188 18.976562 L 4.894531 19.328125 C 5.023438 19.714844 5.261719 20.039062 5.566406 20.269531 L 5.570312 20.273438 C 5.859375 20.5 6.207031 20.660156 6.585938 20.734375 L 6.601562 20.734375 C 6.917969 20.796875 7.289062 20.835938 7.664062 20.84375 L 7.671875 20.84375 C 7.714844 20.84375 7.761719 20.84375 7.8125 20.84375 C 8.066406 20.84375 8.3125 20.824219 8.550781 20.785156 L 8.523438 20.789062 L 8.878906 20.726562 C 8.878906 21.117188 8.878906 21.570312 8.886719 22.089844 C 8.890625 22.605469 8.894531 22.886719 8.894531 22.925781 L 8.894531 22.941406 C 8.894531 23.117188 8.816406 23.277344 8.695312 23.386719 L 8.691406 23.386719 C 8.578125 23.472656 8.433594 23.527344 8.277344 23.527344 C 8.207031 23.527344 8.136719 23.515625 8.074219 23.496094 L 8.078125 23.496094 C 3.347656 21.875 0.00390625 17.464844 0.00390625 12.273438 C 0.00390625 10.097656 0.59375 8.054688 1.621094 6.304688 L 1.589844 6.359375 C 2.640625 4.5625 4.09375 3.109375 5.832031 2.089844 L 5.890625 2.058594 C 7.558594 1.066406 9.570312 0.480469 11.71875 0.480469 L 11.8125 0.480469 Z M 4.472656 17.4375 C 4.503906 17.367188 4.46875 17.304688 4.367188 17.253906 C 4.265625 17.222656 4.199219 17.234375 4.167969 17.285156 C 4.136719 17.359375 4.171875 17.417969 4.273438 17.46875 C 4.367188 17.53125 4.433594 17.519531 4.472656 17.4375 Z M 4.953125 17.960938 C 5.023438 17.910156 5.011719 17.828125 4.921875 17.71875 C 4.820312 17.625 4.738281 17.609375 4.675781 17.671875 C 4.605469 17.722656 4.613281 17.804688 4.707031 17.917969 C 4.808594 18.015625 4.890625 18.03125 4.953125 17.960938 Z M 5.414062 18.652344 C 5.503906 18.582031 5.503906 18.484375 5.414062 18.363281 C 5.332031 18.230469 5.242188 18.199219 5.152344 18.269531 C 5.058594 18.320312 5.058594 18.414062 5.152344 18.546875 C 5.242188 18.679688 5.332031 18.714844 5.414062 18.652344 Z M 6.058594 19.300781 C 6.140625 19.21875 6.117188 19.121094 5.996094 19.007812 C 5.875 18.886719 5.769531 18.871094 5.6875 18.960938 C 5.597656 19.042969 5.617188 19.140625 5.75 19.253906 C 5.875 19.375 5.976562 19.390625 6.058594 19.296875 Z M 6.933594 19.683594 C 6.964844 19.570312 6.898438 19.488281 6.734375 19.4375 C 6.582031 19.398438 6.484375 19.433594 6.441406 19.546875 C 6.402344 19.660156 6.46875 19.734375 6.640625 19.777344 C 6.796875 19.839844 6.894531 19.808594 6.933594 19.683594 Z M 7.902344 19.761719 C 7.902344 19.628906 7.816406 19.570312 7.640625 19.589844 C 7.476562 19.589844 7.394531 19.648438 7.394531 19.761719 C 7.394531 19.894531 7.484375 19.949219 7.65625 19.929688 C 7.820312 19.929688 7.902344 19.875 7.902344 19.761719 Z M 8.792969 19.605469 C 8.773438 19.496094 8.683594 19.449219 8.519531 19.46875 C 8.355469 19.5 8.28125 19.578125 8.304688 19.699219 C 8.324219 19.820312 8.414062 19.863281 8.578125 19.820312 C 8.742188 19.78125 8.816406 19.710938 8.796875 19.605469 Z M 8.792969 19.605469 "/>
</g>
</svg>
