<?xml version="1.0" encoding="UTF-8"?>
<svg xmlns="http://www.w3.org/2000/svg" xmlns:xlink="http://www.w3.org/1999/xlink" width="24px" height="24px" viewBox="0 0 24 24" version="1.1">
<g id="surface1">
<path style=" stroke:none;fill-rule:evenodd;fill:rgb(89.411765%,30.19608%,14.901961%);fill-opacity:1;" d="M 24 0.0507812 L 21.8125 21.558594 L 11.984375 23.949219 L 2.183594 21.5625 L 0 0.0507812 Z M 24 0.0507812 "/>
<path style=" stroke:none;fill-rule:evenodd;fill:rgb(94.509804%,39.607844%,16.078432%);fill-opacity:1;" d="M 12 22.121094 L 19.941406 20.1875 L 21.808594 1.808594 L 12 1.808594 Z M 12 22.121094 "/>
<path style=" stroke:none;fill-rule:evenodd;fill:rgb(92.156863%,92.156863%,92.156863%);fill-opacity:1;" d="M 7.75 7.085938 L 12 7.085938 L 12 4.449219 L 4.464844 4.449219 L 4.535156 5.15625 L 5.273438 12.425781 L 11.996094 12.425781 L 11.996094 9.785156 L 8.023438 9.785156 Z M 8.425781 13.746094 L 5.410156 13.746094 L 5.832031 17.886719 L 11.988281 19.386719 L 12 19.382812 L 12 16.636719 L 11.988281 16.640625 L 8.640625 15.847656 Z M 8.425781 13.746094 "/>
<path style=" stroke:none;fill-rule:evenodd;fill:rgb(100%,100%,100%);fill-opacity:1;" d="M 11.988281 12.425781 L 15.6875 12.425781 L 15.339844 15.847656 L 11.988281 16.640625 L 11.988281 19.386719 L 18.148438 17.886719 L 18.195312 17.441406 L 18.902344 10.496094 L 18.972656 9.785156 L 11.988281 9.785156 Z M 11.988281 7.078125 L 11.988281 7.085938 L 19.246094 7.085938 L 19.304688 6.492188 L 19.445312 5.152344 L 19.515625 4.445312 L 11.988281 4.445312 Z M 11.988281 7.078125 "/>
</g>
</svg>
