<?xml version="1.0" encoding="UTF-8"?>
<svg xmlns="http://www.w3.org/2000/svg" xmlns:xlink="http://www.w3.org/1999/xlink" width="24px" height="24px" viewBox="0 0 24 23" version="1.1">
<g id="surface1">
<path style=" stroke:none;fill-rule:nonzero;fill:rgb(0%,11.764706%,21.176471%);fill-opacity:1;" d="M 4.25 0 L 19.75 0 C 22.101562 0 24 1.867188 24 4.175781 L 24 18.824219 C 24 21.132812 22.101562 23 19.75 23 L 4.25 23 C 1.898438 23 0 21.132812 0 18.824219 L 0 4.175781 C 0 1.867188 1.898438 0 4.25 0 Z M 4.25 0 "/>
<path style=" stroke:none;fill-rule:nonzero;fill:rgb(19.215687%,65.882355%,100%);fill-opacity:1;" d="M 5.398438 16.128906 L 5.398438 6.015625 C 5.398438 5.945312 5.429688 5.90625 5.5 5.90625 C 5.671875 5.90625 5.828125 5.90625 6.058594 5.898438 C 6.300781 5.886719 6.550781 5.886719 6.820312 5.878906 C 7.089844 5.867188 7.378906 5.867188 7.691406 5.859375 C 8 5.847656 8.300781 5.847656 8.601562 5.847656 C 9.421875 5.847656 10.101562 5.945312 10.660156 6.152344 C 11.160156 6.320312 11.621094 6.59375 12 6.957031 C 12.320312 7.273438 12.570312 7.65625 12.730469 8.078125 C 12.878906 8.492188 12.960938 8.914062 12.960938 9.355469 C 12.960938 10.203125 12.761719 10.902344 12.359375 11.449219 C 11.960938 12 11.398438 12.414062 10.75 12.648438 C 10.070312 12.894531 9.320312 12.984375 8.5 12.984375 C 8.261719 12.984375 8.101562 12.984375 8 12.972656 C 7.898438 12.964844 7.761719 12.964844 7.570312 12.964844 L 7.570312 16.121094 C 7.578125 16.1875 7.53125 16.246094 7.460938 16.257812 C 7.449219 16.257812 7.441406 16.257812 7.421875 16.257812 L 5.519531 16.257812 C 5.441406 16.257812 5.398438 16.21875 5.398438 16.128906 Z M 7.578125 7.804688 L 7.578125 11.105469 C 7.71875 11.117188 7.851562 11.125 7.96875 11.125 L 8.5 11.125 C 8.890625 11.125 9.28125 11.066406 9.648438 10.949219 C 9.96875 10.859375 10.25 10.675781 10.46875 10.429688 C 10.679688 10.183594 10.78125 9.847656 10.78125 9.417969 C 10.789062 9.113281 10.710938 8.808594 10.550781 8.542969 C 10.378906 8.285156 10.140625 8.089844 9.851562 7.980469 C 9.480469 7.832031 9.078125 7.773438 8.671875 7.785156 C 8.410156 7.785156 8.179688 7.785156 7.988281 7.792969 C 7.789062 7.785156 7.648438 7.792969 7.578125 7.804688 Z M 7.578125 7.804688 "/>
<path style=" stroke:none;fill-rule:nonzero;fill:rgb(19.215687%,65.882355%,100%);fill-opacity:1;" d="M 19.199219 10.507812 C 18.898438 10.351562 18.578125 10.242188 18.238281 10.171875 C 17.871094 10.09375 17.5 10.046875 17.121094 10.046875 C 16.921875 10.035156 16.710938 10.066406 16.519531 10.113281 C 16.390625 10.144531 16.28125 10.210938 16.210938 10.3125 C 16.160156 10.390625 16.128906 10.488281 16.128906 10.574219 C 16.128906 10.664062 16.171875 10.753906 16.230469 10.832031 C 16.320312 10.941406 16.441406 11.027344 16.570312 11.097656 C 16.800781 11.214844 17.039062 11.324219 17.28125 11.421875 C 17.820312 11.597656 18.339844 11.84375 18.820312 12.140625 C 19.148438 12.34375 19.421875 12.621094 19.609375 12.953125 C 19.769531 13.269531 19.851562 13.613281 19.839844 13.96875 C 19.851562 14.429688 19.710938 14.890625 19.449219 15.273438 C 19.171875 15.667969 18.78125 15.972656 18.328125 16.148438 C 17.839844 16.355469 17.238281 16.464844 16.519531 16.464844 C 16.058594 16.464844 15.609375 16.425781 15.160156 16.335938 C 14.808594 16.277344 14.460938 16.167969 14.140625 16.019531 C 14.070312 15.980469 14.019531 15.914062 14.03125 15.835938 L 14.03125 14.125 C 14.03125 14.09375 14.039062 14.054688 14.070312 14.035156 C 14.101562 14.015625 14.128906 14.027344 14.160156 14.046875 C 14.550781 14.273438 14.960938 14.429688 15.398438 14.527344 C 15.78125 14.625 16.179688 14.675781 16.578125 14.675781 C 16.960938 14.675781 17.230469 14.625 17.410156 14.539062 C 17.570312 14.46875 17.679688 14.300781 17.679688 14.125 C 17.679688 13.988281 17.601562 13.859375 17.441406 13.730469 C 17.28125 13.601562 16.949219 13.457031 16.460938 13.269531 C 15.949219 13.09375 15.480469 12.855469 15.039062 12.5625 C 14.730469 12.34375 14.46875 12.058594 14.28125 11.726562 C 14.121094 11.410156 14.039062 11.066406 14.050781 10.722656 C 14.050781 10.300781 14.171875 9.898438 14.390625 9.535156 C 14.640625 9.140625 15.011719 8.828125 15.441406 8.628906 C 15.910156 8.394531 16.5 8.285156 17.210938 8.285156 C 17.621094 8.285156 18.039062 8.316406 18.449219 8.375 C 18.75 8.414062 19.039062 8.492188 19.308594 8.601562 C 19.351562 8.609375 19.390625 8.648438 19.410156 8.6875 C 19.421875 8.726562 19.429688 8.765625 19.429688 8.808594 L 19.429688 10.410156 C 19.429688 10.449219 19.410156 10.488281 19.378906 10.507812 C 19.289062 10.527344 19.238281 10.527344 19.199219 10.507812 Z M 19.199219 10.507812 "/>
</g>
</svg>
