<?xml version="1.0" encoding="UTF-8"?>
<svg xmlns="http://www.w3.org/2000/svg" xmlns:xlink="http://www.w3.org/1999/xlink" width="24px" height="24px" viewBox="0 0 24 27" version="1.1">
<g id="surface1">
<path style=" stroke:none;fill-rule:nonzero;fill:rgb(100%,100%,100%);fill-opacity:1;" d="M 13.035156 4.835938 L 17.324219 7.296875 C 17.492188 7.378906 17.492188 7.628906 17.324219 7.714844 L 12.222656 10.648438 C 12.054688 10.734375 11.886719 10.734375 11.746094 10.648438 L 6.675781 7.714844 C 6.507812 7.628906 6.507812 7.378906 6.675781 7.296875 L 10.933594 4.835938 L 10.933594 0 L 0.0078125 6.289062 L 0.0078125 18.894531 L 0.0078125 18.839844 L 0.0078125 18.894531 L 4.210938 16.492188 L 4.210938 11.542969 C 4.210938 11.375 4.40625 11.234375 4.574219 11.347656 L 9.675781 14.28125 C 9.84375 14.367188 9.925781 14.535156 9.925781 14.703125 L 9.925781 20.570312 C 9.925781 20.738281 9.730469 20.878906 9.5625 20.765625 L 5.273438 18.308594 L 1.070312 20.710938 L 12 27 L 22.929688 20.710938 L 18.726562 18.308594 L 14.4375 20.765625 C 14.296875 20.851562 14.074219 20.738281 14.074219 20.570312 L 14.074219 14.703125 C 14.074219 14.535156 14.15625 14.367188 14.324219 14.28125 L 19.425781 11.347656 C 19.566406 11.265625 19.789062 11.375 19.789062 11.542969 L 19.789062 16.492188 L 23.992188 18.894531 L 23.992188 6.289062 L 13.035156 0 Z M 13.035156 4.835938 "/>
</g>
</svg>
