<?xml version="1.0" encoding="UTF-8"?>
<svg xmlns="http://www.w3.org/2000/svg" xmlns:xlink="http://www.w3.org/1999/xlink" width="24px" height="24px" viewBox="0 0 24 24" version="1.1">
<g id="surface1">
<path style=" stroke:none;fill-rule:nonzero;fill:rgb(83.92157%,21.960784%,65.882355%);fill-opacity:1;" d="M 10.351562 5.230469 C 10.425781 5.230469 10.496094 5.230469 10.566406 5.230469 C 10.761719 5.230469 10.953125 5.230469 11.148438 5.230469 C 11.308594 5.230469 11.46875 5.230469 11.632812 5.230469 C 12.015625 5.226562 12.394531 5.230469 12.777344 5.230469 C 13.171875 5.230469 13.5625 5.230469 13.957031 5.226562 C 14.292969 5.226562 14.632812 5.226562 14.972656 5.226562 C 15.171875 5.226562 15.375 5.226562 15.578125 5.226562 C 15.765625 5.226562 15.957031 5.226562 16.144531 5.226562 C 16.214844 5.226562 16.28125 5.226562 16.351562 5.226562 C 16.886719 5.222656 17.328125 5.285156 17.726562 5.664062 C 18.085938 6.09375 18.148438 6.558594 18.144531 7.097656 C 18.144531 7.160156 18.144531 7.160156 18.144531 7.222656 C 18.144531 7.355469 18.144531 7.484375 18.144531 7.613281 C 18.144531 7.703125 18.144531 7.792969 18.144531 7.878906 C 18.140625 8.097656 18.140625 8.3125 18.140625 8.53125 C 18.191406 8.539062 18.242188 8.546875 18.292969 8.550781 C 19.078125 8.667969 19.851562 9.085938 20.4375 9.609375 C 20.476562 9.640625 20.515625 9.671875 20.554688 9.707031 C 20.972656 10.066406 21.339844 10.484375 21.609375 10.96875 C 21.609375 11 21.609375 11.03125 21.609375 11.0625 C 21.648438 11.0625 21.691406 11.0625 21.734375 11.0625 C 21.886719 11.058594 22.039062 11.058594 22.191406 11.058594 C 22.253906 11.058594 22.320312 11.054688 22.386719 11.054688 C 23.296875 11.042969 23.296875 11.042969 23.671875 11.34375 C 23.933594 11.609375 24.011719 11.832031 24.015625 12.203125 C 24.015625 12.238281 24.015625 12.269531 24.015625 12.304688 C 24.015625 12.414062 24.015625 12.527344 24.015625 12.636719 C 24.019531 12.714844 24.019531 12.792969 24.019531 12.871094 C 24.019531 13.035156 24.019531 13.195312 24.019531 13.359375 C 24.019531 13.566406 24.023438 13.773438 24.023438 13.980469 C 24.027344 14.140625 24.027344 14.300781 24.027344 14.460938 C 24.027344 14.539062 24.027344 14.613281 24.027344 14.691406 C 24.035156 15.464844 24.035156 15.464844 23.765625 15.75 C 23.5625 15.957031 23.375 16.074219 23.082031 16.085938 C 23.019531 16.082031 22.953125 16.082031 22.890625 16.078125 C 22.820312 16.078125 22.75 16.078125 22.679688 16.078125 C 22.570312 16.078125 22.460938 16.074219 22.347656 16.070312 C 22.109375 16.0625 21.890625 16.066406 21.65625 16.125 C 21.496094 16.277344 21.417969 16.441406 21.328125 16.640625 C 20.65625 17.625 19.609375 18.300781 18.46875 18.609375 C 18.414062 18.625 18.359375 18.640625 18.304688 18.65625 C 17.074219 18.9375 15.691406 18.796875 14.59375 18.15625 C 14.101562 17.835938 13.6875 17.441406 13.277344 17.019531 C 12.910156 16.644531 12.566406 16.355469 12.019531 16.339844 C 11.417969 16.351562 11.070312 16.679688 10.660156 17.085938 C 10.59375 17.15625 10.53125 17.230469 10.46875 17.304688 C 9.773438 18.148438 8.703125 18.617188 7.640625 18.75 C 6.175781 18.851562 4.75 18.570312 3.609375 17.597656 C 3.515625 17.515625 3.421875 17.429688 3.328125 17.34375 C 3.292969 17.3125 3.257812 17.28125 3.222656 17.25 C 2.890625 16.941406 2.589844 16.535156 2.390625 16.125 C 2.34375 16.125 2.300781 16.125 2.25 16.125 C 2.078125 16.125 1.90625 16.121094 1.734375 16.117188 C 1.660156 16.117188 1.585938 16.117188 1.511719 16.117188 C 0.679688 16.113281 0.679688 16.113281 0.328125 15.84375 C 0.078125 15.574219 -0.00390625 15.371094 -0.0078125 15 C -0.0078125 14.964844 -0.0078125 14.933594 -0.0078125 14.898438 C -0.0117188 14.789062 -0.0117188 14.679688 -0.0117188 14.570312 C -0.0117188 14.53125 -0.0117188 14.492188 -0.0117188 14.453125 C -0.0117188 14.253906 -0.0117188 14.054688 -0.015625 13.855469 C -0.015625 13.652344 -0.015625 13.445312 -0.0195312 13.238281 C -0.0195312 13.082031 -0.0195312 12.921875 -0.0195312 12.765625 C -0.0195312 12.6875 -0.0195312 12.613281 -0.0195312 12.539062 C -0.03125 11.734375 -0.03125 11.734375 0.269531 11.390625 C 0.613281 11.113281 0.925781 11.054688 1.367188 11.058594 C 1.414062 11.058594 1.414062 11.058594 1.460938 11.058594 C 1.558594 11.058594 1.65625 11.058594 1.75 11.058594 C 1.820312 11.058594 1.886719 11.058594 1.953125 11.058594 C 2.113281 11.0625 2.277344 11.0625 2.4375 11.0625 C 2.457031 11.007812 2.457031 11.007812 2.480469 10.953125 C 2.894531 9.953125 3.976562 9.210938 4.9375 8.789062 C 5.238281 8.667969 5.546875 8.566406 5.867188 8.5 C 6.015625 8.445312 6.015625 8.445312 6.078125 8.28125 C 6.101562 8.21875 6.121094 8.152344 6.140625 8.089844 C 6.164062 8.019531 6.1875 7.953125 6.210938 7.882812 C 6.222656 7.851562 6.234375 7.816406 6.246094 7.78125 C 6.398438 7.367188 6.65625 7.035156 6.9375 6.703125 C 6.96875 6.664062 6.996094 6.625 7.027344 6.585938 C 7.839844 5.613281 9.136719 5.226562 10.351562 5.230469 Z M 7.875 7.03125 C 7.832031 7.066406 7.832031 7.066406 7.789062 7.105469 C 7.601562 7.277344 7.460938 7.472656 7.324219 7.683594 C 7.296875 7.726562 7.296875 7.726562 7.269531 7.765625 C 7.140625 7.972656 7.074219 8.152344 6.984375 8.390625 C 10.371094 8.390625 13.757812 8.390625 17.25 8.390625 C 17.378906 7.269531 17.378906 7.269531 17.015625 6.261719 C 16.851562 6.128906 16.703125 6.132812 16.5 6.132812 C 16.441406 6.132812 16.382812 6.132812 16.324219 6.132812 C 16.257812 6.132812 16.191406 6.132812 16.125 6.132812 C 16.058594 6.132812 15.988281 6.132812 15.921875 6.132812 C 15.695312 6.128906 15.46875 6.128906 15.242188 6.128906 C 15.167969 6.128906 15.089844 6.128906 15.011719 6.128906 C 14.644531 6.128906 14.277344 6.128906 13.910156 6.125 C 13.488281 6.125 13.070312 6.125 12.648438 6.125 C 12.320312 6.121094 11.996094 6.121094 11.667969 6.121094 C 11.472656 6.121094 11.277344 6.121094 11.085938 6.121094 C 10.902344 6.117188 10.71875 6.117188 10.535156 6.117188 C 10.464844 6.117188 10.398438 6.117188 10.332031 6.117188 C 9.398438 6.109375 8.574219 6.402344 7.875 7.03125 Z M 13.730469 9.28125 C 12.878906 9.28125 12.023438 9.285156 11.167969 9.289062 C 10.695312 9.289062 10.222656 9.289062 9.75 9.289062 C 9.332031 9.289062 8.910156 9.292969 8.492188 9.292969 C 8.273438 9.292969 8.054688 9.296875 7.832031 9.292969 C 6.277344 9.292969 5.019531 9.464844 3.851562 10.578125 C 3.015625 11.453125 2.640625 12.53125 2.648438 13.722656 C 2.683594 14.894531 3.175781 15.917969 4.011719 16.730469 C 4.96875 17.636719 6.125 17.898438 7.40625 17.867188 C 8.480469 17.816406 9.285156 17.207031 10.007812 16.46875 C 10.535156 15.933594 11.070312 15.472656 11.851562 15.453125 C 12.578125 15.449219 13.101562 15.601562 13.632812 16.113281 C 13.765625 16.242188 13.890625 16.371094 14.019531 16.503906 C 14.882812 17.378906 15.835938 17.867188 17.078125 17.878906 C 18.273438 17.875 19.308594 17.445312 20.167969 16.609375 C 20.972656 15.792969 21.386719 14.734375 21.398438 13.59375 C 21.386719 12.355469 20.898438 11.296875 20.019531 10.433594 C 18.910156 9.386719 17.550781 9.273438 16.09375 9.277344 C 15.984375 9.277344 15.871094 9.277344 15.761719 9.277344 C 15.574219 9.277344 15.390625 9.277344 15.207031 9.28125 C 14.714844 9.28125 14.222656 9.28125 13.730469 9.28125 Z M 0.890625 12.046875 C 0.839844 12.195312 0.835938 12.304688 0.835938 12.464844 C 0.835938 12.519531 0.835938 12.578125 0.835938 12.636719 C 0.835938 12.695312 0.835938 12.757812 0.835938 12.820312 C 0.832031 12.886719 0.832031 12.949219 0.832031 13.011719 C 0.832031 13.144531 0.832031 13.277344 0.832031 13.410156 C 0.832031 13.582031 0.832031 13.753906 0.828125 13.925781 C 0.828125 14.054688 0.828125 14.1875 0.828125 14.316406 C 0.828125 14.410156 0.828125 14.503906 0.828125 14.597656 C 0.828125 14.65625 0.828125 14.710938 0.828125 14.769531 C 0.828125 14.820312 0.828125 14.871094 0.828125 14.921875 C 0.832031 15.046875 0.832031 15.046875 0.910156 15.132812 C 1.011719 15.207031 1.085938 15.203125 1.214844 15.203125 C 1.28125 15.199219 1.28125 15.199219 1.347656 15.199219 C 1.390625 15.199219 1.4375 15.199219 1.484375 15.195312 C 1.53125 15.195312 1.578125 15.195312 1.625 15.195312 C 1.738281 15.191406 1.855469 15.191406 1.96875 15.1875 C 1.941406 14.996094 1.914062 14.804688 1.875 14.613281 C 1.765625 14.023438 1.753906 13.457031 1.84375 12.863281 C 1.855469 12.800781 1.855469 12.800781 1.863281 12.738281 C 1.902344 12.472656 1.953125 12.214844 2.015625 11.953125 C 1.863281 11.949219 1.710938 11.949219 1.558594 11.945312 C 1.515625 11.945312 1.472656 11.945312 1.429688 11.945312 C 1.386719 11.945312 1.34375 11.945312 1.300781 11.945312 C 1.261719 11.945312 1.226562 11.941406 1.183594 11.941406 C 1.066406 11.953125 0.992188 11.980469 0.890625 12.046875 Z M 22.03125 11.953125 C 22.042969 12.003906 22.058594 12.054688 22.070312 12.109375 C 22.316406 13.121094 22.3125 14.183594 22.03125 15.1875 C 22.199219 15.191406 22.371094 15.195312 22.539062 15.195312 C 22.589844 15.199219 22.636719 15.199219 22.6875 15.199219 C 22.734375 15.199219 22.78125 15.199219 22.828125 15.203125 C 22.890625 15.203125 22.890625 15.203125 22.957031 15.203125 C 22.992188 15.199219 23.027344 15.191406 23.0625 15.1875 C 23.171875 15.023438 23.167969 14.964844 23.167969 14.769531 C 23.167969 14.714844 23.167969 14.65625 23.167969 14.601562 C 23.167969 14.539062 23.167969 14.476562 23.167969 14.414062 C 23.167969 14.351562 23.167969 14.289062 23.167969 14.222656 C 23.167969 14.089844 23.167969 13.957031 23.167969 13.824219 C 23.167969 13.65625 23.167969 13.484375 23.167969 13.3125 C 23.167969 13.183594 23.167969 13.050781 23.167969 12.921875 C 23.167969 12.828125 23.167969 12.734375 23.167969 12.640625 C 23.167969 12.585938 23.167969 12.527344 23.167969 12.46875 C 23.167969 12.417969 23.167969 12.367188 23.167969 12.316406 C 23.15625 12.1875 23.132812 12.109375 23.0625 12 C 22.949219 11.945312 22.878906 11.949219 22.753906 11.949219 C 22.691406 11.949219 22.691406 11.949219 22.628906 11.949219 C 22.582031 11.949219 22.539062 11.949219 22.492188 11.949219 C 22.425781 11.949219 22.425781 11.949219 22.359375 11.949219 C 22.25 11.953125 22.140625 11.953125 22.03125 11.953125 Z M 22.03125 11.953125 "/>
<path style=" stroke:none;fill-rule:nonzero;fill:rgb(94.509804%,14.901961%,69.411767%);fill-opacity:1;" d="M 7.4375 9.914062 C 7.546875 9.914062 7.660156 9.914062 7.769531 9.914062 C 8.066406 9.910156 8.367188 9.910156 8.664062 9.914062 C 8.851562 9.914062 9.039062 9.914062 9.226562 9.914062 C 9.257812 9.914062 9.289062 9.914062 9.320312 9.914062 C 9.382812 9.914062 9.449219 9.914062 9.511719 9.914062 C 10.101562 9.910156 10.695312 9.914062 11.289062 9.914062 C 11.792969 9.914062 12.300781 9.914062 12.808594 9.914062 C 13.398438 9.910156 13.988281 9.910156 14.578125 9.914062 C 14.640625 9.914062 14.703125 9.914062 14.765625 9.914062 C 14.796875 9.914062 14.828125 9.914062 14.863281 9.914062 C 15.078125 9.914062 15.296875 9.914062 15.511719 9.910156 C 15.804688 9.910156 16.101562 9.910156 16.394531 9.914062 C 16.5 9.914062 16.605469 9.914062 16.714844 9.914062 C 17.925781 9.910156 18.898438 10.175781 19.796875 11.023438 C 20.472656 11.742188 20.800781 12.664062 20.8125 13.640625 C 20.773438 14.675781 20.371094 15.578125 19.640625 16.3125 C 18.898438 16.972656 18.058594 17.261719 17.078125 17.269531 C 17.027344 17.269531 16.976562 17.269531 16.921875 17.273438 C 15.882812 17.261719 15.179688 16.828125 14.46875 16.105469 C 13.796875 15.421875 13.023438 14.839844 12.023438 14.792969 C 10.980469 14.84375 10.207031 15.464844 9.511719 16.175781 C 8.835938 16.871094 8.136719 17.246094 7.15625 17.265625 C 6.070312 17.269531 5.128906 17.015625 4.335938 16.242188 C 3.648438 15.535156 3.257812 14.621094 3.226562 13.632812 C 3.242188 12.59375 3.625 11.65625 4.359375 10.921875 C 5.257812 10.085938 6.253906 9.910156 7.4375 9.914062 Z M 6.964844 10.800781 C 6.894531 10.804688 6.894531 10.804688 6.820312 10.804688 C 6.007812 10.839844 5.363281 11.175781 4.800781 11.769531 C 4.332031 12.328125 4.105469 13.003906 4.125 13.734375 C 4.195312 14.480469 4.472656 15.082031 5.015625 15.609375 C 5.046875 15.640625 5.074219 15.667969 5.105469 15.699219 C 5.605469 16.175781 6.304688 16.40625 6.984375 16.40625 C 7.941406 16.347656 8.453125 15.976562 9.109375 15.304688 C 9.886719 14.515625 10.835938 13.96875 11.964844 13.921875 C 13.078125 13.929688 14.050781 14.414062 14.824219 15.199219 C 14.898438 15.273438 14.96875 15.351562 15.042969 15.425781 C 15.601562 15.992188 16.132812 16.355469 16.957031 16.371094 C 17.339844 16.371094 17.6875 16.367188 18.046875 16.21875 C 18.097656 16.199219 18.152344 16.175781 18.203125 16.15625 C 18.816406 15.875 19.277344 15.464844 19.59375 14.859375 C 19.628906 14.792969 19.628906 14.792969 19.664062 14.726562 C 19.988281 14.03125 19.980469 13.292969 19.726562 12.574219 C 19.609375 12.292969 19.453125 12.050781 19.265625 11.8125 C 19.238281 11.773438 19.207031 11.734375 19.179688 11.695312 C 18.714844 11.152344 18.039062 10.871094 17.34375 10.78125 C 17.03125 10.757812 16.714844 10.761719 16.402344 10.765625 C 16.308594 10.765625 16.214844 10.765625 16.121094 10.765625 C 15.871094 10.765625 15.617188 10.765625 15.367188 10.765625 C 15.101562 10.765625 14.835938 10.765625 14.574219 10.765625 C 14.125 10.765625 13.679688 10.765625 13.234375 10.769531 C 12.667969 10.769531 12.097656 10.769531 11.53125 10.769531 C 11.039062 10.769531 10.546875 10.769531 10.054688 10.773438 C 9.898438 10.773438 9.742188 10.773438 9.585938 10.773438 C 8.273438 10.769531 8.273438 10.769531 6.964844 10.800781 Z M 6.964844 10.800781 "/>
<path style=" stroke:none;fill-rule:nonzero;fill:rgb(99.215686%,3.921569%,90.980393%);fill-opacity:1;" d="M 7.429688 11.527344 C 7.566406 11.695312 7.578125 11.777344 7.578125 11.988281 C 7.527344 12.152344 7.445312 12.222656 7.3125 12.328125 C 7.1875 12.359375 7.074219 12.382812 6.945312 12.398438 C 6.484375 12.46875 6.222656 12.621094 5.929688 12.984375 C 5.765625 13.207031 5.714844 13.421875 5.679688 13.695312 C 5.648438 13.875 5.628906 13.964844 5.523438 14.121094 C 5.375 14.214844 5.28125 14.238281 5.105469 14.226562 C 4.945312 14.1875 4.875 14.097656 4.78125 13.96875 C 4.65625 13.546875 4.816406 13.035156 5.015625 12.65625 C 5.40625 12.046875 5.953125 11.628906 6.664062 11.472656 C 7.210938 11.378906 7.210938 11.378906 7.429688 11.527344 Z M 7.429688 11.527344 "/>
</g>
</svg>
