<?xml version="1.0" encoding="UTF-8"?>
<svg version="1.1" xmlns="http://www.w3.org/2000/svg" width="273" height="280">
<path d="M0 0 C0.8509021 -0.00040283 1.7018042 -0.00080566 2.57849121 -0.0012207 C15.82462497 0.03479279 28.14477111 0.81593123 40.6875 5.4375 C41.93829346 5.89552002 41.93829346 5.89552002 43.21435547 6.36279297 C57.8032399 11.85730789 69.55848174 18.90268702 81.22900391 29.16699219 C82.4718291 30.24962732 83.7393882 31.30376087 85.01171875 32.3515625 C90.36876417 36.79296361 94.54736673 41.86003744 98.6875 47.4375 C99.43257812 48.44039062 100.17765625 49.44328125 100.9453125 50.4765625 C117.19198113 73.11175167 125.56753843 99.0378215 125.25 126.8125 C125.24574005 127.61732819 125.2414801 128.42215637 125.23709106 129.25137329 C125.14422304 141.89943431 124.08563923 153.48282626 119.6875 165.4375 C119.40922363 166.22624512 119.13094727 167.01499023 118.84423828 167.82763672 C116.96523192 173.10885516 114.90400555 178.28957447 112.6875 183.4375 C112.09001953 184.84902344 112.09001953 184.84902344 111.48046875 186.2890625 C106.55096881 196.98416131 98.7644933 206.93442678 90.6875 215.4375 C90.06359375 216.10136719 89.4396875 216.76523438 88.796875 217.44921875 C84.1144877 222.28830012 79.12702897 226.47549014 73.6875 230.4375 C73.02492187 230.92863281 72.36234375 231.41976562 71.6796875 231.92578125 C61.95784917 238.78281931 50.98440518 243.82468093 39.8125 247.8125 C39.14798828 248.05097656 38.48347656 248.28945313 37.79882812 248.53515625 C29.06461679 251.51841106 20.49073601 252.75360327 11.28125 252.80859375 C10.31707153 252.81762222 9.35289307 252.8266507 8.35949707 252.83595276 C6.32921405 252.85036901 4.29888549 252.85932033 2.26855469 252.86303711 C-0.77752797 252.87486421 -3.8215348 252.92407856 -6.8671875 252.97460938 C-23.42677074 253.11343072 -37.74862141 250.1758671 -52.75 243.0625 C-53.58781006 242.67384766 -54.42562012 242.28519531 -55.28881836 241.88476562 C-66.12647495 236.76093613 -75.24409592 230.250673 -84.3125 222.4375 C-85.74335937 221.22707031 -85.74335937 221.22707031 -87.203125 219.9921875 C-92.50254959 215.37329011 -96.87422976 210.80566892 -100.70703125 204.90625 C-102.2680073 202.43669294 -102.2680073 202.43669294 -104.01171875 200.21875 C-109.99372043 192.36821296 -113.5621078 183.4935367 -117.3125 174.4375 C-117.72628906 173.47972656 -118.14007813 172.52195313 -118.56640625 171.53515625 C-119.64324434 168.86206405 -120.50828134 166.20559192 -121.3125 163.4375 C-121.49296875 162.82471191 -121.6734375 162.21192383 -121.859375 161.58056641 C-128.02226176 139.6096669 -128.1519008 112.25327578 -121.3125 90.4375 C-121.09287598 89.71369141 -120.87325195 88.98988281 -120.64697266 88.24414062 C-114.7117357 69.07328325 -105.17705806 52.03177164 -91.3125 37.4375 C-90.67699219 36.76203125 -90.04148438 36.0865625 -89.38671875 35.390625 C-85.57325006 31.45127482 -81.65956402 28.01188382 -77.171875 24.859375 C-75.23489659 23.45225492 -75.23489659 23.45225492 -73.48828125 21.54296875 C-70.81738234 18.95838255 -67.87240485 16.98516706 -64.75 15 C-64.13229736 14.60603027 -63.51459473 14.21206055 -62.87817383 13.80615234 C-57.56578138 10.48188356 -52.13983008 7.75560458 -46.3125 5.4375 C-45.63703125 5.14230469 -44.9615625 4.84710937 -44.265625 4.54296875 C-30.83315283 -0.74151158 -14.23482757 -0.00698916 0 0 Z " fill="#2B273C" transform="translate(137.3125,13.5625)"/>
<path d="M0 0 C1.98 0.495 1.98 0.495 4 1 C4.14285714 9.57142857 4.14285714 9.57142857 3 13 C4.06927734 13.16048828 4.06927734 13.16048828 5.16015625 13.32421875 C23.56889139 17.70483935 41.20384863 38.21996122 50.85961914 53.64794922 C62.98062065 73.68397845 69.17276862 93.56996391 69.1875 116.875 C69.19974609 117.88691406 69.21199219 118.89882812 69.22460938 119.94140625 C69.28123975 149.42695512 55.12032763 176.42834832 36 198 C35.24074219 197.50628906 34.48148438 197.01257813 33.69921875 196.50390625 C32.70535156 195.86324219 31.71148437 195.22257813 30.6875 194.5625 C29.70136719 193.92441406 28.71523437 193.28632813 27.69921875 192.62890625 C25.04723007 190.89384394 25.04723007 190.89384394 22 190 C22.04640625 189.20335937 22.0928125 188.40671875 22.140625 187.5859375 C22.30516724 182.75544758 22.38726749 178.95974986 20.5625 174.4375 C17.10511544 171.14876834 13.57262219 170.11384387 9 169 C9.33 167.68 9.66 166.36 10 165 C1.75 164.67 -6.5 164.34 -15 164 C-14.87625 166.64 -14.7525 169.28 -14.625 172 C-14.51058257 178.30487723 -14.7392469 182.75042369 -19.30859375 187.5 C-19.86675781 187.995 -20.42492187 188.49 -21 189 C-22.3303125 190.36125 -22.3303125 190.36125 -23.6875 191.75 C-31.00503963 197.37154737 -40.00154475 199.0563404 -49 198 C-57.64208893 196.44852706 -64.48593245 192.57622305 -70 185.6875 C-73.70233433 179.38486397 -72.27078067 170.93198511 -72 164 C-79.92 164.33 -87.84 164.66 -96 165 C-95.67 166.32 -95.34 167.64 -95 169 C-95.90492187 169.12955078 -95.90492187 169.12955078 -96.828125 169.26171875 C-100.62916678 169.92996642 -103.3801908 170.5351431 -106.5 172.875 C-109.07108477 178.23142661 -109 184.12391684 -109 190 C-109.53109375 190.25394531 -110.0621875 190.50789062 -110.609375 190.76953125 C-115.13460194 192.94707129 -115.13460194 192.94707129 -119.1875 195.875 C-121 197 -121 197 -123.2578125 196.52734375 C-127.18087319 194.34227718 -129.16748893 191.34244632 -131.6875 187.6875 C-132.46371704 186.5747168 -132.46371704 186.5747168 -133.25561523 185.43945312 C-141.02025469 173.93206027 -146.81321351 161.20968084 -151 148 C-151.38542969 146.92621094 -151.77085937 145.85242188 -152.16796875 144.74609375 C-157.94888937 125.98578815 -157.38648733 101.55222221 -151 83 C-150.45666016 81.34871094 -150.45666016 81.34871094 -149.90234375 79.6640625 C-148.726794 76.3725232 -147.41315894 73.19661087 -146 70 C-145.72704102 69.37770508 -145.45408203 68.75541016 -145.17285156 68.11425781 C-140.44873503 57.52284075 -134.44870625 48.84823025 -127 40 C-126.31292969 39.11828125 -125.62585938 38.2365625 -124.91796875 37.328125 C-121.98774209 33.77127145 -118.51738134 30.95684248 -115 28 C-113.6078125 26.7934375 -113.6078125 26.7934375 -112.1875 25.5625 C-110 24 -110 24 -107 24 C-106.566875 24.763125 -106.13375 25.52625 -105.6875 26.3125 C-103.60477528 29.62943196 -101.55219959 30.5001824 -98 32 C-98.91513319 34.28783297 -99.65484646 35.73449728 -101.625 37.25 C-105.5761945 38.49774563 -110.22561386 38.88719307 -114 37 C-113.505 39.97 -113.505 39.97 -113 43 C-110.69 43.66 -108.38 44.32 -106 45 C-106 45.66 -106 46.32 -106 47 C-106.66 47 -107.32 47 -108 47 C-108.268125 47.86625 -108.53625 48.7325 -108.8125 49.625 C-110 53 -110 53 -111.5625 55.9375 C-113.15455699 59.32927358 -113.62897076 62.28970757 -114 66 C-113.34 66 -112.68 66 -112 66 C-111.95101562 67.00160156 -111.90203125 68.00320312 -111.8515625 69.03515625 C-111.77645921 70.37762759 -111.70091474 71.7200743 -111.625 73.0625 C-111.52058594 75.02896484 -111.52058594 75.02896484 -111.4140625 77.03515625 C-111.00194564 80.98136957 -110.20243433 84.24117073 -109 88 C-108.01 87.34 -107.02 86.68 -106 86 C-103.73828125 85.8046875 -103.73828125 85.8046875 -101.3125 85.875 C-100.50425781 85.89304687 -99.69601563 85.91109375 -98.86328125 85.9296875 C-98.24839844 85.95289062 -97.63351563 85.97609375 -97 86 C-96.56751784 90.12545042 -96.14048697 94.2514199 -95.71826172 98.37792969 C-95.57421156 99.778471 -95.42873339 101.17886627 -95.28173828 102.57910156 C-93.79037448 116.80285703 -93.79037448 116.80285703 -94 124 C-94 133.64772362 -88.22821646 141.87340205 -81.74609375 148.5 C-77.43198531 152.42749559 -72.84253885 155.75982393 -68 159 C-67.19175781 159.57878906 -66.38351563 160.15757812 -65.55078125 160.75390625 C-64.79152344 161.28886719 -64.03226562 161.82382813 -63.25 162.375 C-62.59515625 162.83648437 -61.9403125 163.29796875 -61.265625 163.7734375 C-52.79890739 168.35714324 -41.76882036 168.53265125 -32.57421875 166.08984375 C-26.29866437 163.60992328 -21.15069474 160.30200072 -16 156 C-14.6696875 154.97712891 -14.6696875 154.97712891 -13.3125 153.93359375 C-4.20900495 146.82148824 3.87215832 138.51136674 6.75 127 C6.99501694 124.05979666 7.03768663 121.17190016 6.9375 118.22265625 C7 116 7 116 7.46875 112.921875 C8.26197084 107.06603882 8.39001525 101.19985998 8.60546875 95.29882812 C8.66154297 93.93467773 8.66154297 93.93467773 8.71875 92.54296875 C8.74904297 91.71821045 8.77933594 90.89345215 8.81054688 90.04370117 C9 88 9 88 10 86 C14.92127034 85.83317728 18.50343896 85.75171948 23 88 C23.144375 86.72125 23.28875 85.4425 23.4375 84.125 C23.70642746 81.74307106 23.92226346 80.15547309 25 78 C25.95428792 65.84792849 25.42322451 57.53332353 19 47 C19 46.34 19 45.68 19 45 C19.7425 44.79375 20.485 44.5875 21.25 44.375 C24.79231177 42.60384411 26.02446841 40.36572049 28 37 C27.01 37.33 26.02 37.66 25 38 C19.84366253 38.58216713 19.84366253 38.58216713 17 38 C14.92758602 35.97692921 13.57917589 34.3507602 12 32 C7.1029115 25.43761916 2.04943962 21.82453965 -6 20 C-6 18 -6 18 -4.125 16.125 C-3.42375 15.42375 -2.7225 14.7225 -2 14 C-0.02458394 10.83110341 0.22244774 8.45301421 0.125 4.75 C0.10695312 3.85796875 0.08890625 2.9659375 0.0703125 2.046875 C0.04710937 1.37140625 0.02390625 0.6959375 0 0 Z " fill="#766A99" transform="translate(180,24)"/>
<path d="M0 0 C-2.43930415 1.22882239 -4.88924815 2.43061608 -7.34765625 3.62109375 C-8.58600644 4.22642148 -9.82428598 4.83189377 -11.0625 5.4375 C-11.68705078 5.73720703 -12.31160156 6.03691406 -12.95507812 6.34570312 C-16.56392812 8.11986787 -16.56392812 8.11986787 -19.640625 10.6640625 C-21.5255195 12.51645882 -23.09821737 12.5757321 -25.6875 12.9375 C-33.69036241 14.37032689 -39.916998 17.53936194 -45 24 C-46.85268119 27.19963789 -46.85268119 27.19963789 -48 30 C-51.60296594 30.41176754 -52.78402067 30.1535853 -55.8125 28 C-56.534375 27.34 -57.25625 26.68 -58 26 C-56.19587357 29.26460973 -55.16605307 30.88929795 -52 33 C-50.0103005 33.39013716 -48.00980131 33.73202649 -46 34 C-49.77385034 36.15648591 -52.69031271 36 -57 36 C-57.33 35.01 -57.66 34.02 -58 33 C-63.08410965 35.5939335 -66.65776586 38.40296693 -70.51953125 42.609375 C-72 44 -72 44 -74 44 C-74.24363281 44.55558594 -74.48726562 45.11117187 -74.73828125 45.68359375 C-76.25558378 48.46922966 -78.12512684 50.65225667 -80.1875 53.0625 C-91.7043058 67.03008207 -98.7277862 82.48594818 -103 100 C-103.2638147 100.9278833 -103.2638147 100.9278833 -103.53295898 101.87451172 C-105.46112792 109.24006525 -105.44092071 116.67775743 -105.4375 124.25 C-105.43823517 124.95631561 -105.43897034 125.66263123 -105.43972778 126.39035034 C-105.38937992 144.85601468 -101.63864835 160.70944546 -93 177 C-92.443125 178.11761719 -91.88625 179.23523438 -91.3125 180.38671875 C-87.73007166 187.39401493 -83.59465485 193.49588579 -78.72265625 199.63671875 C-77 202 -77 202 -77 204 C-73.93064175 204.94900653 -72.56010077 205.28935439 -69.6484375 203.78515625 C-68.52308594 202.93244141 -68.52308594 202.93244141 -67.375 202.0625 C-63.28701595 199 -63.28701595 199 -60 199 C-60.33 198.34 -60.66 197.68 -61 197 C-61.11185756 191.66279661 -61.22245071 185.82129691 -57.9375 181.375 C-54.23745205 178.38347187 -51.65368392 177.78875999 -47 177 C-47 176.01 -47 175.02 -47 174 C-42.08497242 172.70764285 -37.22709898 172.88864483 -32.1875 172.9375 C-31.30384766 172.94201172 -30.42019531 172.94652344 -29.50976562 172.95117188 C-27.33981441 172.96290134 -25.16989828 172.98083505 -23 173 C-22.99613281 174.68416016 -22.99613281 174.68416016 -22.9921875 176.40234375 C-22.87365543 187.57254492 -22.87365543 187.57254492 -17.80078125 197.26953125 C-11.08655885 203.72159312 -3.83846694 205.97204549 5.3125 206.375 C14.45467651 206.159741 21.63654517 203.00349371 28.34375 196.87890625 C32.83283336 191.78633763 33.49463139 187.76156421 33.6875 181.1875 C33.72166016 180.39923828 33.75582031 179.61097656 33.79101562 178.79882812 C33.87299875 176.86636881 33.93818845 174.93320965 34 173 C37.6041498 172.97099545 41.20826962 172.95319982 44.8125 172.9375 C45.83666016 172.92912109 46.86082031 172.92074219 47.91601562 172.91210938 C48.89892578 172.90888672 49.88183594 172.90566406 50.89453125 172.90234375 C51.80050049 172.89710693 52.70646973 172.89187012 53.63989258 172.88647461 C56 173 56 173 59 174 C58.67 175.32 58.34 176.64 58 178 C59.051875 178.061875 60.10375 178.12375 61.1875 178.1875 C66.77781182 179.37887793 68.92212649 182.38318974 72 187 C72.23046875 189.41015625 72.23046875 189.41015625 72.1875 192.0625 C72.17783203 193.37927734 72.17783203 193.37927734 72.16796875 194.72265625 C72 197 72 197 71 199 C71.72574219 199.10183594 72.45148438 199.20367187 73.19921875 199.30859375 C76.29731653 200.07339613 78.21088295 201.23748505 80.8125 203.0625 C81.60269531 203.61035156 82.39289063 204.15820312 83.20703125 204.72265625 C83.79871094 205.14417969 84.39039063 205.56570312 85 206 C98.50473882 190.86003184 107.08442749 174.41314051 113.3125 155.125 C113.56733154 154.3402832 113.82216309 153.55556641 114.0847168 152.74707031 C119.02409451 136.86965705 118.77026103 117.09362849 115 101 C114.74347656 99.90300781 114.48695313 98.80601563 114.22265625 97.67578125 C106.8585447 69.45195457 88.73634638 42.4362873 63.31518555 27.50634766 C57.835492 24.37653691 57.835492 24.37653691 52 22 C52.33 17.71 52.66 13.42 53 9 C67.38684262 11.11571215 76.99281434 18.1074035 87.47558594 27.63134766 C89.39464964 29.3543251 91.38629315 30.98334199 93.375 32.625 C97.86832765 36.59362909 101.43624401 41.19901552 105 46 C105.74507812 47.00289062 106.49015625 48.00578125 107.2578125 49.0390625 C123.50448113 71.67425167 131.88003843 97.6003215 131.5625 125.375 C131.55824005 126.17982819 131.5539801 126.98465637 131.54959106 127.81387329 C131.45672304 140.46193431 130.39813923 152.04532626 126 164 C125.72172363 164.78874512 125.44344727 165.57749023 125.15673828 166.39013672 C123.27773192 171.67135516 121.21650555 176.85207447 119 182 C118.40251953 183.41152344 118.40251953 183.41152344 117.79296875 184.8515625 C112.86346881 195.54666131 105.0769933 205.49692678 97 214 C96.37609375 214.66386719 95.7521875 215.32773438 95.109375 216.01171875 C90.4269877 220.85080012 85.43952897 225.03799014 80 229 C79.33742187 229.49113281 78.67484375 229.98226562 77.9921875 230.48828125 C68.27034917 237.34531931 57.29690518 242.38718093 46.125 246.375 C45.46048828 246.61347656 44.79597656 246.85195313 44.11132812 247.09765625 C35.37711679 250.08091106 26.80323601 251.31610327 17.59375 251.37109375 C16.62957153 251.38012222 15.66539307 251.3891507 14.67199707 251.39845276 C12.64171405 251.41286901 10.61138549 251.42182033 8.58105469 251.42553711 C5.53497203 251.43736421 2.4909652 251.48657856 -0.5546875 251.53710938 C-17.11427074 251.67593072 -31.43612141 248.7383671 -46.4375 241.625 C-47.27531006 241.23634766 -48.11312012 240.84769531 -48.97631836 240.44726562 C-59.81397495 235.32343613 -68.93159592 228.813173 -78 221 C-79.43085937 219.78957031 -79.43085937 219.78957031 -80.890625 218.5546875 C-86.19004959 213.93579011 -90.56172976 209.36816892 -94.39453125 203.46875 C-95.9555073 200.99919294 -95.9555073 200.99919294 -97.69921875 198.78125 C-103.68122043 190.93071296 -107.2496078 182.0560367 -111 173 C-111.41378906 172.04222656 -111.82757813 171.08445313 -112.25390625 170.09765625 C-113.33074434 167.42456405 -114.19578134 164.76809192 -115 162 C-115.18046875 161.38721191 -115.3609375 160.77442383 -115.546875 160.14306641 C-121.70976176 138.1721669 -121.8394008 110.81577578 -115 89 C-114.78037598 88.27619141 -114.56075195 87.55238281 -114.33447266 86.80664062 C-106.63299099 61.93080033 -91.97800387 38.85004737 -71 23 C-70.24203125 22.70351563 -69.4840625 22.40703125 -68.703125 22.1015625 C-65.52059988 20.80463753 -62.83245334 19.10104823 -59.9375 17.25 C-41.14492585 5.50797317 -22.34351518 -0.7365994 0 0 Z " fill="#2E2B3D" transform="translate(131,15)"/>
<path d="M0 0 C0.433125 0.763125 0.86625 1.52625 1.3125 2.3125 C3.39522472 5.62943196 5.44780041 6.5001824 9 8 C8.08486681 10.28783297 7.34515354 11.73449728 5.375 13.25 C1.4238055 14.49774563 -3.22561386 14.88719307 -7 13 C-6.505 15.97 -6.505 15.97 -6 19 C-3.69 19.66 -1.38 20.32 1 21 C1 21.66 1 22.32 1 23 C0.34 23 -0.32 23 -1 23 C-1.268125 23.86625 -1.53625 24.7325 -1.8125 25.625 C-3 29 -3 29 -4.5625 31.9375 C-6.15455699 35.32927358 -6.62897076 38.28970757 -7 42 C-6.34 42 -5.68 42 -5 42 C-4.95101562 43.00160156 -4.90203125 44.00320312 -4.8515625 45.03515625 C-4.77645921 46.37762759 -4.70091474 47.7200743 -4.625 49.0625 C-4.52058594 51.02896484 -4.52058594 51.02896484 -4.4140625 53.03515625 C-4.00194564 56.98136957 -3.20243433 60.24117073 -2 64 C-1.01 63.34 -0.02 62.68 1 62 C3.26171875 61.8046875 3.26171875 61.8046875 5.6875 61.875 C6.49574219 61.89304688 7.30398437 61.91109375 8.13671875 61.9296875 C8.75160156 61.95289063 9.36648437 61.97609375 10 62 C10.43248216 66.12545042 10.85951303 70.2514199 11.28173828 74.37792969 C11.42578844 75.778471 11.57126661 77.17886627 11.71826172 78.57910156 C13.20962552 92.80285703 13.20962552 92.80285703 13 100 C13 109.7428859 18.87729993 117.91384011 25.35546875 124.64453125 C27.82520035 126.84430696 30.21377632 128.46665208 33.0625 130.125 C36.80553696 132.36425544 36.80553696 132.36425544 37.7109375 135.32421875 C37.9375 137.8125 37.9375 137.8125 37.90234375 140.14453125 C37.93457031 140.75683594 37.96679688 141.36914062 38 142 C38.66 142.33 39.32 142.66 40 143 C39.01 143 38.02 143 37 143 C36.67 146.63 36.34 150.26 36 154 C35.67 154 35.34 154 35 154 C35 149.38 35 144.76 35 140 C27.08 140.33 19.16 140.66 11 141 C11.33 142.32 11.66 143.64 12 145 C11.09507813 145.12955078 11.09507813 145.12955078 10.171875 145.26171875 C6.37083322 145.92996642 3.6198092 146.5351431 0.5 148.875 C-2.07108477 154.23142661 -2 160.12391684 -2 166 C-2.53109375 166.25394531 -3.0621875 166.50789062 -3.609375 166.76953125 C-8.13460194 168.94707129 -8.13460194 168.94707129 -12.1875 171.875 C-14 173 -14 173 -16.2578125 172.52734375 C-20.18087319 170.34227718 -22.16748893 167.34244632 -24.6875 163.6875 C-25.46371704 162.5747168 -25.46371704 162.5747168 -26.25561523 161.43945312 C-34.02025469 149.93206027 -39.81321351 137.20968084 -44 124 C-44.38542969 122.92621094 -44.77085938 121.85242188 -45.16796875 120.74609375 C-50.94888937 101.98578815 -50.38648733 77.55222221 -44 59 C-43.45666016 57.34871094 -43.45666016 57.34871094 -42.90234375 55.6640625 C-41.726794 52.3725232 -40.41315894 49.19661087 -39 46 C-38.72704102 45.37770508 -38.45408203 44.75541016 -38.17285156 44.11425781 C-33.44873503 33.52284075 -27.44870625 24.84823025 -20 16 C-19.31292969 15.11828125 -18.62585938 14.2365625 -17.91796875 13.328125 C-14.98774209 9.77127145 -11.51738134 6.95684248 -8 4 C-6.6078125 2.7934375 -6.6078125 2.7934375 -5.1875 1.5625 C-3 0 -3 0 0 0 Z " fill="#756997" transform="translate(73,48)"/>
<path d="M0 0 C0.84924042 -0.0010675 1.69848083 -0.00213501 2.57345581 -0.00323486 C21.42238191 0.03086 37.6853842 3.1221795 54.6875 11.4375 C51.39053895 12.53648702 50.28255097 12.30874444 47 11.5 C46.19175781 11.30535156 45.38351563 11.11070313 44.55078125 10.91015625 C43.93589844 10.75417969 43.32101563 10.59820312 42.6875 10.4375 C43.1825 11.4275 43.1825 11.4275 43.6875 12.4375 C44.32355445 18.58602637 43.36056486 21.82348325 39.9765625 26.96875 C39.55117187 27.4534375 39.12578125 27.938125 38.6875 28.4375 C38.0275 28.4375 37.3675 28.4375 36.6875 28.4375 C36.6875 29.0975 36.6875 29.7575 36.6875 30.4375 C37.9559375 30.56125 37.9559375 30.56125 39.25 30.6875 C46.85229999 32.34618363 51.15957933 36.40027244 55.6875 42.4375 C56.244375 43.406875 56.80125 44.37625 57.375 45.375 C60.80555161 48.43468116 63.9756207 47.81697091 68.421875 47.61328125 C69.16953125 47.55527344 69.9171875 47.49726562 70.6875 47.4375 C68.37613636 53.47272727 68.37613636 53.47272727 65.6875 55.4375 C64.3675 55.4375 63.0475 55.4375 61.6875 55.4375 C62.0175 56.4275 62.3475 57.4175 62.6875 58.4375 C61.53088843 60.64557663 60.46072566 62.66427434 58.6875 64.4375 C51.02702583 65.11473033 44.78010582 65.41105577 38.6875 60.4375 C35.58371777 56.89677755 33.09740426 53.17532767 30.8125 49.0625 C28.16502667 45.79209176 26.48610147 45.71150912 22.5078125 44.9921875 C20.6875 44.4375 20.6875 44.4375 19 42 C18.566875 41.154375 18.13375 40.30875 17.6875 39.4375 C14.24110138 36.58191257 11.22173802 35.91817682 6.7421875 36.0703125 C3.21091893 36.7013757 0.70028366 38.52554114 -2.3125 40.4375 C-2.951875 40.51742187 -3.59125 40.59734375 -4.25 40.6796875 C-7.53460535 41.88653113 -8.79349644 44.77237417 -10.5625 47.625 C-14.68688782 53.93976984 -18.94144207 58.98048069 -26.3125 61.4375 C-31.95954736 61.93457055 -36.75547816 62.22966901 -41.875 59.625 C-43.75140397 57.94104772 -45.53182541 56.21817459 -47.3125 54.4375 C-48.7975 53.9425 -48.7975 53.9425 -50.3125 53.4375 C-48.79375434 60.01873118 -46.85536121 62.7422592 -41.3125 66.4375 C-41.9725 66.4375 -42.6325 66.4375 -43.3125 66.4375 C-43.3125 68.7475 -43.3125 71.0575 -43.3125 73.4375 C-43.6425 73.4375 -43.9725 73.4375 -44.3125 73.4375 C-44.6425 71.4575 -44.9725 69.4775 -45.3125 67.4375 C-45.993125 67.9325 -46.67375 68.4275 -47.375 68.9375 C-51.06038284 70.81939762 -53.22096373 71.02200518 -57.3125 70.4375 C-60.78241083 67.8727833 -62.09323813 66.33141378 -63.125 62.125 C-63.186875 61.238125 -63.24875 60.35125 -63.3125 59.4375 C-63.9725 59.4375 -64.6325 59.4375 -65.3125 59.4375 C-65.3125 58.7775 -65.3125 58.1175 -65.3125 57.4375 C-64.6525 57.4375 -63.9925 57.4375 -63.3125 57.4375 C-63.3125 56.7775 -63.3125 56.1175 -63.3125 55.4375 C-64.075625 55.334375 -64.83875 55.23125 -65.625 55.125 C-68.52905911 54.38210116 -69.60245766 53.86756017 -71.3125 51.4375 C-71.3125 50.1175 -71.3125 48.7975 -71.3125 47.4375 C-70.31669922 47.48970703 -70.31669922 47.48970703 -69.30078125 47.54296875 C-62.30449643 47.80172022 -62.30449643 47.80172022 -56.3125 44.4375 C-55.9825 43.7775 -55.6525 43.1175 -55.3125 42.4375 C-57.2925 41.7775 -59.2725 41.1175 -61.3125 40.4375 C-61.3125 37.4375 -61.3125 37.4375 -59.3125 35.4375 C-58.9825 35.4375 -58.6525 35.4375 -58.3125 35.4375 C-59.3025 34.674375 -60.2925 33.91125 -61.3125 33.125 C-63 31.82421875 -63 31.82421875 -64.3125 30.4375 C-64.3125 29.4475 -64.3125 28.4575 -64.3125 27.4375 C-60.4375 29.3125 -60.4375 29.3125 -59.3125 30.4375 C-57.64632885 30.47813832 -55.97861905 30.480221 -54.3125 30.4375 C-54.003125 29.6125 -53.69375 28.7875 -53.375 27.9375 C-50.46447173 22.13023743 -44.58604893 17.2369057 -38.75 14.5 C-35.3125 13.4375 -35.3125 13.4375 -31.375 13.125 C-27.02743845 12.72368663 -24.70721887 10.72414678 -21.41015625 8.00390625 C-18.02326821 5.47477757 -14.22620868 3.97761684 -10.3125 2.4375 C-19.97990739 2.79328022 -29.03181809 3.47235131 -38.3125 6.4375 C-39.53324219 6.82679687 -40.75398438 7.21609375 -42.01171875 7.6171875 C-51.94754269 10.98449187 -60.68681387 15.81862993 -69.55175781 21.38769531 C-71.4285821 22.50671146 -73.34779707 23.48266085 -75.3125 24.4375 C-73.93297243 20.2989173 -71.06660842 18.91045642 -67.5625 16.625 C-66.88944824 16.18212646 -66.21639648 15.73925293 -65.52294922 15.28295898 C-59.37419755 11.32420335 -53.09607366 8.19304072 -46.3125 5.4375 C-45.59449219 5.12167969 -44.87648438 4.80585938 -44.13671875 4.48046875 C-30.78289015 -0.7832734 -14.15251132 -0.00382392 0 0 Z " fill="#3E3954" transform="translate(137.3125,13.5625)"/>
<path d="M0 0 C3.33863126 2.66830179 4.84062124 6.16476096 6.640625 9.97265625 C8.97983986 14.48352044 12.17057148 16.78674705 16.81640625 18.8515625 C19.00390625 20.6015625 19.00390625 20.6015625 19.46484375 22.6796875 C19.61309766 24.26447063 19.71524634 25.85440748 19.765625 27.4453125 C19.86935217 29.89801346 19.86935217 29.89801346 22.00390625 32.6015625 C22.19921875 35.30078125 22.19921875 35.30078125 22.12890625 38.2890625 C22.11085938 39.28292969 22.0928125 40.27679688 22.07421875 41.30078125 C22.05101562 42.06003906 22.0278125 42.81929687 22.00390625 43.6015625 C20.33723958 41.93489583 18.67057292 40.26822917 17.00390625 38.6015625 C16.42640625 38.0859375 15.84890625 37.5703125 15.25390625 37.0390625 C14.00390625 35.6015625 14.00390625 35.6015625 13.50390625 33.4765625 C13.33890625 32.8578125 13.17390625 32.2390625 13.00390625 31.6015625 C10.02022899 30.60700341 7.80348705 30.40596618 4.6796875 30.28515625 C3.13764648 30.22231445 3.13764648 30.22231445 1.56445312 30.15820312 C0.49259766 30.11888672 -0.57925781 30.07957031 -1.68359375 30.0390625 C-3.3087793 29.97428711 -3.3087793 29.97428711 -4.96679688 29.90820312 C-7.64310166 29.80209412 -10.31949901 29.70003889 -12.99609375 29.6015625 C-13.32609375 31.9115625 -13.65609375 34.2215625 -13.99609375 36.6015625 C-13.33609375 36.6015625 -12.67609375 36.6015625 -11.99609375 36.6015625 C-12.64278789 37.94469649 -13.31512953 39.27547428 -13.99609375 40.6015625 C-14.36347656 41.45878906 -14.73085937 42.31601563 -15.109375 43.19921875 C-16.99609375 45.6015625 -16.99609375 45.6015625 -20.39453125 46.3359375 C-30.742498 46.37659749 -30.742498 46.37659749 -34.09375 44.3046875 C-37.51644184 39.95397718 -37.13536893 35.94972944 -36.99609375 30.6015625 C-40.60024355 30.57255795 -44.20436337 30.55476232 -47.80859375 30.5390625 C-48.83275391 30.53068359 -49.85691406 30.52230469 -50.91210938 30.51367188 C-51.89501953 30.51044922 -52.87792969 30.50722656 -53.890625 30.50390625 C-54.79659424 30.49866943 -55.70256348 30.49343262 -56.63598633 30.48803711 C-59.14893414 30.50235269 -59.14893414 30.50235269 -61.99609375 31.6015625 C-62.42921875 32.9628125 -62.42921875 32.9628125 -62.87109375 34.3515625 C-64.1957001 38.17820307 -66.09331527 39.84764445 -68.99609375 42.6015625 C-69.32609375 43.5915625 -69.65609375 44.5815625 -69.99609375 45.6015625 C-70.65609375 45.6015625 -71.31609375 45.6015625 -71.99609375 45.6015625 C-72.41049627 38.15382832 -72.44736173 32.29307656 -68.953125 25.61328125 C-67.53337159 22.62890164 -67.27465312 19.87463515 -66.99609375 16.6015625 C-66.28582031 16.75753906 -65.57554688 16.91351563 -64.84375 17.07421875 C-54.5714744 18.97649201 -46.70465665 17.4804885 -37.99609375 11.6015625 C-34.60437437 8.55718788 -32.25829182 5.03315652 -29.80859375 1.2265625 C-24.91190499 -5.86519363 -7.03645709 -3.30987322 0 0 Z " fill="#F4CEBE" transform="translate(160.99609375,63.3984375)"/>
<path d="M0 0 C0.88365234 0.00451172 1.76730469 0.00902344 2.67773438 0.01367188 C4.84768559 0.02540134 7.01760172 0.04333505 9.1875 0.0625 C9.19136719 1.74666016 9.19136719 1.74666016 9.1953125 3.46484375 C9.31384457 14.63504492 9.31384457 14.63504492 14.38671875 24.33203125 C21.10094115 30.78409312 28.34903306 33.03454549 37.5 33.4375 C46.52985013 33.2248858 53.98351137 30.15321919 60.52734375 23.9453125 C62.96407839 21.18176874 64.56886868 18.36720561 66.1875 15.0625 C68.1675 16.3825 70.1475 17.7025 72.1875 19.0625 C71.6925 21.5375 71.6925 21.5375 71.1875 24.0625 C70.5275 24.0625 69.8675 24.0625 69.1875 24.0625 C68.6925 25.5475 68.6925 25.5475 68.1875 27.0625 C66.62768555 28.58789062 66.62768555 28.58789062 64.63671875 30.21875 C60.11022833 34.06197754 56.05166231 38.22780291 52 42.5625 C51.31486328 43.28308594 50.62972656 44.00367188 49.92382812 44.74609375 C45.95124087 48.97485362 42.44274376 53.25864513 39.1875 58.0625 C36.16918412 56.73754335 34.42786974 55.43684571 32.375 52.875 C28.59533757 48.39908396 24.51303722 44.26597721 20.375 40.125 C19.368927 39.11240112 19.368927 39.11240112 18.3425293 38.0793457 C17.70742432 37.44601318 17.07231934 36.81268066 16.41796875 36.16015625 C15.55788208 35.30176147 15.55788208 35.30176147 14.68041992 34.42602539 C13.21372622 32.96187424 13.21372622 32.96187424 11.1875 32.0625 C11.6825 34.5375 11.6825 34.5375 12.1875 37.0625 C7.42979938 35.60606104 4.37674004 32.75655953 0.875 29.375 C-0.28322627 28.28188641 -1.44207784 27.18943496 -2.6015625 26.09765625 C-3.15618164 25.57187988 -3.71080078 25.04610352 -4.28222656 24.50439453 C-10.48928659 18.655815 -17.12090984 13.34172585 -23.8125 8.0625 C-21.02716571 4.94259102 -18.96904359 4.52433818 -14.8125 4.0625 C-14.8125 3.0725 -14.8125 2.0825 -14.8125 1.0625 C-9.89747242 -0.22985715 -5.03959898 -0.04885517 0 0 Z " fill="#584479" transform="translate(98.8125,187.9375)"/>
<path d="M0 0 C3.5625 0.25 3.5625 0.25 6.5625 2.25 C7.37109375 4.203125 7.37109375 4.203125 8 6.5 C9.60545953 11.67407164 11.53609611 15.70353388 15.9375 19.0625 C18.93080681 20.41661499 21.28604908 20.93495664 24.5625 21.25 C25.58537109 21.36408203 25.58537109 21.36408203 26.62890625 21.48046875 C33.06227275 21.8944419 37.3515066 19.92896134 42.5625 16.25 C45.02623633 14.12790137 45.02623633 14.12790137 46.5625 12.25 C44.68500492 23.86082481 41.55473218 33.1920257 32.5625 41.25 C31.9025 41.25 31.2425 41.25 30.5625 41.25 C30.500625 40.1775 30.43875 39.105 30.375 38 C29.87490717 34.26630772 29.87490717 34.26630772 27.68969727 32.04882812 C23.08690094 29.4012051 18.93867688 29.67693749 13.71484375 29.71875 C12.66599503 29.7149231 11.6171463 29.71109619 10.53651428 29.70715332 C8.32340533 29.70443584 6.11026418 29.71178546 3.8972168 29.72851562 C0.50822508 29.74994798 -2.87865177 29.72869624 -6.26757812 29.703125 C-8.41927551 29.70576788 -10.57097159 29.71089204 -12.72265625 29.71875 C-13.73626724 29.71065308 -14.74987823 29.70255615 -15.79420471 29.69421387 C-21.25464047 29.69614692 -21.25464047 29.69614692 -26.02905273 32.04882812 C-27.90002238 34.97284655 -28.66115611 37.88584313 -29.4375 41.25 C-36.1527177 37.98832283 -39.0876256 32.58494563 -41.625 25.875 C-43.27228391 21.05319324 -44.45451454 16.24684277 -45.4375 11.25 C-44.715625 11.9925 -43.99375 12.735 -43.25 13.5 C-37.78910373 18.83954302 -34.33642755 21.35384215 -26.6875 21.5 C-20.11476284 21.40319975 -15.52376923 20.15082307 -10.625 15.6875 C-8.07736084 12.29349749 -7.1196437 8.49671682 -6.11328125 4.421875 C-4.94576109 0.66961368 -3.899058 0.28356785 0 0 Z " fill="#F1D1C0" transform="translate(135.4375,112.75)"/>
<path d="M0 0 C1.46759766 -0.00193359 1.46759766 -0.00193359 2.96484375 -0.00390625 C3.98449219 -0.00003906 5.00414063 0.00382812 6.0546875 0.0078125 C7.08207031 0.00394531 8.10945313 0.00007813 9.16796875 -0.00390625 C10.14378906 -0.00261719 11.11960937 -0.00132813 12.125 0 C13.02234863 0.00112793 13.91969727 0.00225586 14.84423828 0.00341797 C16.9296875 0.1328125 16.9296875 0.1328125 17.9296875 1.1328125 C17.836875 2.9890625 17.836875 2.9890625 17.7421875 4.8828125 C17.65768303 9.1694939 18.97497444 10.99342988 21.9296875 14.1328125 C21.9296875 14.7928125 21.9296875 15.4528125 21.9296875 16.1328125 C22.5896875 15.8028125 23.2496875 15.4728125 23.9296875 15.1328125 C25.57325557 15.03696119 27.22083392 15.00297739 28.8671875 15.0078125 C29.74246094 15.00523438 30.61773437 15.00265625 31.51953125 15 C33.9296875 15.1328125 33.9296875 15.1328125 36.9296875 16.1328125 C37.0121875 15.5759375 37.0946875 15.0190625 37.1796875 14.4453125 C38.15578763 11.43567044 39.88157564 9.51126498 41.9296875 7.1328125 C41.2696875 7.1328125 40.6096875 7.1328125 39.9296875 7.1328125 C40.2596875 4.8228125 40.5896875 2.5128125 40.9296875 0.1328125 C44.67962229 0.07469477 48.42944102 0.03917657 52.1796875 0.0078125 C53.77490234 -0.01732422 53.77490234 -0.01732422 55.40234375 -0.04296875 C56.93955078 -0.05263672 56.93955078 -0.05263672 58.5078125 -0.0625 C59.45043945 -0.07297363 60.39306641 -0.08344727 61.36425781 -0.09423828 C64.07178985 0.14538913 65.66875868 0.64239285 67.9296875 2.1328125 C68.62627113 3.78719863 69.29065633 5.45535568 69.9296875 7.1328125 C70.60515625 7.71804687 71.280625 8.30328125 71.9765625 8.90625 C74.56083943 11.8523257 74.34726281 13.52858047 74.1796875 17.3828125 C74.14359375 18.46046875 74.1075 19.538125 74.0703125 20.6484375 C74.02390625 21.46828125 73.9775 22.288125 73.9296875 23.1328125 C73.2696875 23.4628125 72.6096875 23.7928125 71.9296875 24.1328125 C71.6821875 22.9159375 71.4346875 21.6990625 71.1796875 20.4453125 C69.92106313 15.46362443 67.69539199 12.59582479 63.7421875 9.3203125 C59.74178724 7.63125461 56.20844234 7.43855245 51.9296875 8.1328125 C47.28542884 10.62695141 43.61593728 13.07406317 41.9296875 18.1328125 C41.56090646 23.75672336 41.7618628 27.26793885 44.9296875 32.1328125 C48.64781126 35.61105731 51.56113553 36.1779456 56.6015625 36.01171875 C57.96142253 35.91269982 59.32081371 35.80705354 60.6796875 35.6953125 C61.72576172 35.61700195 61.72576172 35.61700195 62.79296875 35.53710938 C64.50564953 35.40807178 66.21773816 35.27121636 67.9296875 35.1328125 C67.9296875 36.4528125 67.9296875 37.7728125 67.9296875 39.1328125 C61.61492514 43.0188201 55.81793017 42.85234355 48.7421875 41.4453125 C43.91145377 40.05275506 40.42916225 37.49939564 37.70703125 33.203125 C35.77792448 29.53851357 34.67197396 26.21538804 33.9296875 22.1328125 C30.97304231 20.6544899 28.18739013 21.07248467 24.9296875 21.1328125 C24.75953125 21.71289062 24.589375 22.29296875 24.4140625 22.890625 C22.16397732 30.14355913 19.43698405 35.7946148 12.9296875 40.1328125 C6.53392421 43.10758612 -0.24508087 43.01280268 -6.8828125 40.9453125 C-10.28610377 39.01010766 -12.61519446 37.18311067 -15.0703125 34.1328125 C-15.0703125 32.8128125 -15.0703125 31.4928125 -15.0703125 30.1328125 C-14.4103125 30.1328125 -13.7503125 30.1328125 -13.0703125 30.1328125 C-12.7403125 29.4728125 -12.4103125 28.8128125 -12.0703125 28.1328125 C-11.3484375 28.8959375 -10.6265625 29.6590625 -9.8828125 30.4453125 C-5.94041743 34.21249001 -3.70768721 35.97435688 1.8046875 36.5078125 C6.04581096 36.30775951 9.24452642 35.32973545 12.9296875 33.1328125 C15.86306318 29.86196882 17.17028274 26.43835395 17.4296875 22.0703125 C16.74505304 16.67881614 14.84001803 13.86947662 10.8671875 10.2578125 C6.2365003 8.48435783 1.81918181 8.50005441 -3.0703125 9.1328125 C-8.5266785 11.61297886 -10.48573827 14.96366404 -13.0703125 20.1328125 C-13.4003125 20.1328125 -13.7303125 20.1328125 -14.0703125 20.1328125 C-14.72270136 17.10986214 -15.21041782 14.23129545 -15.0703125 11.1328125 C-12.7578125 8.9453125 -12.7578125 8.9453125 -10.0703125 7.1328125 C-9.36866608 5.14481432 -8.69658378 3.14582733 -8.0703125 1.1328125 C-5.09252396 0.14021632 -3.10788299 0.00389668 0 0 Z " fill="#242034" transform="translate(107.0703125,92.8671875)"/>
<path d="M0 0 C3.47062415 3.98479069 3.29351396 7.7688489 3.203125 12.79296875 C3 15 3 15 2 17 C2.78375 17.103125 3.5675 17.20625 4.375 17.3125 C7 18 7 18 9 21 C8.11699219 21.4846875 7.23398438 21.969375 6.32421875 22.46875 C-0.51095777 26.26894342 -6.91970434 30.26383157 -13.18359375 34.96875 C-27.09230769 45 -27.09230769 45 -30 45 C-30.33 41.04 -30.66 37.08 -31 33 C-32.32 32.67 -33.64 32.34 -35 32 C-35.99 31.67 -36.98 31.34 -38 31 C-35.93236534 27.13819203 -33.84992169 24.82865565 -30.375 22.1875 C-24.17458391 17.29025034 -18.51210267 11.90413685 -12.83935547 6.40893555 C-12.14084473 5.73902588 -11.44233398 5.06911621 -10.72265625 4.37890625 C-10.10140869 3.7763501 -9.48016113 3.17379395 -8.84008789 2.55297852 C-5.62286731 -0.16225833 -4.12765254 -1.37588418 0 0 Z " fill="#262235" transform="translate(200,197)"/>
<path d="M0 0 C0.59167969 0.74121094 1.18335937 1.48242188 1.79296875 2.24609375 C2.52128906 3.15488281 3.24960938 4.06367188 4 5 C4.82951172 6.03833984 4.82951172 6.03833984 5.67578125 7.09765625 C9.42446597 11.59786726 12.73745219 14.4203197 18 17 C18.66 17.33 19.32 17.66 20 18 C28.35037846 18.89752367 35.21045495 18.51690547 42.44921875 14.06640625 C46.34753617 10.90835125 49.32147578 7.19731879 52.3203125 3.1953125 C52.87460938 2.47085938 53.42890625 1.74640625 54 1 C54.33 1 54.66 1 55 1 C56.84885489 12.96713349 56.84885489 12.96713349 54.94140625 17.53515625 C53.42946081 19.57333725 51.85693108 21.27330616 50 23 C49.113125 23.9075 48.22625 24.815 47.3125 25.75 C39.99496037 31.37154737 30.99845525 33.0563404 22 32 C13.2927766 30.43683378 6.45251335 26.53202236 0.9375 19.5625 C-2.48900719 13.72601609 -0.84414714 6.41886144 0 0 Z " fill="#F6D0BF" transform="translate(109,190)"/>
<path d="M0 0 C1.22125328 -0.00461494 1.22125328 -0.00461494 2.46717834 -0.00932312 C3.77977882 0.00145515 3.77977882 0.00145515 5.11889648 0.01245117 C6.47047096 0.0131385 6.47047096 0.0131385 7.84934998 0.01383972 C9.75325844 0.01685992 11.65716448 0.02473928 13.56103516 0.03710938 C16.48210356 0.05537062 19.40285507 0.05761899 22.32397461 0.05737305 C24.17228465 0.06228815 26.02059254 0.06811644 27.86889648 0.07495117 C29.18453331 0.07662041 29.18453331 0.07662041 30.52674866 0.07832336 C36.69534753 0.12684857 36.69534753 0.12684857 38.92749023 1.24291992 C39.30246769 5.93013811 39.41208521 9.29167794 37.23999023 13.55541992 C33.64594583 17.73228234 30.22368436 20.57043757 24.92749023 22.24291992 C23.93749023 22.24291992 22.94749023 22.24291992 21.92749023 22.24291992 C21.92749023 20.26291992 21.92749023 18.28291992 21.92749023 16.24291992 C18.29749023 16.24291992 14.66749023 16.24291992 10.92749023 16.24291992 C10.92749023 18.22291992 10.92749023 20.20291992 10.92749023 22.24291992 C4.4327772 21.97230688 0.66912641 19.62145783 -4.07250977 15.24291992 C-6.63617227 12.1985707 -7.26548218 9.94100884 -7.44750977 6.05541992 C-7.32375977 4.79729492 -7.20000977 3.53916992 -7.07250977 2.24291992 C-4.01854052 0.20694043 -3.4299768 -0.00682969 0 0 Z " fill="#F1CFBD" transform="translate(120.072509765625,148.757080078125)"/>
<path d="M0 0 C4.26859048 2.29010967 7.31842619 4.97763928 10 9 C10.5728928 13.80634735 10.63642451 18.42568673 8.8125 22.9375 C4.95141744 27.33114567 1.67287283 29.7943944 -4.25 30.25 C-9.75747026 29.88283532 -13.54150218 28.53526086 -17.375 24.5 C-20.18906872 20.17066351 -20.53586897 16.05106118 -20 11 C-16.50176485 2.64310493 -8.78089584 -1.50768959 0 0 Z " fill="#F1D1C1" transform="translate(168,100)"/>
<path d="M0 0 C4.85978996 2.29735525 7.59883576 5.19767151 10 10 C10.85053175 15.85921869 9.94347064 19.44441276 6.546875 24.30078125 C3.10871969 28.07754276 -1.13726281 29.12732285 -6.0625 29.4375 C-11.81567972 28.79825781 -14.51299901 26.60439581 -18.375 22.4375 C-20.67300358 17.57633858 -20.9188261 13.28521338 -20 8 C-15.85954269 -0.26454918 -8.31969677 -0.96600253 0 0 Z " fill="#F0D0BF" transform="translate(115,101)"/>
<path d="M0 0 C5.09360966 1.71832615 9.38093684 4.61883267 13.875 7.5 C14.70620361 8.02883789 15.53740723 8.55767578 16.39379883 9.10253906 C24.00138027 13.96057616 31.52093349 18.94687883 39 24 C39.04898438 23.22914063 39.09796875 22.45828125 39.1484375 21.6640625 C39.22320312 20.66117188 39.29796875 19.65828125 39.375 18.625 C39.44460937 17.62726563 39.51421875 16.62953125 39.5859375 15.6015625 C40 13 40 13 42 11 C43.32 11.33 44.64 11.66 46 12 C46 19.26 46 26.52 46 34 C29.87739986 31.31289998 13.14430473 21.80752492 1 11 C-0.37421814 9.83241248 -1.74914337 8.66565631 -3.125 7.5 C-4.07375 6.675 -5.0225 5.85 -6 5 C-5.195625 4.360625 -4.39125 3.72125 -3.5625 3.0625 C-1.7249496 1.59396498 -1.7249496 1.59396498 0 0 Z " fill="#393449" transform="translate(63,217)"/>
<path d="M0 0 C7.50189421 -0.51737201 10.58742849 1.12625557 16.375 6 C19.01280503 10.8697939 18.79542777 15.59657685 18 21 C15.44900963 28.0674979 11.41654382 32.00701611 5 35.75 C1.9779996 37.00916683 0.20760068 37.10836489 -3 37 C-2.93941406 36.23300781 -2.87882813 35.46601563 -2.81640625 34.67578125 C-2.16895362 26.09952415 -1.7200196 17.5291481 -1.39282227 8.93481445 C-1.33759399 7.62903442 -1.33759399 7.62903442 -1.28125 6.296875 C-1.25095703 5.51666992 -1.22066406 4.73646484 -1.18945312 3.93261719 C-1 2 -1 2 0 0 Z " fill="#F4D6C6" transform="translate(190,110)"/>
<path d="M0 0 C0.8048584 0.01973877 1.6097168 0.03947754 2.43896484 0.05981445 C3.35476318 0.09788208 3.35476318 0.09788208 4.2890625 0.13671875 C4.72086296 4.28054847 5.14793572 8.42483127 5.57080078 12.56958008 C5.71503757 13.97693748 5.86052291 15.38416755 6.00732422 16.79125977 C6.21917849 18.82405197 6.42640714 20.85727315 6.6328125 22.890625 C6.75849609 24.11080322 6.88417969 25.33098145 7.01367188 26.58813477 C7.28777938 30.12018494 7.33672717 33.59563092 7.2890625 37.13671875 C2.16938821 37.77667804 -0.69637636 36.41363574 -4.81640625 33.6328125 C-8.73584989 30.53766423 -11.8234468 26.79308346 -13.7109375 22.13671875 C-14.01171875 19.296875 -14.01171875 19.296875 -14.0234375 16.19921875 C-14.04019531 15.17957031 -14.05695313 14.15992187 -14.07421875 13.109375 C-13.43776525 7.90140604 -10.56936616 4.3353365 -6.52880859 1.06323242 C-4.22322319 -0.11185442 -2.57279517 -0.08201077 0 0 Z " fill="#F4D5C5" transform="translate(78.7109375,109.86328125)"/>
<path d="M0 0 C1.03447266 0.40798828 1.03447266 0.40798828 2.08984375 0.82421875 C7.27887714 3.24869312 11.51949288 6.39967755 15 11 C15.69140625 13.21875 15.69140625 13.21875 16 15 C18.31 14.34 20.62 13.68 23 13 C21.4972742 17.20763224 18.76667005 18.8027758 15 21 C14.34 21 13.68 21 13 21 C12.505 19.4840625 12.505 19.4840625 12 17.9375 C9.41182769 11.91877854 4.11042343 7.71549305 -1.8125 5.125 C-11.06453436 1.85957611 -20.97631763 1.69731702 -30 6 C-31.51367147 7.14319244 -32.9929639 8.33310757 -34.4375 9.5625 C-37.80936403 12.41698807 -40.12125919 13.47785589 -44.5 14.0625 C-50.46506731 14.86228556 -54.5469464 16.94636151 -59 21 C-60.20067797 22.60003391 -61.36768867 24.22587685 -62.5 25.875 C-65.33397893 29.79236481 -65.33397893 29.79236481 -68.29296875 30.71484375 C-72.19845059 30.87412115 -74.34339495 30.46442797 -77.5625 28.1875 C-79 26 -79 26 -79 23 C-75.125 24.875 -75.125 24.875 -74 26 C-72.33382885 26.04063832 -70.66611905 26.042721 -69 26 C-68.690625 25.175 -68.38125 24.35 -68.0625 23.5 C-65.15197173 17.69273743 -59.27354893 12.7994057 -53.4375 10.0625 C-50 9 -50 9 -46.0625 8.6875 C-41.69331164 8.2841903 -39.38062037 6.23543094 -36.0234375 3.56640625 C-26.36341231 -3.91172135 -11.22503285 -4.55914091 0 0 Z " fill="#EEEFF1" transform="translate(152,18)"/>
<path d="M0 0 C0.84924042 -0.0010675 1.69848083 -0.00213501 2.57345581 -0.00323486 C21.42238191 0.03086 37.6853842 3.1221795 54.6875 11.4375 C51.39053895 12.53648702 50.28255097 12.30874444 47 11.5 C46.19175781 11.30535156 45.38351563 11.11070313 44.55078125 10.91015625 C43.93589844 10.75417969 43.32101563 10.59820312 42.6875 10.4375 C43.1825 11.4275 43.1825 11.4275 43.6875 12.4375 C44.04262837 17.8532076 44.05449949 20.94816735 40.6875 25.4375 C39.6875 23.4375 39.6875 23.4375 39.6875 20.4375 C38.3675 21.4275 37.0475 22.4175 35.6875 23.4375 C36.19353992 21.26875748 36.68733813 19.43782373 37.6875 17.4375 C36.6975 18.0975 35.7075 18.7575 34.6875 19.4375 C33.3675 19.4375 32.0475 19.4375 30.6875 19.4375 C29.71835271 18.03390738 28.75951269 16.62092694 27.87890625 15.16015625 C24.08621689 9.67630049 17.9013638 5.45235725 11.44921875 3.8984375 C5.58412636 2.91953948 -0.38076092 2.74092898 -6.3125 2.4375 C-7.31925781 2.38207031 -8.32601562 2.32664062 -9.36328125 2.26953125 C-31.42904343 1.628617 -51.34929716 9.9099646 -69.69482422 21.44775391 C-71.51569636 22.56182207 -73.37538626 23.54077983 -75.3125 24.4375 C-73.93297243 20.2989173 -71.06660842 18.91045642 -67.5625 16.625 C-66.88944824 16.18212646 -66.21639648 15.73925293 -65.52294922 15.28295898 C-59.37419755 11.32420335 -53.09607366 8.19304072 -46.3125 5.4375 C-45.59449219 5.12167969 -44.87648438 4.80585938 -44.13671875 4.48046875 C-30.78289015 -0.7832734 -14.15251132 -0.00382392 0 0 Z " fill="#3C3B4A" transform="translate(137.3125,13.5625)"/>
<path d="M0 0 C1.98 1.32 3.96 2.64 6 4 C4.63715729 8.81253833 1.98587011 10.9722227 -2 13.6875 C-2.91410645 14.3228064 -2.91410645 14.3228064 -3.84667969 14.97094727 C-14.34169029 22.10645085 -25.51664338 29.18117754 -38 32 C-38.47969341 28.86848032 -38.76453871 27.00451492 -38 24 C-35.42646907 21.34347697 -32.34635426 19.71286805 -29.125 17.9375 C-27.36874329 16.90542776 -25.61352385 15.87158829 -23.859375 14.8359375 C-23.01439453 14.34834961 -22.16941406 13.86076172 -21.29882812 13.35839844 C-18.54847957 11.73319247 -15.95541199 9.94439282 -13.375 8.0625 C-9.10815419 4.99758259 -4.64992877 2.4372815 0 0 Z " fill="#373348" transform="translate(209,217)"/>
<path d="M0 0 C0.71285156 0.48210937 1.42570312 0.96421875 2.16015625 1.4609375 C3.59681641 2.40839844 3.59681641 2.40839844 5.0625 3.375 C6.00222656 4.00148437 6.94195312 4.62796875 7.91015625 5.2734375 C16.09381218 9.8463527 26.84195778 10.81434024 35.97070312 8.50048828 C38.90252927 7.53559307 41.70673053 6.35183252 44.5234375 5.09375 C47.69109128 3.69478618 49.42301135 4 53 4 C52.921875 6.23828125 52.921875 6.23828125 52 9 C49.73471655 10.64559204 47.70672587 11.91189234 45.25 13.1875 C44.62867188 13.52974609 44.00734375 13.87199219 43.3671875 14.22460938 C35.04119551 18.74769574 28.5161257 20.16829665 19 19 C13.2131975 16.91780205 7.69051676 14.01887 3 10 C3 9.34 3 8.68 3 8 C2.34 8 1.68 8 1 8 C-0.35439668 5.29120665 -0.06501451 2.99066732 0 0 Z " fill="#954D67" transform="translate(110,182)"/>
<path d="M0 0 C1.6875 1.265625 1.6875 1.265625 2.4375 3.40625 C2.52 4.01984375 2.6025 4.6334375 2.6875 5.265625 C-1.3256584 4.84318727 -4.88744089 4.39700691 -8.75 3.203125 C-13.94877526 1.83502625 -18.81212224 1.37263294 -23.9375 3.203125 C-26.94088507 5.81132783 -29.11393941 8.81994191 -31.5078125 11.984375 C-36.8546384 18.74313328 -42.89888896 22.28064438 -51.3125 24.265625 C-57.19928057 24.88365971 -61.87204787 24.70310355 -67.3125 22.265625 C-67.3125 20.285625 -67.3125 18.305625 -67.3125 16.265625 C-66.60222656 16.42160156 -65.89195313 16.57757813 -65.16015625 16.73828125 C-54.88788065 18.64055451 -47.0210629 17.144551 -38.3125 11.265625 C-34.92078062 8.22125038 -32.57469807 4.69721902 -30.125 0.890625 C-24.87146477 -6.71794326 -7.344535 -3.1263899 0 0 Z " fill="#CD858B" transform="translate(161.3125,63.734375)"/>
<path d="M0 0 C1.32 0.33 2.64 0.66 4 1 C3.34 2.98 2.68 4.96 2 7 C3.98 6.67 5.96 6.34 8 6 C7.67 6.66 7.34 7.32 7 8 C5.948125 8.350625 4.89625 8.70125 3.8125 9.0625 C-0.58248474 10.81152454 -2.14025976 13.87757308 -4.546875 17.78515625 C-8.36767974 23.60880218 -14.41573215 27.11016434 -21 29 C-27.98711381 29.99421382 -33.60135148 29.69587547 -39.375 25.42578125 C-42.62198119 22.57686746 -44.85717541 20.60677665 -45.25 16.1875 C-45.1675 15.465625 -45.085 14.74375 -45 14 C-40.61414969 14.50605965 -38.21747902 17.20219215 -35 20 C-30.20150228 22.39924886 -23.51435856 21.73123647 -18.48828125 20.26953125 C-12.62788074 17.43649296 -9.39453453 13.04802639 -5.82421875 7.71875 C-4.01337276 5.01993028 -2.06080599 2.51118081 0 0 Z " fill="#231E31" transform="translate(132,53)"/>
<path d="M0 0 C0.66 0.33 1.32 0.66 2 1 C-3.00414154 7.61427042 -7.4833176 13.281898 -15 17 C-15.59425781 17.36351562 -16.18851563 17.72703125 -16.80078125 18.1015625 C-19.87397692 19.35704208 -22.5654841 19.30182414 -25.875 19.3125 C-27.06867188 19.32925781 -28.26234375 19.34601563 -29.4921875 19.36328125 C-35.67717659 18.72274229 -39.65220637 15.75871708 -44.1875 11.6875 C-45.02667969 10.94886719 -45.86585937 10.21023437 -46.73046875 9.44921875 C-49.17530818 6.810812 -50.54925114 4.27481747 -52 1 C-48.10488671 1.5554651 -45.68124737 2.64677786 -42.5 4.9375 C-35.69551391 9.81324972 -29.43329541 11.22466312 -21.03808594 10.40234375 C-13.53438608 8.9210192 -6.26854719 4.17903146 0 0 Z " fill="#CD8489" transform="translate(162,190)"/>
<path d="M0 0 C3.6041498 -0.02900455 7.20826962 -0.04680018 10.8125 -0.0625 C11.83666016 -0.07087891 12.86082031 -0.07925781 13.91601562 -0.08789062 C15.39038086 -0.09272461 15.39038086 -0.09272461 16.89453125 -0.09765625 C17.80050049 -0.10289307 18.70646973 -0.10812988 19.63989258 -0.11352539 C22 0 22 0 25 1 C23.60652624 4.15204981 21.97514921 6.26171773 19.5234375 8.671875 C18.853125 9.33574219 18.1828125 9.99960938 17.4921875 10.68359375 C16.79351562 11.36550781 16.09484375 12.04742187 15.375 12.75 C14.66859375 13.44738281 13.9621875 14.14476562 13.234375 14.86328125 C11.49401297 16.58012488 9.74915019 18.29211832 8 20 C1.83060954 17.83237633 1.83060954 17.83237633 0 15 C-0.2172101 12.35003674 -0.28351554 9.94923442 -0.1875 7.3125 C-0.17396484 6.61060547 -0.16042969 5.90871094 -0.14648438 5.18554688 C-0.11120182 3.45670171 -0.05739583 1.72825235 0 0 Z " fill="#1C1A2C" transform="translate(165,188)"/>
<path d="M0 0 C0.88365234 0.00451172 1.76730469 0.00902344 2.67773438 0.01367188 C4.84768559 0.02540134 7.01760172 0.04333505 9.1875 0.0625 C9.40492047 2.46318434 9.56217466 4.84420109 9.6875 7.25 C9.78804687 8.26030273 9.78804687 8.26030273 9.890625 9.29101562 C9.96875 11.29296875 9.96875 11.29296875 9.1875 15.0625 C6.74691936 17.21769016 4.12196025 18.67508256 1.1875 20.0625 C-1.49127946 17.47054932 -4.15330633 14.86202892 -6.8125 12.25 C-7.575625 11.51201172 -8.33875 10.77402344 -9.125 10.01367188 C-9.846875 9.30146484 -10.56875 8.58925781 -11.3125 7.85546875 C-11.9828125 7.2008667 -12.653125 6.54626465 -13.34375 5.87182617 C-14.8125 4.0625 -14.8125 4.0625 -14.8125 1.0625 C-9.89747242 -0.22985715 -5.03959898 -0.04885517 0 0 Z " fill="#1C1A2C" transform="translate(98.8125,187.9375)"/>
<path d="M0 0 C4.22257179 1.07154263 6.71375635 4.38204914 9.51464844 7.54296875 C10.7267248 8.85922778 11.9426759 10.17193282 13.16308594 11.48046875 C13.68821777 12.06699219 14.21334961 12.65351563 14.75439453 13.2578125 C16.06908228 14.76967673 16.06908228 14.76967673 18.13964844 14.54296875 C18.53152344 15.42984375 18.92339844 16.31671875 19.32714844 17.23046875 C21.21075935 20.67293007 23.30837783 22.86071239 26.13964844 25.54296875 C27.37104244 28.00575676 27.2112404 29.82247425 27.13964844 32.54296875 C22.38194782 31.08652979 19.32888847 28.23702828 15.82714844 24.85546875 C14.66892216 23.76235516 13.51007059 22.66990371 12.35058594 21.578125 C11.7959668 21.05234863 11.24134766 20.52657227 10.66992188 19.98486328 C4.46286185 14.13628375 -2.1687614 8.8221946 -8.86035156 3.54296875 C-6.62950728 0.19670233 -3.89173743 -0.1496137 0 0 Z " fill="#4C4563" transform="translate(83.8603515625,192.45703125)"/>
<path d="M0 0 C0 1.32 0 2.64 0 4 C-0.65597168 4.02505615 -1.31194336 4.0501123 -1.98779297 4.07592773 C-4.95040183 4.1917326 -7.91268031 4.31452886 -10.875 4.4375 C-11.90753906 4.47681641 -12.94007812 4.51613281 -14.00390625 4.55664062 C-14.99003906 4.59853516 -15.97617188 4.64042969 -16.9921875 4.68359375 C-17.90339355 4.72025146 -18.81459961 4.75690918 -19.75341797 4.79467773 C-22.03483481 4.86577065 -22.03483481 4.86577065 -24 6 C-24 7.32 -24 8.64 -24 10 C-24.60328125 10.08636719 -25.2065625 10.17273438 -25.828125 10.26171875 C-29.62916678 10.92996642 -32.3801908 11.5351431 -35.5 13.875 C-38.07108477 19.23142661 -38 25.12391684 -38 31 C-38.53109375 31.25394531 -39.0621875 31.50789063 -39.609375 31.76953125 C-43.3324172 33.58349524 -46.79762215 35.3313518 -50 38 C-51.32 37.34 -52.64 36.68 -54 36 C-51.35024886 33.19438115 -49.19854009 31.10308812 -45.75 29.3125 C-42.8272199 27.3541954 -42.8272199 27.3541954 -42.609375 24.84375 C-42.57328125 24.0084375 -42.5371875 23.173125 -42.5 22.3125 C-42.10308547 14.80420017 -38.87945328 10.71620868 -33.51953125 5.66015625 C-23.29665874 -2.0238787 -12.23169008 -0.81513249 0 0 Z " fill="#EFEFF2" transform="translate(109,183)"/>
<path d="M0 0 C23.89611291 -1.23322536 23.89611291 -1.23322536 33 6 C33.99 6.70125 34.98 7.4025 36 8.125 C40.23046288 12.09105895 41.20946846 14.41792051 41.4375 20.25 C41.99029396 24.74842427 42.45017785 26.48247509 45.79296875 29.62890625 C48.7975867 31.5979349 51.79590806 33.37835714 55 35 C53.68 36.32 52.36 37.64 51 39 C50.31292969 38.50628906 49.62585938 38.01257813 48.91796875 37.50390625 C47.56638672 36.54291016 47.56638672 36.54291016 46.1875 35.5625 C45.29417969 34.92441406 44.40085938 34.28632813 43.48046875 33.62890625 C41.02865666 31.86709732 41.02865666 31.86709732 38 31 C38.04640625 30.20335937 38.0928125 29.40671875 38.140625 28.5859375 C38.30516724 23.75544758 38.38726749 19.95974986 36.5625 15.4375 C33.10511544 12.14876834 29.57262219 11.11384387 25 10 C25.33 8.68 25.66 7.36 26 6 C25.01 6 24.02 6 23 6 C23 5.34 23 4.68 23 4 C15.41 4 7.82 4 0 4 C0 2.68 0 1.36 0 0 Z " fill="#F2F1F3" transform="translate(164,183)"/>
<path d="M0 0 C4 1.33333333 8 2.66666667 12 4 C20.44298519 4.68706609 27.92368616 3.4057105 36 1 C33.81261709 4.58730798 31.59002951 7.51573571 28.5625 10.4375 C25.19326156 13.69055781 22.61376993 17.11894768 20 21 C16.80636047 19.62140072 15.00638231 18.11891172 12.8125 15.4375 C9.35160043 11.32203899 5.6032396 7.60143494 1.72265625 3.8828125 C0 2 0 2 0 0 Z " fill="#6A578E" transform="translate(118,225)"/>
<path d="M0 0 C4.41840123 2.26867909 8.06116374 5.34551642 11.0625 9.3125 C11.75390625 11.53125 11.75390625 11.53125 12.0625 13.3125 C14.3725 12.6525 16.6825 11.9925 19.0625 11.3125 C17.5597742 15.52013224 14.82917005 17.1152758 11.0625 19.3125 C10.4025 19.3125 9.7425 19.3125 9.0625 19.3125 C8.5675 17.7965625 8.5675 17.7965625 8.0625 16.25 C5.47432769 10.23127854 0.17292343 6.02799305 -5.75 3.4375 C-15.39259635 0.0342307 -24.42451757 0.55556129 -33.9375 4.3125 C-35.27990105 4.9607142 -36.61639311 5.6219214 -37.9375 6.3125 C-37.7578125 4.515625 -37.7578125 4.515625 -36.9375 2.3125 C-25.9387248 -6.22035763 -12.13376674 -5.66926522 0 0 Z " fill="#EFF0F1" transform="translate(155.9375,19.6875)"/>
<path d="M0 0 C0.33 0 0.66 0 1 0 C1 1.65 1 3.3 1 5 C2.0725 5.0825 3.145 5.165 4.25 5.25 C8 6 8 6 10.4375 7.5625 C12.63479825 10.99028527 12.63892114 14.09634764 12 18 C10.21759392 22.12767723 7.72348213 24.51767858 4 27 C2.35 27.33 0.7 27.66 -1 28 C-0.67 18.76 -0.34 9.52 0 0 Z " fill="#C46978" transform="translate(189,112)"/>
<path d="M0 0 C0.33885038 2.52019972 0.67120335 5.04098516 1 7.5625 C1.09539062 8.26697266 1.19078125 8.97144531 1.2890625 9.69726562 C1.86666417 14.17367855 2.09489383 18.48661238 2 23 C-0.0625 23.4375 -0.0625 23.4375 -3 23 C-6.15682643 20.46789291 -9.17805746 17.64388509 -11 14 C-11.46114626 9.38853744 -11.70110453 6.30437149 -8.875 2.5 C-5.47815882 -0.45377494 -4.32489309 -0.23960627 0 0 Z " fill="#C36E7B" transform="translate(83,117)"/>
<path d="M0 0 C1.32 0.33 2.64 0.66 4 1 C4.29341888 6.67276511 4.00559652 9.99067246 1 15 C1.66386719 15.43570313 2.32773438 15.87140625 3.01171875 16.3203125 C10.48360283 21.3597438 15.21969063 25.64352666 19 34 C21.64 34 24.28 34 27 34 C26.34 35.32 25.68 36.64 25 38 C22.07710634 38.29724342 19.85114188 38.50627753 17 38 C14.92758602 35.97692921 13.57917589 34.3507602 12 32 C7.1029115 25.43761916 2.04943962 21.82453965 -6 20 C-6 18 -6 18 -4.125 16.125 C-3.42375 15.42375 -2.7225 14.7225 -2 14 C-0.02458394 10.83110341 0.22244774 8.45301421 0.125 4.75 C0.10695312 3.85796875 0.08890625 2.9659375 0.0703125 2.046875 C0.04710937 1.37140625 0.02390625 0.6959375 0 0 Z " fill="#EFEFF1" transform="translate(180,24)"/>
<path d="M0 0 C1 2 1 2 1 6 C1.99 6.33 2.98 6.66 4 7 C4.33 6.01 4.66 5.02 5 4 C10.94122358 2.54500647 10.94122358 2.54500647 13.91796875 3.82421875 C15.62506415 4.86157949 17.31339159 5.92965235 19 7 C19.99 7 20.98 7 22 7 C20.39015783 10.50377414 19.20908944 11.881106 15.8125 13.8125 C11.31406892 15.21365066 8.6835849 15.52039832 4 15 C0.17183243 12.97757185 -2.89070191 10.8463671 -5 7 C-3.88820837 3.66462511 -2.52588702 2.36292656 0 0 Z " fill="#EFD0C0" transform="translate(101,115)"/>
<path d="M0 0 C0.66 0.99 1.32 1.98 2 3 C2.99 2.67 3.98 2.34 5 2 C4.77581061 5.92331434 4.04047908 6.96128088 1.125 9.75 C-3.39828361 13.0067642 -6.50080293 13.36661314 -12 13 C-14.46655001 12.17622019 -16.65511299 11.14851609 -19 10 C-19.3125 7.6875 -19.3125 7.6875 -19 5 C-16.10621018 2.37750297 -13.60510271 1.79803123 -9.8125 1.6875 C-6 2 -6 2 -4 4 C-3.01 4 -2.02 4 -1 4 C-0.67 2.68 -0.34 1.36 0 0 Z " fill="#F3D4C3" transform="translate(172,117)"/>
<path d="M0 0 C0.433125 0.763125 0.86625 1.52625 1.3125 2.3125 C3.39522472 5.62943196 5.44780041 6.5001824 9 8 C8.08486681 10.28783297 7.34515354 11.73449728 5.375 13.25 C1.77298912 14.38747712 -1.21754714 14.24015574 -5 14 C-5.99 13.34 -6.98 12.68 -8 12 C-8 10.68 -8 9.36 -8 8 C-10.31 9.98 -12.62 11.96 -15 14 C-15.66 13.67 -16.32 13.34 -17 13 C-13.88893118 9.78857412 -10.6682946 6.71217351 -7.375 3.6875 C-6.61960937 2.99011719 -5.86421875 2.29273438 -5.0859375 1.57421875 C-3 0 -3 0 0 0 Z " fill="#8C83AA" transform="translate(73,48)"/>
<path d="M0 0 C3.58939226 1.52170154 5.88771871 3.64303972 8.625 6.39453125 C9.93210937 7.70454102 9.93210937 7.70454102 11.265625 9.04101562 C12.16796875 9.95560547 13.0703125 10.87019531 14 11.8125 C14.90234375 12.71548828 15.8046875 13.61847656 16.734375 14.54882812 C20.71902847 18.56000665 24.52566914 22.53165753 28 27 C25.01833579 27.4410474 22.83754678 27.51034792 20.21142578 25.91015625 C18.25726334 24.33974487 16.40371897 22.701468 14.5625 21 C13.90306396 20.40566162 13.24362793 19.81132324 12.56420898 19.19897461 C0.24592127 7.96737019 0.24592127 7.96737019 -0.4375 2.5 C-0.293125 1.675 -0.14875 0.85 0 0 Z " fill="#3B3653" transform="translate(110,220)"/>
<path d="M0 0 C0 0.33 0 0.66 0 1 C-1.28390625 1.13535156 -2.5678125 1.27070313 -3.890625 1.41015625 C-24.23369144 3.78564884 -40.78936124 10.01729012 -58.11914062 20.87426758 C-60.03639341 22.02178219 -61.98990036 23.02590482 -64 24 C-62.62047243 19.8614173 -59.75410842 18.47295642 -56.25 16.1875 C-55.57694824 15.74462646 -54.90389648 15.30175293 -54.21044922 14.84545898 C-48.06169755 10.88670335 -41.78357366 7.75554072 -35 5 C-34.28199219 4.68417969 -33.56398438 4.36835938 -32.82421875 4.04296875 C-22.77471004 0.08170609 -10.68562992 -0.15767672 0 0 Z " fill="#CDCDCE" transform="translate(126,14)"/>
<path d="M0 0 C2.55286908 1.78958701 4.79129736 3.8043666 7 6 C6.67 7.32 6.34 8.64 6 10 C2.125 9.125 2.125 9.125 1 8 C-3.52642225 7.84911926 -7.58300512 7.89575128 -12 9 C-12 5 -12 5 -9.375 2.25 C-6.13957441 -0.18225202 -4.07852996 -0.91558836 0 0 Z " fill="#231F31" transform="translate(165,112)"/>
<path d="M0 0 C3.6875 1.25 3.6875 1.25 6 3 C6.875 5.1875 6.875 5.1875 7 7 C6.05125 6.67 5.1025 6.34 4.125 6 C-1.29386938 4.50023211 -7.13215759 3.5660788 -12.3125 6.15625 C-14.42933911 7.52056528 -14.42933911 7.52056528 -16.30859375 9.00390625 C-16.86675781 9.33261719 -17.42492187 9.66132812 -18 10 C-18.99 9.67 -19.98 9.34 -21 9 C-17.25797531 -0.52515375 -8.84354385 -0.64568247 0 0 Z " fill="#948DAE" transform="translate(146,36)"/>
<path d="M0 0 C1.98 0.495 1.98 0.495 4 1 C4 8.26 4 15.52 4 23 C2.35 22.67 0.7 22.34 -1 22 C-1.02887814 18.52085059 -1.04675687 15.04173169 -1.0625 11.5625 C-1.07087891 10.56927734 -1.07925781 9.57605469 -1.08789062 8.55273438 C-1.09111328 7.60849609 -1.09433594 6.66425781 -1.09765625 5.69140625 C-1.10289307 4.81685791 -1.10812988 3.94230957 -1.11352539 3.04125977 C-1 1 -1 1 0 0 Z " fill="#E0E3EA" transform="translate(105,228)"/>
<path d="M0 0 C1.98 0.495 1.98 0.495 4 1 C4 7.93 4 14.86 4 22 C2.35 22.33 0.7 22.66 -1 23 C-1.02887512 19.35418313 -1.04675585 15.70839537 -1.0625 12.0625 C-1.07087891 11.02158203 -1.07925781 9.98066406 -1.08789062 8.90820312 C-1.09272461 7.42416992 -1.09272461 7.42416992 -1.09765625 5.91015625 C-1.10289307 4.99371338 -1.10812988 4.07727051 -1.11352539 3.13305664 C-1 1 -1 1 0 0 Z " fill="#D3D5DB" transform="translate(165,228)"/>
<path d="M0 0 C3.47600816 0.50368908 5.21999832 1.67571673 7.453125 4.35546875 C7.453125 5.67546875 7.453125 6.99546875 7.453125 8.35546875 C6.4321875 8.13890625 6.4321875 8.13890625 5.390625 7.91796875 C4.42125 7.73234375 3.451875 7.54671875 2.453125 7.35546875 C1.256875 7.10796875 0.060625 6.86046875 -1.171875 6.60546875 C-2.285625 6.52296875 -3.399375 6.44046875 -4.546875 6.35546875 C-6.23486327 7.79297066 -6.23486327 7.79297066 -7.546875 9.35546875 C-9.734375 9.04296875 -9.734375 9.04296875 -11.546875 8.35546875 C-10.51279677 0.70328985 -7.17420448 -0.22026066 0 0 Z " fill="#222031" transform="translate(112.546875,112.64453125)"/>
<path d="M0 0 C0.66 0.33 1.32 0.66 2 1 C1.67 1.78375 1.34 2.5675 1 3.375 C-0.10465676 7.37938075 -0.03620542 10.62025055 0.22265625 14.73046875 C0 17 0 17 -1.50390625 18.80078125 C-1.99761719 19.19652344 -2.49132812 19.59226562 -3 20 C-6.32440087 17.10455408 -7.31917604 15.31188509 -8 11 C-8.66 10.34 -9.32 9.68 -10 9 C-8.36587557 7.29159719 -7.13093906 6.06546953 -5 5 C-4.67 4.01 -4.34 3.02 -4 2 C-2.0625 0.75 -2.0625 0.75 0 0 Z " fill="#2D283A" transform="translate(149,104)"/>
<path d="M0 0 C0.66 1.32 1.32 2.64 2 4 C2.66 3.34 3.32 2.68 4 2 C4 5.96 4 9.92 4 14 C2.7625 14.598125 1.525 15.19625 0.25 15.8125 C-2.74332484 17.30385511 -5.41862084 18.8488507 -8 21 C-9.32 20.34 -10.64 19.68 -12 19 C-9.35024886 16.19438115 -7.19854009 14.10308812 -3.75 12.3125 C-0.51535311 9.59245603 -0.52364462 8.7990904 -0.125 4.75 C-0.05639905 3.16760483 -0.00604531 1.58386995 0 0 Z " fill="#DEDDE2" transform="translate(67,200)"/>
<path d="M0 0 C2.46916679 2.46916679 3.39682082 4.86881742 4.8125 8.0625 C9.58966065 18.91965561 9.58966065 18.91965561 17 28 C17.33 28.99 17.66 29.98 18 31 C18.66 31.33 19.32 31.66 20 32 C20.41378906 33.10408203 20.41378906 33.10408203 20.8359375 34.23046875 C22.24541243 37.58388393 24.14911719 39.65976842 26.625 42.3125 C27.44226563 43.19550781 28.25953125 44.07851562 29.1015625 44.98828125 C29.72804688 45.65214844 30.35453125 46.31601563 31 47 C28 47 28 47 25.87890625 45.0234375 C21.92674745 40.50478039 18.18855862 36.10169379 15 31 C14.50242187 30.35546875 14.00484375 29.7109375 13.4921875 29.046875 C9.32479677 23.55264686 6.35368011 17.83579577 3.5625 11.5625 C3.03124512 10.37188965 3.03124512 10.37188965 2.48925781 9.15722656 C0 3.40158883 0 3.40158883 0 0 Z " fill="#A5A4AB" transform="translate(20,185)"/>
<path d="M0 0 C0.03996094 1.06347656 0.07992187 2.12695312 0.12109375 3.22265625 C0.65600722 7.16203232 0.65600722 7.16203232 3.72265625 9.43359375 C4.82480469 10.09488281 5.92695313 10.75617188 7.0625 11.4375 C8.16722656 12.11683594 9.27195313 12.79617187 10.41015625 13.49609375 C11.26480469 13.99238281 12.11945313 14.48867187 13 15 C11.68 16.32 10.36 17.64 9 19 C8.31292969 18.50628906 7.62585938 18.01257813 6.91796875 17.50390625 C5.56638672 16.54291016 5.56638672 16.54291016 4.1875 15.5625 C3.29417969 14.92441406 2.40085938 14.28632813 1.48046875 13.62890625 C-0.97134334 11.86709732 -0.97134334 11.86709732 -4 11 C-3.8864371 9.35333797 -3.75882619 7.70763918 -3.625 6.0625 C-3.55539063 5.14597656 -3.48578125 4.22945312 -3.4140625 3.28515625 C-3.27742187 2.53105469 -3.14078125 1.77695313 -3 1 C-1 0 -1 0 0 0 Z " fill="#E4E4E7" transform="translate(206,203)"/>
<path d="M0 0 C0.556875 0.70125 1.11375 1.4025 1.6875 2.125 C2.8321875 3.548125 2.8321875 3.548125 4 5 C4.763125 6.010625 5.52625 7.02125 6.3125 8.0625 C9.36827058 11.4025283 11.99949802 12.9605284 16 15 C16 16.32 16 17.64 16 19 C11.62944251 18.89340104 9.37550916 17.77123651 6.3125 14.8125 C2.77607072 10.98658425 0.16076123 7.46500557 -0.1875 2.125 C-0.125625 1.42375 -0.06375 0.7225 0 0 Z " fill="#C27C86" transform="translate(164,69)"/>
<path d="M0 0 C-1.15173355 2.46800047 -2.04783565 4.04783565 -4 6 C-3.34 6.66 -2.68 7.32 -2 8 C-5.96 8 -9.92 8 -14 8 C-13.67 7.34 -13.34 6.68 -13 6 C-13.99 5.319375 -13.99 5.319375 -15 4.625 C-15.66 4.08875 -16.32 3.5525 -17 3 C-17 2.34 -17 1.68 -17 1 C-16.16855469 1.01160156 -15.33710938 1.02320313 -14.48046875 1.03515625 C-12.85044922 1.04869141 -12.85044922 1.04869141 -11.1875 1.0625 C-9.56908203 1.07990234 -9.56908203 1.07990234 -7.91796875 1.09765625 C-5.08596176 1.0028769 -2.78625619 0 0 0 Z " fill="#CA8484" transform="translate(145,135)"/>
<path d="M0 0 C0.66 0.33 1.32 0.66 2 1 C-4.63665398 6.38473971 -12.62782975 7.61134032 -21.015625 7.4375 C-25.89513761 6.72217878 -29.84606955 4.57323126 -34 2 C-33.34 1.67 -32.68 1.34 -32 1 C-30.98873047 1.45439453 -30.98873047 1.45439453 -29.95703125 1.91796875 C-25.83864646 3.42496028 -22.03817168 3.32942868 -17.6875 3.3125 C-16.87087891 3.32861328 -16.05425781 3.34472656 -15.21289062 3.36132812 C-9.4479681 3.36592169 -5.32800067 2.14657519 0 0 Z " fill="#CB8F86" transform="translate(153,150)"/>
<path d="M0 0 C6.93 0 13.86 0 21 0 C21.33 2.64 21.66 5.28 22 8 C22.66 8.33 23.32 8.66 24 9 C23.01 9 22.02 9 21 9 C20.67 12.63 20.34 16.26 20 20 C19.67 20 19.34 20 19 20 C19 15.38 19 10.76 19 6 C11.41 6.33 3.82 6.66 -4 7 C-2 5 -2 5 0.24658203 4.77294922 C1.15778809 4.78342285 2.06899414 4.79389648 3.0078125 4.8046875 C4.48701172 4.81435547 4.48701172 4.81435547 5.99609375 4.82421875 C7.54490234 4.84935547 7.54490234 4.84935547 9.125 4.875 C10.16527344 4.88402344 11.20554687 4.89304688 12.27734375 4.90234375 C14.85179092 4.92596253 17.42578212 4.95889851 20 5 C20 3.68 20 2.36 20 1 C13.4 1 6.8 1 0 1 C0 0.67 0 0.34 0 0 Z " fill="#857487" transform="translate(89,182)"/>
<path d="M0 0 C3.79255672 0.08058849 7.58347092 0.19345317 11.375 0.3125 C12.45523438 0.33505859 13.53546875 0.35761719 14.6484375 0.38085938 C15.6796875 0.41630859 16.7109375 0.45175781 17.7734375 0.48828125 C18.72653809 0.51446533 19.67963867 0.54064941 20.66162109 0.56762695 C21.43328613 0.71031006 22.20495117 0.85299316 23 1 C23.66 1.99 24.32 2.98 25 4 C21.95778935 4.08132642 18.9177762 4.14065374 15.875 4.1875 C14.59109375 4.22520508 14.59109375 4.22520508 13.28125 4.26367188 C8.05384474 4.32398809 4.56718676 3.85261993 0 1 C0 0.67 0 0.34 0 0 Z " fill="#F9D5C3" transform="translate(120,150)"/>
<path d="M0 0 C0 1.98 0 3.96 0 6 C7.59 6 15.18 6 23 6 C23 6.33 23 6.66 23 7 C15.74 7 8.48 7 1 7 C1 11.62 1 16.24 1 21 C0.67 21 0.34 21 0 21 C0 17.04 0 13.08 0 9 C-0.66 9 -1.32 9 -2 9 C-1.67 7.68 -1.34 6.36 -1 5 C-2.98 5.66 -4.96 6.32 -7 7 C-7 6.01 -7 5.02 -7 4 C-2.65714286 0 -2.65714286 0 0 0 Z " fill="#866A77" transform="translate(164,181)"/>
<path d="M0 0 C1.65 0.33 3.3 0.66 5 1 C4.08486681 3.28783297 3.34515354 4.73449728 1.375 6.25 C-2.5761945 7.49774563 -7.22561386 7.88719307 -11 6 C-11 4.68 -11 3.36 -11 2 C-9.39125 2.2784375 -9.39125 2.2784375 -7.75 2.5625 C-4.59608454 2.9304568 -2.90181508 3.04465343 0 2 C0 1.34 0 0.68 0 0 Z " fill="#F2F2F4" transform="translate(77,55)"/>
<path d="M0 0 C0 0.33 0 0.66 0 1 C-0.57331055 1.06993164 -1.14662109 1.13986328 -1.73730469 1.21191406 C-16.55127119 2.98392204 -16.55127119 2.98392204 -30.72265625 7.42578125 C-33 8 -33 8 -35.30859375 7.10546875 C-35.86675781 6.74066406 -36.42492187 6.37585938 -37 6 C-25.32618259 0.70306963 -12.67605247 -0.17226798 0 0 Z " fill="#C4C4C7" transform="translate(126,14)"/>
<path d="M0 0 C1.62418745 -0.08090971 3.24951745 -0.13914995 4.875 -0.1875 C5.77992188 -0.22230469 6.68484375 -0.25710937 7.6171875 -0.29296875 C8.79667969 -0.14794922 8.79667969 -0.14794922 10 0 C10.66 0.99 11.32 1.98 12 3 C9.41073669 5.58926331 7.97294721 5.37398043 4.375 5.625 C3.37210938 5.69976562 2.36921875 5.77453125 1.3359375 5.8515625 C0.17964844 5.92503906 0.17964844 5.92503906 -1 6 C-0.67 4.02 -0.34 2.04 0 0 Z " fill="#1B182C" transform="translate(131,108)"/>
<path d="M0 0 C0.33 0 0.66 0 1 0 C1 1.65 1 3.3 1 5 C2.0725 5.0825 3.145 5.165 4.25 5.25 C8 6 8 6 10.4375 7.5625 C12.73566228 11.14763316 12.28061483 13.79077755 12 18 C11.34 18.33 10.68 18.66 10 19 C9.92652344 18.06027344 9.92652344 18.06027344 9.8515625 17.1015625 C9.77679688 16.28429687 9.70203125 15.46703125 9.625 14.625 C9.55539063 13.81289062 9.48578125 13.00078125 9.4140625 12.1640625 C9.17107412 9.79665809 9.17107412 9.79665809 7 8 C4.42938689 7.35232207 4.42938689 7.35232207 2 7 C1.67 8.65 1.34 10.3 1 12 C0.67 12 0.34 12 0 12 C0 8.04 0 4.08 0 0 Z " fill="#AB606E" transform="translate(189,112)"/>
<path d="M0 0 C5.61 0 11.22 0 17 0 C16.01 0.33 15.02 0.66 14 1 C14 1.66 14 2.32 14 3 C14.66 3.33 15.32 3.66 16 4 C11.71 4 7.42 4 3 4 C3 3.34 3 2.68 3 2 C2.01 1.34 1.02 0.68 0 0 Z " fill="#C6818A" transform="translate(136,61)"/>
<path d="M0 0 C3 3.75 3 3.75 3 6 C5.31 6.66 7.62 7.32 10 8 C10 8.66 10 9.32 10 10 C9.34 10 8.68 10 8 10 C7.731875 10.928125 7.46375 11.85625 7.1875 12.8125 C6.08851629 15.76240366 5.37581439 17.05615186 3 19 C3 17.02 3 15.04 3 13 C3.66 13 4.32 13 5 13 C3.46395304 9.85808576 1.94268841 6.91403262 0 4 C0 2.68 0 1.36 0 0 Z " fill="#928CAD" transform="translate(64,61)"/>
<path d="M0 0 C0.515625 0.350625 1.03125 0.70125 1.5625 1.0625 C4.94006667 2.3615641 7.50468057 1.67217681 11 1 C10.125 5.875 10.125 5.875 9 7 C5.5625 7.25 5.5625 7.25 2 7 C0 4 0 4 0 0 Z " fill="#827B9D" transform="translate(103,41)"/>
<path d="M0 0 C-0.84304687 0.37511719 -1.68609375 0.75023438 -2.5546875 1.13671875 C-3.65039062 1.64847656 -4.74609375 2.16023438 -5.875 2.6875 C-6.96554688 3.18636719 -8.05609375 3.68523438 -9.1796875 4.19921875 C-12.34133178 6.21794176 -13.04209163 7.44118853 -14 11 C-15.32 11 -16.64 11 -18 11 C-17.690625 10.401875 -17.38125 9.80375 -17.0625 9.1875 C-15.89790296 6.91043228 -15.89790296 6.91043228 -15 4 C-12.63671875 2.578125 -12.63671875 2.578125 -9.6875 1.25 C-8.72199219 0.80140625 -7.75648437 0.3528125 -6.76171875 -0.109375 C-3.91055596 -1.02884475 -2.74159373 -1.06798426 0 0 Z " fill="#E7E8EA" transform="translate(131,17)"/>
<path d="M0 0 C1.98 0 3.96 0 6 0 C6.625 2.375 6.625 2.375 7 5 C6.34 5.66 5.68 6.32 5 7 C2.375 6.625 2.375 6.625 0 6 C0 4.02 0 2.04 0 0 Z " fill="#A6A2C2" transform="translate(224,137)"/>
<path d="M0 0 C0.33 0 0.66 0 1 0 C1.33 1.65 1.66 3.3 2 5 C2.33 5 2.66 5 3 5 C3 9.29 3 13.58 3 18 C2.01 18 1.02 18 0 18 C0 12.06 0 6.12 0 0 Z " fill="#F0F4F7" transform="translate(165,232)"/>
<path d="M0 0 C1.66611905 -0.042721 3.33382885 -0.04063832 5 0 C6 1 6 1 6.0625 3.5625 C6.041875 4.366875 6.02125 5.17125 6 6 C3.625 6.625 3.625 6.625 1 7 C0.34 6.34 -0.32 5.68 -1 5 C-0.625 2.375 -0.625 2.375 0 0 Z " fill="#AAA7BE" transform="translate(44,137)"/>
<path d="M0 0 C1.22095366 3.49652815 0.76884532 5.52472573 -0.43359375 8.984375 C-0.75263672 9.91894531 -1.07167969 10.85351562 -1.40039062 11.81640625 C-1.74263672 12.78449219 -2.08488281 13.75257813 -2.4375 14.75 C-2.77587891 15.73355469 -3.11425781 16.71710938 -3.46289062 17.73046875 C-4.2992413 20.15706366 -5.14521428 22.57985028 -6 25 C-7.15507777 21.06578773 -6.83585767 18.02731423 -6 14 C-5.34 13.67 -4.68 13.34 -4 13 C-3.60914534 10.90491777 -3.60914534 10.90491777 -3.5 8.5 C-3.34375 6.03125 -3.34375 6.03125 -3 4 C-2.34 3.67 -1.68 3.34 -1 3 C-0.67 2.01 -0.34 1.02 0 0 Z " fill="#7E7D89" transform="translate(258,168)"/>
<path d="M0 0 C1.98 0.495 1.98 0.495 4 1 C4.29341888 6.67276511 4.00559652 9.99067246 1 15 C0.34 14.67 -0.32 14.34 -1 14 C-0.83628906 13.44828125 -0.67257813 12.8965625 -0.50390625 12.328125 C0.05760414 9.73385993 0.09739008 7.40164589 0.0625 4.75 C0.05347656 3.85796875 0.04445312 2.9659375 0.03515625 2.046875 C0.02355469 1.37140625 0.01195312 0.6959375 0 0 Z " fill="#D3D2D6" transform="translate(180,24)"/>
<path d="M0 0 C4.07328768 0.56680182 6.40620179 2.71591936 9.5 5.3125 C10.4384375 6.09238281 11.376875 6.87226562 12.34375 7.67578125 C14.66314076 9.70524817 16.85486448 11.78909381 19 14 C18.67 14.66 18.34 15.32 18 16 C17.20335937 15.25234375 16.40671875 14.5046875 15.5859375 13.734375 C14.51583003 12.73936279 13.44550592 11.74458352 12.375 10.75 C11.85292969 10.25886719 11.33085937 9.76773438 10.79296875 9.26171875 C8.17848083 6.8408966 5.59261521 4.64792471 2.6015625 2.703125 C1.74304688 2.14109375 0.88453125 1.5790625 0 1 C0 0.67 0 0.34 0 0 Z " fill="#8277A4" transform="translate(198,46)"/>
<path d="M0 0 C0.66 0.33 1.32 0.66 2 1 C-3.55161526 5.52353836 -8.25421161 6.28899955 -15.3125 6.125 C-16.05306641 6.11597656 -16.79363281 6.10695312 -17.55664062 6.09765625 C-19.37123467 6.07424213 -21.18566071 6.03837615 -23 6 C-23 5.67 -23 5.34 -23 5 C-22.01 4.89042969 -21.02 4.78085938 -20 4.66796875 C-12.941565 3.83625087 -6.60891505 2.72131796 0 0 Z " fill="#BA746E" transform="translate(153,150)"/>
<path d="M0 0 C6.05376634 -0.41750113 9.181776 -0.11311805 14 4 C14.33 4.99 14.66 5.98 15 7 C14.1646875 6.566875 14.1646875 6.566875 13.3125 6.125 C9.25987185 4.15345117 5.451929 2.76318783 1 2 C0.67 2.66 0.34 3.32 0 4 C0 2.68 0 1.36 0 0 Z " fill="#ECE2DD" transform="translate(190,110)"/>
<path d="M0 0 C0.66 0.33 1.32 0.66 2 1 C2 1.33 2 1.66 2 2 C2.66 2 3.32 2 4 2 C4 2.66 4 3.32 4 4 C3.01 4.33 2.02 4.66 1 5 C0.26676204 7.01508358 0.26676204 7.01508358 0 9 C-1.32 8.67 -2.64 8.34 -4 8 C-3.50168276 4.31245243 -2.89932357 2.39509338 0 0 Z " fill="#332D3C" transform="translate(105,113)"/>
<path d="M0 0 C2.75 -0.25 2.75 -0.25 6 0 C7.32 1.32 8.64 2.64 10 4 C6.04 4 2.08 4 -2 4 C-1.34 2.68 -0.68 1.36 0 0 Z " fill="#C18888" transform="translate(133,139)"/>
<path d="M0 0 C0.33 0 0.66 0 1 0 C1 1.98 1 3.96 1 6 C1.66 6 2.32 6 3 6 C3.33 6.66 3.66 7.32 4 8 C4.99 6.68 5.98 5.36 7 4 C7 7.3 7 10.6 7 14 C5.33333333 12.33333333 3.66666667 10.66666667 2 9 C1.38125 8.525625 0.7625 8.05125 0.125 7.5625 C-1 6 -1 6 -0.6875 2.8125 C-0.460625 1.884375 -0.23375 0.95625 0 0 Z " fill="#F4DACA" transform="translate(176,93)"/>
<path d="M0 0 C2.16874252 0.50603992 3.99967627 0.99983813 6 2 C6 2.66 6 3.32 6 4 C6.66 4.33 7.32 4.66 8 5 C4.7 5.66 1.4 6.32 -2 7 C-1.67 6.01 -1.34 5.02 -1 4 C-0.01 4 0.98 4 2 4 C2 3.34 2 2.68 2 2 C0.68 2.33 -0.64 2.66 -2 3 C-1.34 2.01 -0.68 1.02 0 0 Z " fill="#19182B" transform="translate(107,113)"/>
<path d="M0 0 C3.875 1.875 3.875 1.875 5 3 C6.99958364 3.04080783 9.00045254 3.04254356 11 3 C11 3.66 11 4.32 11 5 C8 7 8 7 5.5 6.8125 C2.81968874 5.94139884 1.6530101 5.26201382 0 3 C0 2.01 0 1.02 0 0 Z " fill="#DCDCDF" transform="translate(73,41)"/>
<path d="M0 0 C2.93200474 2.85276137 5.64315404 5.65079784 8 9 C6.35 9.66 4.7 10.32 3 11 C2.01 7.37 1.02 3.74 0 0 Z " fill="#DFC8BE" transform="translate(90,124)"/>
<path d="M0 0 C0.66 0 1.32 0 2 0 C2.19551338 1.60320974 2.38111983 3.20762986 2.5625 4.8125 C2.66691406 5.70582031 2.77132812 6.59914063 2.87890625 7.51953125 C3 10 3 10 2 13 C1.34 13 0.68 13 0 13 C0 8.71 0 4.42 0 0 Z " fill="#D1BEB7" transform="translate(89,96)"/>
<path d="M0 0 C0.99 0.66 1.98 1.32 3 2 C2.030625 2.721875 1.06125 3.44375 0.0625 4.1875 C-2.29913506 6.13237593 -2.93412331 6.7882535 -3.875 9.8125 C-3.91625 10.534375 -3.9575 11.25625 -4 12 C-4.99 12 -5.98 12 -7 12 C-5.77759242 7.95665186 -4.39561694 4.49360803 -2 1 C-1.34 0.67 -0.68 0.34 0 0 Z " fill="#3F3A4F" transform="translate(111,143)"/>
<path d="M0 0 C1.04702186 3.7264085 1.07442057 7.13013042 1 11 C0.01 11.33 -0.98 11.66 -2 12 C-2 13.98 -2 15.96 -2 18 C-2.33 18 -2.66 18 -3 18 C-3.42765417 11.58518742 -1.85743168 6.11404596 0 0 Z " fill="#767580" transform="translate(17,101)"/>
<path d="M0 0 C0.33 0.66 0.66 1.32 1 2 C4.3 2 7.6 2 11 2 C11 2.33 11 2.66 11 3 C9.4221875 3.2165625 9.4221875 3.2165625 7.8125 3.4375 C4.84539451 3.87526966 1.93205634 4.37804866 -1 5 C-1 1 -1 1 0 0 Z " fill="#453C48" transform="translate(154,116)"/>
<path d="M0 0 C0.66 0.66 1.32 1.32 2 2 C1.01 2 0.02 2 -1 2 C-1 2.66 -1 3.32 -1 4 C-3.64 3.67 -6.28 3.34 -9 3 C-6.40257043 -0.46323942 -4.16948329 -0.44356205 0 0 Z " fill="#3F3A46" transform="translate(165,112)"/>
<path d="M0 0 C-0.875 4.875 -0.875 4.875 -2 6 C-3.66617115 6.04063832 -5.33388095 6.042721 -7 6 C-5.52522876 2.59668175 -4.14385429 0 0 0 Z " fill="#6B6697" transform="translate(85,39)"/>
<path d="M0 0 C1.21236328 0.02707031 1.21236328 0.02707031 2.44921875 0.0546875 C3.37154297 0.08949219 3.37154297 0.08949219 4.3125 0.125 C4.3125 0.455 4.3125 0.785 4.3125 1.125 C3.72082031 1.23457031 3.12914063 1.34414062 2.51953125 1.45703125 C-2.10095763 2.38414403 -5.7751779 3.34851335 -9.6875 6.125 C-7.58496928 1.27300604 -5.24222142 -0.15194845 0 0 Z " fill="#F4ECE6" transform="translate(77.6875,110.875)"/>
<path d="M0 0 C0.99 0.33 1.98 0.66 3 1 C0.525 5.455 0.525 5.455 -2 10 C-2.33 10 -2.66 10 -3 10 C-3 8.02 -3 6.04 -3 4 C-2.34 3.67 -1.68 3.34 -1 3 C-0.67 2.01 -0.34 1.02 0 0 Z " fill="#BDB9CD" transform="translate(70,70)"/>
<path d="M0 0 C2.9375 0.75 2.9375 0.75 6 2 C6.875 4.125 6.875 4.125 7 6 C4.625 5.8125 4.625 5.8125 2 5 C0.6875 2.4375 0.6875 2.4375 0 0 Z " fill="#C1858C" transform="translate(157,63)"/>
<path d="M0 0 C-3.3 2.31 -6.6 4.62 -10 7 C-10.66 6.67 -11.32 6.34 -12 6 C-5 -1.25 -5 -1.25 0 0 Z " fill="#C6C6CB" transform="translate(74,31)"/>
<path d="M0 0 C3.96 0 7.92 0 12 0 C11.67 1.32 11.34 2.64 11 4 C7.37 3.01 3.74 2.02 0 1 C0 0.67 0 0.34 0 0 Z " fill="#2D2B39" transform="translate(143,15)"/>
<path d="M0 0 C3.3 0.66 6.6 1.32 10 2 C5.80575911 4.09712044 3.55386148 4 -1 4 C-0.67 2.68 -0.34 1.36 0 0 Z " fill="#1D1B2D" transform="translate(75,47)"/>
<path d="M0 0 C2.475 0.495 2.475 0.495 5 1 C5 2.32 5 3.64 5 5 C3.68 4.67 2.36 4.34 1 4 C0.67 2.68 0.34 1.36 0 0 Z " fill="#CC8794" transform="translate(175,83)"/>
<path d="M0 0 C0.99 0 1.98 0 3 0 C1.92598892 2.91517292 1.22189824 4.77810176 -1 7 C-3.625 7.125 -3.625 7.125 -6 7 C-5.071875 6.6596875 -5.071875 6.6596875 -4.125 6.3125 C-1.38589791 4.62070165 -0.94975528 3.00755839 0 0 Z " fill="#35314E" transform="translate(205,61)"/>
<path d="M0 0 C0.66 0.33 1.32 0.66 2 1 C0.02 3.31 -1.96 5.62 -4 8 C-4.33 6.68 -4.66 5.36 -5 4 C-3.35 2.68 -1.7 1.36 0 0 Z " fill="#C37F83" transform="translate(162,190)"/>
<path d="M0 0 C1.32 0.66 2.64 1.32 4 2 C4 2.99 4 3.98 4 5 C1.69 4.34 -0.62 3.68 -3 3 C-2.01 2.01 -1.02 1.02 0 0 Z " fill="#8984A3" transform="translate(149,38)"/>
<path d="M0 0 C3.37462715 0.54723683 5.08235 1.0549 8 3 C8 3.66 8 4.32 8 5 C2.25 3.125 2.25 3.125 0 2 C0 1.34 0 0.68 0 0 Z " fill="#7E789F" transform="translate(186,182)"/>
<path d="M0 0 C-0.66 0 -1.32 0 -2 0 C-2 0.66 -2 1.32 -2 2 C-4.64 2.33 -7.28 2.66 -10 3 C-9 1 -9 1 -6.6875 -0.1875 C-3.88010429 -1.03624754 -2.698065 -0.99928333 0 0 Z " fill="#565367" transform="translate(131,22)"/>
<path d="M0 0 C-5.625 3 -5.625 3 -9 3 C-9 2.34 -9 1.68 -9 1 C-5.57367167 -0.61798838 -3.61944899 -1.34053666 0 0 Z " fill="#D7D7D7" transform="translate(91,22)"/>
<path d="M0 0 C0.99 0.33 1.98 0.66 3 1 C2.67 2.65 2.34 4.3 2 6 C0.35 6 -1.3 6 -3 6 C-2.01 4.02 -1.02 2.04 0 0 Z " fill="#2D2739" transform="translate(167,129)"/>
<path d="M0 0 C0 0.99 0 1.98 0 3 C-1.98 3.99 -3.96 4.98 -6 6 C-5.6875 4.125 -5.6875 4.125 -5 2 C-2 0 -2 0 0 0 Z " fill="#F6F8F7" transform="translate(124,20)"/>
<path d="M0 0 C-3.3 1.32 -6.6 2.64 -10 4 C-10.33 3.34 -10.66 2.68 -11 2 C-4.5 -1.125 -4.5 -1.125 0 0 Z " fill="#CACACE" transform="translate(131,17)"/>
<path d="M0 0 C1.65 0 3.3 0 5 0 C5.66 1.32 6.32 2.64 7 4 C4.23723823 3.47731534 1.6739124 2.89130413 -1 2 C-0.67 1.34 -0.34 0.68 0 0 Z " fill="#1D1B2A" transform="translate(163,226)"/>
<path d="M0 0 C0.66 0.33 1.32 0.66 2 1 C0.68 2.65 -0.64 4.3 -2 6 C-2.99 5.67 -3.98 5.34 -5 5 C-3.35 3.35 -1.7 1.7 0 0 Z " fill="#6A618F" transform="translate(170,175)"/>
<path d="M0 0 C0 0.99 0 1.98 0 3 C-2.75924185 4.80411967 -3.88972103 5.0127245 -7.25 4.625 C-8.1575 4.41875 -9.065 4.2125 -10 4 C-10 3.67 -10 3.34 -10 3 C-8.906875 2.87625 -7.81375 2.7525 -6.6875 2.625 C-2.92618198 2.24535199 -2.92618198 2.24535199 0 0 Z " fill="#4A4759" transform="translate(89,45)"/>
<path d="M0 0 C2.64 0 5.28 0 8 0 C4.77484237 1.73662334 1.48670834 2.8905928 -2 4 C-1.34 2.68 -0.68 1.36 0 0 Z " fill="#1B192A" transform="translate(123,15)"/>
</svg>
