<?xml version="1.0" encoding="UTF-8"?>
<svg xmlns="http://www.w3.org/2000/svg" xmlns:xlink="http://www.w3.org/1999/xlink" width="24px" height="24px" viewBox="0 0 24 24" version="1.1">
<g id="surface1">
<path style=" stroke:none;fill-rule:nonzero;fill:rgb(100%,100%,100%);fill-opacity:1;" d="M 9.4375 13.320312 C 9.523438 11.402344 10.289062 9.710938 11.441406 8.511719 C 12.570312 7.332031 14.089844 6.613281 15.75 6.613281 C 17.410156 6.613281 18.929688 7.332031 20.058594 8.511719 C 21.210938 9.710938 21.972656 11.402344 22.0625 13.324219 C 22.148438 15.296875 21.503906 17.128906 20.375 18.488281 C 19.222656 19.871094 17.585938 20.738281 15.75 20.738281 C 13.914062 20.738281 12.273438 19.871094 11.121094 18.488281 C 9.988281 17.125 9.347656 15.292969 9.4375 13.320312 Z M 9.4375 13.320312 "/>
<path style=" stroke:none;fill-rule:nonzero;fill:rgb(14.901961%,34.117648%,52.941179%);fill-opacity:1;" d="M 12.511719 13.496094 C 12.554688 12.507812 12.949219 11.640625 13.539062 11.023438 C 14.824219 9.726562 16.675781 9.726562 17.960938 11.023438 C 18.550781 11.640625 18.945312 12.507812 18.988281 13.492188 C 19.035156 14.507812 18.699219 15.445312 18.125 16.144531 C 17.535156 16.851562 16.691406 17.296875 15.75 17.296875 C 14.808594 17.296875 13.96875 16.851562 13.375 16.144531 C 12.796875 15.445312 12.464844 14.507812 12.511719 13.496094 Z M 12.511719 13.496094 "/>
<path style=" stroke:none;fill-rule:nonzero;fill:rgb(91.764706%,46.27451%,0%);fill-opacity:1;" d="M 7.351562 15.488281 C 7.359375 15.875 7.457031 16.625 7.609375 17.207031 C 7.929688 18.46875 8.476562 19.628906 9.199219 20.601562 C 9.976562 21.65625 10.925781 22.496094 11.984375 23.066406 C 14.316406 24.320312 16.972656 24.3125 19.300781 23.046875 C 20.359375 22.472656 21.308594 21.628906 22.085938 20.574219 C 22.808594 19.59375 23.351562 18.433594 23.675781 17.171875 C 23.835938 16.554688 23.933594 15.917969 23.976562 15.273438 C 24.015625 14.644531 24 14.011719 23.929688 13.386719 C 23.789062 12.171875 23.441406 11.007812 22.914062 9.964844 C 22.421875 9 21.796875 8.148438 21.0625 7.453125 L 13.566406 0.367188 C 13.558594 0.359375 13.554688 0.351562 13.546875 0.347656 C 13.054688 -0.117188 12.226562 -0.117188 11.6875 0.347656 C 11.144531 0.808594 11.078125 1.597656 11.5625 2.089844 L 14.6875 5.222656 L 5.164062 5.234375 L 5.148438 5.234375 C 4.359375 5.238281 3.605469 5.875 3.453125 6.679688 C 3.300781 7.5 3.835938 8.179688 4.652344 8.183594 L 4.652344 8.1875 L 9.484375 8.175781 L 0.863281 16.316406 L 0.832031 16.347656 C 0.0195312 17.117188 -0.246094 18.390625 0.265625 19.195312 C 0.785156 20.015625 1.890625 20.019531 2.714844 19.203125 L 7.417969 14.460938 C 7.382812 14.800781 7.359375 15.144531 7.351562 15.488281 Z M 19.4375 17.628906 C 18.46875 18.84375 17.113281 19.53125 15.644531 19.535156 C 14.179688 19.539062 12.816406 18.855469 11.847656 17.644531 C 11.390625 17.078125 11.039062 16.398438 10.8125 15.648438 C 10.601562 14.933594 10.519531 14.171875 10.574219 13.417969 C 10.625 12.679688 10.800781 11.960938 11.09375 11.3125 C 11.386719 10.667969 11.777344 10.09375 12.246094 9.625 C 13.1875 8.679688 14.386719 8.167969 15.640625 8.167969 C 16.894531 8.164062 18.09375 8.671875 19.039062 9.613281 C 19.503906 10.078125 19.898438 10.648438 20.1875 11.296875 C 20.480469 11.945312 20.660156 12.660156 20.710938 13.398438 C 20.765625 14.152344 20.683594 14.914062 20.472656 15.625 C 20.246094 16.378906 19.894531 17.058594 19.4375 17.628906 Z M 19.4375 17.628906 "/>
</g>
</svg>
