<?xml version="1.0" encoding="UTF-8"?>
<svg xmlns="http://www.w3.org/2000/svg" xmlns:xlink="http://www.w3.org/1999/xlink" width="24px" height="24px" viewBox="0 0 24 24" version="1.1">
<g id="surface1">
<path style=" stroke:none;fill-rule:nonzero;fill:rgb(20%,0%,0%);fill-opacity:1;" d="M 1.5 9.101562 C 1.5 6.441406 1.5 5.109375 2.019531 4.09375 C 2.472656 3.199219 3.199219 2.472656 4.09375 2.019531 C 5.109375 1.5 6.441406 1.5 9.101562 1.5 L 14.898438 1.5 C 17.558594 1.5 18.890625 1.5 19.90625 2.019531 C 20.800781 2.472656 21.527344 3.199219 21.980469 4.09375 C 22.5 5.109375 22.5 6.441406 22.5 9.101562 L 22.5 14.898438 C 22.5 17.558594 22.5 18.890625 21.980469 19.90625 C 21.527344 20.800781 20.800781 21.527344 19.90625 21.980469 C 18.890625 22.5 17.558594 22.5 14.898438 22.5 L 9.101562 22.5 C 6.441406 22.5 5.109375 22.5 4.09375 21.980469 C 3.199219 21.527344 2.472656 20.800781 2.019531 19.90625 C 1.5 18.890625 1.5 17.558594 1.5 14.898438 Z M 1.5 9.101562 "/>
<path style=" stroke:none;fill-rule:nonzero;fill:rgb(100%,60.392159%,0%);fill-opacity:1;" d="M 11.675781 14.695312 L 8.421875 14.695312 L 7.761719 16.808594 C 7.742188 16.886719 7.667969 16.941406 7.589844 16.9375 L 5.941406 16.9375 C 5.847656 16.9375 5.816406 16.882812 5.84375 16.777344 L 8.660156 8.457031 C 8.691406 8.367188 8.71875 8.269531 8.746094 8.160156 C 8.78125 7.964844 8.800781 7.769531 8.800781 7.574219 C 8.792969 7.515625 8.84375 7.464844 8.902344 7.472656 L 11.140625 7.472656 C 11.207031 7.472656 11.246094 7.496094 11.253906 7.546875 L 14.453125 16.792969 C 14.480469 16.886719 14.453125 16.9375 14.367188 16.9375 L 12.535156 16.9375 C 12.472656 16.945312 12.410156 16.898438 12.394531 16.835938 Z M 8.929688 12.875 L 11.15625 12.875 C 10.789062 11.628906 10.375 10.394531 10.042969 9.132812 C 9.679688 10.394531 9.289062 11.652344 8.929688 12.875 Z M 8.929688 12.875 "/>
<path style=" stroke:none;fill-rule:nonzero;fill:rgb(100%,60.392159%,0%);fill-opacity:1;" d="M 16.351562 9.003906 C 16.210938 9.011719 16.066406 8.984375 15.933594 8.929688 C 15.800781 8.875 15.679688 8.792969 15.578125 8.6875 C 15.480469 8.574219 15.402344 8.445312 15.351562 8.304688 C 15.300781 8.164062 15.277344 8.011719 15.28125 7.863281 C 15.277344 7.714844 15.304688 7.566406 15.359375 7.425781 C 15.414062 7.289062 15.496094 7.164062 15.601562 7.0625 C 15.703125 6.957031 15.824219 6.878906 15.960938 6.824219 C 16.09375 6.773438 16.238281 6.746094 16.382812 6.75 C 16.71875 6.75 16.984375 6.855469 17.175781 7.0625 C 17.273438 7.167969 17.351562 7.292969 17.398438 7.433594 C 17.449219 7.570312 17.472656 7.714844 17.464844 7.863281 C 17.472656 8.015625 17.449219 8.164062 17.394531 8.304688 C 17.34375 8.449219 17.265625 8.578125 17.164062 8.6875 C 17.058594 8.792969 16.929688 8.878906 16.789062 8.933594 C 16.652344 8.988281 16.503906 9.011719 16.351562 9.003906 Z M 15.382812 16.792969 L 15.382812 9.886719 C 15.382812 9.800781 15.417969 9.753906 15.492188 9.753906 L 17.226562 9.753906 C 17.300781 9.753906 17.339844 9.800781 17.339844 9.886719 L 17.339844 16.792969 C 17.339844 16.886719 17.300781 16.9375 17.226562 16.9375 L 15.507812 16.9375 C 15.421875 16.9375 15.382812 16.886719 15.382812 16.792969 Z M 15.382812 16.792969 "/>
</g>
</svg>
